<svg width="275" height="64" viewBox="0 0 275 64" fill="none" xmlns="http://www.w3.org/2000/svg">
<path d="M6.76392 12.2223C6.07678 11.1698 6.62265 9.75352 7.83838 9.43445L41.6356 0.564509C42.8513 0.245447 44.0224 1.21119 43.9406 2.46542L43.8144 4.40237C43.7628 5.19331 43.2109 5.86251 42.4443 6.06372L9.83444 14.622C9.06779 14.8232 8.2584 14.5113 7.82508 13.8476L6.76392 12.2223Z" fill="black"/>
<path d="M56.9665 52.1014C57.6537 53.1539 57.1078 54.5702 55.8921 54.8893L22.0949 63.7592C20.8791 64.0783 19.7081 63.1125 19.7899 61.8583L19.9161 59.9214C19.9677 59.1304 20.5196 58.4612 21.2862 58.26L53.896 49.7017C54.6627 49.5005 55.4721 49.8124 55.9054 50.4761L56.9665 52.1014Z" fill="black"/>
<path d="M13.6838 14.5641C14.4117 19.3819 18.3611 29.5674 28.356 32.8172C28.7194 32.9354 28.8192 33.4264 28.5362 33.6832C25.1193 36.7842 20.1951 44.8161 23.3327 56.7714" stroke="black" stroke-width="1.84145"/>
<path d="M38.3978 8.0782C40.1295 12.6326 41.6909 23.4448 34.58 31.1839C34.3215 31.4653 34.4756 31.9421 34.8483 32.0268C39.3476 33.0502 47.5814 37.6288 50.719 49.5841" stroke="black" stroke-width="1.84145"/>
<path d="M31.2166 32.3979C22.8161 29.3018 18.0128 22.3305 17.0996 18.7787C17.0352 18.5282 17.2108 18.2895 17.4666 18.2514L20.8933 17.7402C21.1256 17.7055 21.3456 17.8506 21.4138 18.0755C23.4569 24.8157 32.2501 31.2074 28.7917 27.3051C26.3253 24.5221 24.8068 21.0132 24.1714 19.0601C24.0636 18.7288 24.3654 18.4054 24.7121 18.4397C27.336 18.7 33.1808 18.2164 36.4174 17.8723C36.6831 17.8441 36.9161 18.0463 36.9158 18.3135C36.9107 23.677 33.5782 30.1059 31.6984 32.2794C31.5795 32.4168 31.387 32.4607 31.2166 32.3979Z" fill="#1374FE"/>
<path d="M43.5867 51.1137L24.0001 56.5C22.2588 49.2653 24.4971 42.0001 30 40C36.1942 37.7487 42.6378 45.5535 43.9057 50.5831C43.9648 50.8173 43.8197 51.0496 43.5867 51.1137Z" fill="black"/>
<path d="M85.024 14.436L94.432 26.948H88.928L82.176 17.636L80.352 19.684V26.948H76V4.42H80.352V11.492C80.352 12.676 80.064 13.188 79.552 13.86C79.392 14.084 79.424 14.276 79.584 14.404C79.776 14.564 80 14.436 80.128 14.308L88.672 4.42H93.92L85.024 14.436Z" fill="black"/>
<path d="M100.506 27.204C96.8575 27.204 94.4255 24.836 94.4255 20.036V10.052H98.5215V18.628C98.5215 22.436 99.5135 23.492 101.657 23.492C104.025 23.492 106.201 20.836 106.201 16.932V10.052H110.298V26.948H106.201V25.892C106.201 24.868 106.426 24.26 106.714 23.588C106.842 23.3 107.034 22.852 106.618 22.756C106.361 22.692 106.266 22.884 106.138 23.14C105.306 24.804 103.45 27.204 100.506 27.204Z" fill="black"/>
<path d="M113.625 10.052H117.721V26.948H113.625V10.052Z" fill="black"/>
<path d="M119.789 18.5C119.789 13.476 123.084 9.796 128.333 9.796C133.069 9.796 135.884 12.996 136.173 16.452H132.14C131.884 14.852 130.637 13.508 128.333 13.508C125.517 13.508 123.884 15.556 123.884 18.5C123.884 21.444 125.517 23.492 128.333 23.492C130.637 23.492 131.884 22.148 132.14 20.548H136.173C135.884 24.004 133.101 27.204 128.333 27.204C123.181 27.204 119.789 23.524 119.789 18.5Z" fill="black"/>
<path d="M146.539 17.124L154.091 26.948H148.971L143.787 19.876L142.315 21.348V26.948H138.219V3.908H142.315V13.988C142.315 15.332 141.995 15.876 141.483 16.516C141.355 16.676 141.291 16.9 141.483 17.06C141.739 17.252 141.931 17.06 142.027 16.964L148.459 10.052H153.579L146.539 17.124Z" fill="black"/>
<path d="M176.105 26.948H171.241L169.513 21.828H160.169L158.441 26.948H153.577L161.769 4.42H167.913L176.105 26.948ZM163.945 10.532L161.353 18.244H168.329L165.737 10.532C165.449 9.636 165.257 8.452 165.225 7.332C165.225 7.14 165.161 6.884 164.841 6.884C164.521 6.884 164.457 7.14 164.457 7.332C164.425 8.452 164.233 9.636 163.945 10.532Z" fill="black"/>
<path d="M177.656 10.052H181.752V10.692C181.752 11.364 181.592 11.876 181.304 12.452C181.176 12.772 180.952 13.156 181.272 13.316C181.592 13.476 181.784 13.06 181.848 12.932C182.872 11.14 184.568 9.796 187.192 9.796C191.576 9.796 194.552 13.636 194.552 18.5C194.552 23.364 191.576 27.204 187.192 27.204C184.632 27.204 182.872 25.892 181.848 24.036C181.784 23.94 181.656 23.62 181.368 23.716C181.016 23.844 181.144 24.164 181.304 24.484C181.592 25.06 181.752 25.572 181.752 26.212V33.092H177.656V10.052ZM186.232 23.492C189.112 23.492 190.456 21.188 190.456 18.5C190.456 15.812 189.112 13.508 186.232 13.508C183.544 13.508 181.752 15.812 181.752 18.5C181.752 21.188 183.544 23.492 186.232 23.492Z" fill="black"/>
<path d="M196.875 10.052H200.971V10.692C200.971 11.364 200.811 11.876 200.523 12.452C200.395 12.772 200.171 13.156 200.491 13.316C200.811 13.476 201.003 13.06 201.067 12.932C202.091 11.14 203.787 9.796 206.411 9.796C210.795 9.796 213.771 13.636 213.771 18.5C213.771 23.364 210.795 27.204 206.411 27.204C203.851 27.204 202.091 25.892 201.067 24.036C201.003 23.94 200.875 23.62 200.587 23.716C200.235 23.844 200.363 24.164 200.523 24.484C200.811 25.06 200.971 25.572 200.971 26.212V33.092H196.875V10.052ZM205.451 23.492C208.331 23.492 209.675 21.188 209.675 18.5C209.675 15.812 208.331 13.508 205.451 13.508C202.763 13.508 200.971 15.812 200.971 18.5C200.971 21.188 202.763 23.492 205.451 23.492Z" fill="black"/>
<path d="M113.625 3.908V8.004H122V3.908H113.625Z" fill="#1374FE"/>
<path opacity="0.5" d="M77.024 43.828H80.848C84.976 43.828 86.24 46.484 86.24 49.46C86.24 52.436 84.928 55.092 80.848 55.092H77.024V43.828ZM78.432 53.94H80.96C83.808 53.94 84.832 51.732 84.832 49.46C84.832 47.188 83.808 44.98 80.96 44.98H78.432V53.94ZM88.03 45.236V43.572H89.438V45.236H88.03ZM88.094 46.9H89.374V55.092H88.094V46.9ZM91.1051 50.932C91.1051 48.484 92.5931 46.772 94.7211 46.772C96.0331 46.772 96.9611 47.476 97.4731 48.516C97.5051 48.58 97.5371 48.724 97.6651 48.676C97.7931 48.628 97.7131 48.468 97.6491 48.324C97.5211 48.004 97.5051 47.812 97.5051 47.492V46.9H98.7851V54.356C98.7851 57.108 97.2971 58.292 94.9931 58.292C92.5771 58.292 91.5051 57.156 91.3611 55.604H92.6411C92.7531 56.34 93.2171 57.204 94.9771 57.204C96.6571 57.204 97.5051 56.228 97.5051 54.356C97.5051 54.004 97.5211 53.812 97.6491 53.508C97.7451 53.268 97.7771 53.188 97.6651 53.14C97.5531 53.092 97.5051 53.236 97.4731 53.316C96.9451 54.42 96.0011 55.092 94.7211 55.092C92.5931 55.092 91.1051 53.38 91.1051 50.932ZM94.9451 53.94C96.4651 53.94 97.5051 52.628 97.5051 50.932C97.5051 49.236 96.4651 47.924 94.9451 47.924C93.2811 47.924 92.3851 49.236 92.3851 50.932C92.3851 52.628 93.2811 53.94 94.9451 53.94ZM100.967 45.236V43.572H102.375V45.236H100.967ZM101.031 46.9H102.311V55.092H101.031V46.9ZM108.781 46.9V47.988H106.477V52.788C106.477 53.716 106.669 54.004 107.565 54.004H108.781V55.092H107.565C105.869 55.092 105.197 54.596 105.197 52.692V47.988H103.661V46.9H105.197V44.596H106.477V46.9H108.781ZM110.128 52.804C110.128 50.996 111.568 50.436 113.008 50.308C114.512 50.18 116.032 50.308 116.016 49.396C116 48.756 115.68 47.86 113.808 47.86C112.368 47.86 111.744 48.596 111.632 49.332H110.384C110.672 47.524 112.176 46.772 113.936 46.772C115.776 46.772 117.296 47.412 117.296 50.42V55.092H116.016V54.18C116.016 53.86 116.064 53.62 116.176 53.284C116.224 53.156 116.272 53.012 116.144 52.98C116.064 52.964 116.016 53.028 115.984 53.124C115.552 54.42 114.32 55.22 112.816 55.22C111.36 55.22 110.128 54.212 110.128 52.804ZM116.016 50.516C115.536 51.076 114.288 51.14 113.04 51.348C112.048 51.508 111.408 51.876 111.408 52.724C111.408 53.508 112.016 54.26 113.344 54.132C114.88 53.988 116 52.788 116.016 50.516ZM120.818 43.572V55.092H119.538V43.572H120.818ZM122.997 45.236V43.572H124.405V45.236H122.997ZM123.061 46.9H124.341V55.092H123.061V46.9ZM132.984 55.092H126.328V53.428L131.208 48.564C131.4 48.372 131.512 48.308 131.752 48.164C131.832 48.116 131.928 48.068 131.88 47.972C131.832 47.876 131.752 47.924 131.672 47.94C131.4 47.988 131.256 48.052 131.064 48.052H126.328V46.9H132.984V48.564L128.104 53.428C127.912 53.62 127.8 53.7 127.56 53.828C127.48 53.876 127.384 53.924 127.432 54.02C127.48 54.116 127.56 54.068 127.64 54.052C127.912 53.972 128.056 53.94 128.248 53.94H132.984V55.092ZM134.455 52.804C134.455 50.996 135.895 50.436 137.335 50.308C138.839 50.18 140.359 50.308 140.343 49.396C140.327 48.756 140.007 47.86 138.135 47.86C136.695 47.86 136.071 48.596 135.959 49.332H134.711C134.999 47.524 136.503 46.772 138.263 46.772C140.103 46.772 141.623 47.412 141.623 50.42V55.092H140.343V54.18C140.343 53.86 140.391 53.62 140.503 53.284C140.551 53.156 140.599 53.012 140.471 52.98C140.391 52.964 140.343 53.028 140.311 53.124C139.879 54.42 138.647 55.22 137.143 55.22C135.687 55.22 134.455 54.212 134.455 52.804ZM140.343 50.516C139.863 51.076 138.615 51.14 137.367 51.348C136.375 51.508 135.735 51.876 135.735 52.724C135.735 53.508 136.343 54.26 137.671 54.132C139.207 53.988 140.327 52.788 140.343 50.516ZM147.826 46.9V47.988H145.522V52.788C145.522 53.716 145.714 54.004 146.61 54.004H147.826V55.092H146.61C144.914 55.092 144.242 54.596 144.242 52.692V47.988H142.706V46.9H144.242V44.596H145.522V46.9H147.826ZM149.746 45.236V43.572H151.154V45.236H149.746ZM149.81 46.9H151.09V55.092H149.81V46.9ZM156.536 46.772C158.936 46.772 160.376 48.676 160.376 50.996C160.376 53.316 158.936 55.22 156.536 55.22C154.136 55.22 152.696 53.316 152.696 50.996C152.696 48.676 154.136 46.772 156.536 46.772ZM156.536 54.068C158.152 54.068 159.096 52.692 159.096 50.996C159.096 49.3 158.152 47.924 156.536 47.924C154.92 47.924 153.976 49.3 153.976 50.996C153.976 52.692 154.92 54.068 156.536 54.068ZM166.109 46.772C167.997 46.772 169.149 47.828 169.149 50.228V55.092H167.869V50.292C167.869 48.388 167.005 47.86 165.869 47.86C164.621 47.86 163.261 49.06 163.261 51.012V55.092H161.981V46.9H163.261V47.588C163.261 47.876 163.213 48.132 163.101 48.468C163.053 48.596 162.973 48.74 163.101 48.788C163.197 48.82 163.261 48.724 163.277 48.676C163.613 47.876 164.637 46.772 166.109 46.772ZM186.423 49.46C186.423 51.316 185.735 52.964 184.503 54.02L186.167 56.116H184.695L183.543 54.66C182.823 55.012 181.991 55.22 181.047 55.22C177.687 55.22 175.671 52.644 175.671 49.46C175.671 46.276 177.687 43.7 181.047 43.7C184.407 43.7 186.423 46.276 186.423 49.46ZM181.047 54.068C181.687 54.068 182.263 53.924 182.775 53.684L181.047 51.508H182.519L183.703 53.012C184.551 52.164 185.015 50.884 185.015 49.46C185.015 46.9 183.527 44.852 181.047 44.852C178.567 44.852 177.079 46.9 177.079 49.46C177.079 52.02 178.567 54.068 181.047 54.068ZM191.069 55.22C189.181 55.22 188.029 54.164 188.029 51.764V46.9H189.309V51.7C189.309 53.604 190.173 54.132 191.309 54.132C192.557 54.132 193.917 52.932 193.917 50.98V46.9H195.197V55.092H193.917V54.404C193.917 54.116 193.949 53.86 194.077 53.524C194.125 53.396 194.205 53.252 194.077 53.204C193.981 53.172 193.917 53.268 193.901 53.316C193.629 54.132 192.541 55.22 191.069 55.22ZM197.369 45.236V43.572H198.777V45.236H197.369ZM197.433 46.9H198.713V55.092H197.433V46.9ZM200.319 50.996C200.319 48.676 201.743 46.772 204.207 46.772C206.351 46.772 207.615 48.276 207.743 49.844H206.495C206.335 48.74 205.567 47.924 204.239 47.924C202.415 47.924 201.599 49.332 201.599 50.996C201.599 52.66 202.415 54.068 204.239 54.068C205.567 54.068 206.335 53.252 206.495 52.148H207.743C207.615 53.716 206.367 55.22 204.207 55.22C201.791 55.22 200.319 53.316 200.319 50.996ZM212.378 50.308L216.266 55.092H214.666L211.53 51.092L210.634 51.94V55.092H209.354V43.572H210.634V49.556C210.634 49.972 210.554 50.244 210.314 50.564C210.25 50.644 210.186 50.74 210.282 50.804C210.362 50.868 210.426 50.788 210.49 50.724L214.314 46.9H216.01L212.378 50.308ZM226.381 43.492C226.957 43.492 227.448 43.5933 227.853 43.796C228.269 43.988 228.589 44.2653 228.813 44.628C229.037 44.9907 229.149 45.4333 229.149 45.956C229.149 46.628 228.93 47.1987 228.493 47.668C228.066 48.1373 227.522 48.564 226.861 48.948L229.949 51.924C230.226 51.5933 230.45 51.2147 230.621 50.788C230.802 50.3507 230.952 49.8813 231.069 49.38H232.493C232.322 50.0627 232.109 50.6973 231.853 51.284C231.597 51.8707 231.266 52.3827 230.861 52.82L233.197 55.092H231.293L229.901 53.748C229.645 53.972 229.378 54.18 229.101 54.372C228.834 54.5533 228.541 54.708 228.221 54.836C227.901 54.964 227.554 55.0653 227.181 55.14C226.818 55.2147 226.413 55.252 225.965 55.252C225.229 55.252 224.589 55.1347 224.045 54.9C223.512 54.6547 223.096 54.2973 222.797 53.828C222.509 53.3587 222.365 52.788 222.365 52.116C222.365 51.572 222.461 51.1027 222.653 50.708C222.856 50.3133 223.144 49.9613 223.517 49.652C223.89 49.3427 224.328 49.044 224.829 48.756C224.605 48.5 224.386 48.2333 224.173 47.956C223.96 47.6787 223.784 47.38 223.645 47.06C223.506 46.7293 223.437 46.372 223.437 45.988C223.437 45.4653 223.554 45.0173 223.789 44.644C224.024 44.2707 224.36 43.988 224.797 43.796C225.245 43.5933 225.773 43.492 226.381 43.492ZM225.677 49.636C225.293 49.86 224.962 50.0893 224.685 50.324C224.418 50.548 224.21 50.7987 224.061 51.076C223.912 51.3533 223.837 51.684 223.837 52.068C223.837 52.6547 224.034 53.124 224.429 53.476C224.824 53.828 225.352 54.004 226.013 54.004C226.696 54.004 227.282 53.892 227.773 53.668C228.264 53.444 228.674 53.1773 229.005 52.868L225.677 49.636ZM226.333 44.644C225.885 44.644 225.517 44.7613 225.229 44.996C224.952 45.2307 224.813 45.556 224.813 45.972C224.813 46.356 224.914 46.7133 225.117 47.044C225.32 47.364 225.613 47.7213 225.997 48.116C226.626 47.7533 227.074 47.412 227.341 47.092C227.618 46.7613 227.757 46.3827 227.757 45.956C227.757 45.572 227.629 45.2573 227.373 45.012C227.117 44.7667 226.77 44.644 226.333 44.644ZM246.933 43.828V44.98H240.917V48.884H245.909V50.036H240.917V53.94H246.933V55.092H239.509V43.828H246.933ZM248.536 52.804C248.536 50.996 249.976 50.436 251.416 50.308C252.92 50.18 254.44 50.308 254.424 49.396C254.408 48.756 254.088 47.86 252.216 47.86C250.776 47.86 250.152 48.596 250.04 49.332H248.792C249.08 47.524 250.584 46.772 252.344 46.772C254.184 46.772 255.704 47.412 255.704 50.42V55.092H254.424V54.18C254.424 53.86 254.472 53.62 254.584 53.284C254.632 53.156 254.68 53.012 254.552 52.98C254.472 52.964 254.424 53.028 254.392 53.124C253.96 54.42 252.728 55.22 251.224 55.22C249.768 55.22 248.536 54.212 248.536 52.804ZM254.424 50.516C253.944 51.076 252.696 51.14 251.448 51.348C250.456 51.508 249.816 51.876 249.816 52.724C249.816 53.508 250.424 54.26 251.752 54.132C253.288 53.988 254.408 52.788 254.424 50.516ZM257.309 52.276H258.557C258.573 53.156 259.149 54.132 260.813 54.132C262.445 54.132 262.941 53.316 262.941 52.788C262.941 51.988 262.397 51.7 260.221 51.444C258.461 51.236 257.549 50.372 257.549 49.3C257.549 48.068 258.685 46.772 260.797 46.772C262.797 46.772 263.869 47.924 263.981 49.46H262.717C262.669 48.676 262.253 47.86 260.749 47.86C259.325 47.86 258.829 48.596 258.829 49.14C258.829 49.604 258.973 50.132 261.069 50.388C263.005 50.628 264.221 51.236 264.221 52.548C264.221 54.212 262.861 55.22 260.749 55.22C258.653 55.22 257.389 54.084 257.309 52.276ZM268.228 55.46L264.804 46.9H266.212L268.628 53.348C268.692 53.54 268.74 53.732 268.74 53.972C268.74 54.068 268.756 54.18 268.868 54.18C268.98 54.18 268.996 54.068 268.996 53.972C268.996 53.732 269.044 53.556 269.108 53.364L271.332 46.9H272.74L269.316 56.068C268.756 57.588 268.004 58.164 266.532 58.164H265.54V57.012H266.404C267.62 57.012 267.876 56.516 268.084 55.892L268.228 55.46Z" fill="black"/>
</svg>
