<svg width="560" height="460" viewBox="0 0 560 460" fill="none" xmlns="http://www.w3.org/2000/svg">
<path d="M0 24C0 10.7452 10.7452 0 24 0H284C297.255 0 308 10.7452 308 24V500C308 513.255 297.255 524 284 524H24C10.7452 524 0 513.255 0 500V24Z" fill="#FEFEFE"/>
<rect x="24.25" y="24.25" width="259.5" height="47.5" rx="15.75" fill="white"/>
<rect x="24.25" y="24.25" width="259.5" height="47.5" rx="15.75" stroke="#DFDFDF" stroke-width="0.5" stroke-linecap="round" stroke-linejoin="round"/>
<path d="M47.5833 55.5001C51.9556 55.5001 55.5 51.9557 55.5 47.5834C55.5 43.2112 51.9556 39.6667 47.5833 39.6667C43.2111 39.6667 39.6667 43.2112 39.6667 47.5834C39.6667 51.9557 43.2111 55.5001 47.5833 55.5001Z" stroke="#292D32" stroke-width="1.25" stroke-linecap="round" stroke-linejoin="round"/>
<path d="M56.3333 56.3334L54.6667 54.6667" stroke="#292D32" stroke-width="1.25" stroke-linecap="round" stroke-linejoin="round"/>
<path opacity="0.4" d="M73.756 47.212C75.52 47.452 76.912 47.8 76.912 49.576C76.912 50.944 75.772 52.096 73.648 52.096C71.296 52.096 70.384 50.584 70.384 49.024H71.44C71.464 50.032 71.836 51.232 73.648 51.232C75.4 51.232 75.856 50.356 75.856 49.648C75.856 48.904 75.388 48.436 73.636 48.196C71.764 47.944 70.66 47.2 70.66 45.76C70.66 44.44 71.776 43.456 73.66 43.456C75.784 43.456 76.564 44.776 76.6 46.144H75.568C75.568 45.256 75.112 44.32 73.636 44.32C72.124 44.32 71.716 45.088 71.716 45.688C71.716 46.204 71.944 46.96 73.756 47.212ZM83.2528 48.748C83.2528 48.916 83.2408 49.06 83.2288 49.168H78.6208C78.6688 50.248 79.3888 51.232 80.6128 51.232C81.4888 51.232 81.9208 50.68 82.1368 49.984H83.1448C82.9288 51.004 82.0888 52.096 80.5768 52.096C78.7048 52.096 77.6848 50.62 77.6848 48.928C77.6848 47.044 78.8488 45.76 80.5528 45.76C81.8728 45.76 83.2528 46.636 83.2528 48.748ZM80.6248 46.576C79.3168 46.576 78.8008 47.392 78.6688 48.4H82.2928C82.2088 47.272 81.5848 46.576 80.6248 46.576ZM84.0246 50.284C84.0246 48.928 85.1046 48.508 86.1846 48.412C87.3126 48.316 88.4526 48.412 88.4406 47.728C88.4286 47.248 88.1886 46.576 86.7846 46.576C85.7046 46.576 85.2366 47.128 85.1526 47.68H84.2166C84.4326 46.324 85.5606 45.76 86.8806 45.76C88.2606 45.76 89.4006 46.24 89.4006 48.496V52H88.4406V51.316C88.4406 51.076 88.4766 50.896 88.5606 50.644C88.5966 50.548 88.6326 50.44 88.5366 50.416C88.4766 50.404 88.4406 50.452 88.4166 50.524C88.0926 51.496 87.1686 52.096 86.0406 52.096C84.9486 52.096 84.0246 51.34 84.0246 50.284ZM88.4406 48.568C88.0806 48.988 87.1446 49.036 86.2086 49.192C85.4646 49.312 84.9846 49.588 84.9846 50.224C84.9846 50.812 85.4406 51.376 86.4366 51.28C87.5886 51.172 88.4286 50.272 88.4406 48.568ZM91.7325 47.176C92.1405 46.18 92.4645 45.76 94.0125 45.76V46.744C92.2245 46.624 91.7085 47.26 91.7085 48.868V52H90.7485V45.856H91.7085V46.336C91.7085 46.564 91.6845 46.768 91.5885 47.056C91.5525 47.152 91.5165 47.26 91.6125 47.272C91.6845 47.284 91.7085 47.236 91.7325 47.176ZM94.2082 48.928C94.2082 47.188 95.2762 45.76 97.1242 45.76C98.7322 45.76 99.6802 46.888 99.7762 48.064H98.8402C98.7202 47.236 98.1442 46.624 97.1482 46.624C95.7802 46.624 95.1682 47.68 95.1682 48.928C95.1682 50.176 95.7802 51.232 97.1482 51.232C98.1442 51.232 98.7202 50.62 98.8402 49.792H99.7762C99.6802 50.968 98.7442 52.096 97.1242 52.096C95.3122 52.096 94.2082 50.668 94.2082 48.928ZM103.841 45.76C105.257 45.76 106.121 46.552 106.121 48.352V52H105.161V48.4C105.161 46.972 104.513 46.576 103.661 46.576C102.725 46.576 101.705 47.476 101.705 48.94V52H100.745V43.36H101.705V46.372C101.705 46.588 101.669 46.78 101.585 47.032C101.549 47.128 101.489 47.236 101.585 47.272C101.657 47.296 101.705 47.224 101.717 47.188C101.969 46.588 102.737 45.76 103.841 45.76ZM113.076 44.176C112.404 44.176 112.26 44.392 112.26 45.088V45.856H113.988V46.672H112.26V52H111.3V46.672H110.34V45.856H111.3V45.16C111.3 43.732 111.804 43.36 113.076 43.36H113.988V44.176H113.076ZM117.244 45.76C119.044 45.76 120.124 47.188 120.124 48.928C120.124 50.668 119.044 52.096 117.244 52.096C115.444 52.096 114.364 50.668 114.364 48.928C114.364 47.188 115.444 45.76 117.244 45.76ZM117.244 51.232C118.456 51.232 119.164 50.2 119.164 48.928C119.164 47.656 118.456 46.624 117.244 46.624C116.032 46.624 115.324 47.656 115.324 48.928C115.324 50.2 116.032 51.232 117.244 51.232ZM122.072 47.176C122.48 46.18 122.804 45.76 124.352 45.76V46.744C122.564 46.624 122.048 47.26 122.048 48.868V52H121.088V45.856H122.048V46.336C122.048 46.564 122.024 46.768 121.928 47.056C121.892 47.152 121.856 47.26 121.952 47.272C122.024 47.284 122.048 47.236 122.072 47.176ZM130.019 52H128.963V43.552H134.531V44.416H130.019V47.344H133.763V48.208H130.019V52ZM135.63 44.608V43.36H136.686V44.608H135.63ZM135.678 45.856H136.638V52H135.678V45.856ZM143.171 48.748C143.171 48.916 143.159 49.06 143.147 49.168H138.539C138.587 50.248 139.307 51.232 140.531 51.232C141.407 51.232 141.839 50.68 142.055 49.984H143.063C142.847 51.004 142.007 52.096 140.495 52.096C138.623 52.096 137.603 50.62 137.603 48.928C137.603 47.044 138.767 45.76 140.471 45.76C141.791 45.76 143.171 46.636 143.171 48.748ZM140.543 46.576C139.235 46.576 138.719 47.392 138.587 48.4H142.211C142.127 47.272 141.503 46.576 140.543 46.576ZM145.099 43.36V52H144.139V43.36H145.099ZM150.957 46.336V43.36H151.917V52H150.957V51.472C150.957 51.268 150.981 51.1 151.077 50.836C151.113 50.74 151.149 50.644 151.077 50.608C150.993 50.572 150.945 50.668 150.933 50.704C150.645 51.568 149.829 52.096 148.869 52.096C147.273 52.096 146.157 50.752 146.157 48.928C146.157 47.104 147.273 45.76 148.869 45.76C149.853 45.76 150.657 46.3 150.933 47.128C150.945 47.164 150.993 47.272 151.065 47.248C151.173 47.212 151.101 47.104 151.065 46.996C150.981 46.756 150.957 46.552 150.957 46.336ZM149.013 51.232C150.153 51.232 150.957 50.176 150.957 48.928C150.957 47.68 150.153 46.624 149.013 46.624C147.765 46.624 147.117 47.68 147.117 48.928C147.117 50.176 147.765 51.232 149.013 51.232Z" fill="#0D1632"/>
<rect x="24.25" y="88.25" width="121.5" height="121.5" rx="15.75" fill="white"/>
<rect x="24.25" y="88.25" width="121.5" height="121.5" rx="15.75" stroke="#DFDFDF" stroke-width="0.5" stroke-linecap="round" stroke-linejoin="round"/>
<path d="M74.99 117.93V116.42C74.99 115.4 75.82 114.57 76.84 114.57H89.76C90.78 114.57 91.61 115.4 91.61 116.42V117.93" stroke="#0069D5" stroke-width="1.5" stroke-linecap="round" stroke-linejoin="round"/>
<path d="M83.3 130.1V115.32" stroke="#0069D5" stroke-width="1.5" stroke-linecap="round" stroke-linejoin="round"/>
<path d="M79.9 130.1H85.48" stroke="#0069D5" stroke-width="1.5" stroke-linecap="round" stroke-linejoin="round"/>
<path d="M86.68 122.34H93.69C94.42 122.34 95.01 122.93 95.01 123.66V124.46" stroke="#0069D5" stroke-width="1.5" stroke-linecap="round" stroke-linejoin="round"/>
<path d="M89.08 133.43V122.87" stroke="#0069D5" stroke-width="1.5" stroke-linecap="round" stroke-linejoin="round"/>
<path d="M86.94 133.43H91.22" stroke="#0069D5" stroke-width="1.5" stroke-linecap="round" stroke-linejoin="round"/>
<path d="M55.8689 152.152V151.144H63.2609V152.152H60.1809V161H58.9489V152.152H55.8689ZM69.3102 157.206C69.3102 157.402 69.2962 157.57 69.2822 157.696H63.9062C63.9622 158.956 64.8022 160.104 66.2302 160.104C67.2522 160.104 67.7562 159.46 68.0082 158.648H69.1842C68.9322 159.838 67.9522 161.112 66.1882 161.112C64.0042 161.112 62.8142 159.39 62.8142 157.416C62.8142 155.218 64.1722 153.72 66.1602 153.72C67.7002 153.72 69.3102 154.742 69.3102 157.206ZM66.2442 154.672C64.7182 154.672 64.1162 155.624 63.9622 156.8H68.1902C68.0922 155.484 67.3642 154.672 66.2442 154.672ZM70.8261 161H69.4261L72.0581 157.248L69.6501 153.832H71.0501L72.7021 156.324C72.8141 156.492 72.8841 156.618 72.8981 156.758C72.8981 156.828 72.9121 156.926 73.0101 156.926C73.1081 156.926 73.1221 156.828 73.1221 156.758C73.1361 156.618 73.2061 156.492 73.3181 156.324L74.9701 153.832H76.3701L73.9621 157.248L76.5941 161H75.1941L73.3041 158.158C73.1921 158.004 73.1501 157.878 73.1221 157.724C73.1081 157.64 73.1081 157.556 73.0101 157.556C72.9121 157.556 72.9121 157.64 72.8981 157.724C72.8701 157.878 72.8281 158.004 72.7161 158.158L70.8261 161ZM81.3026 153.832V154.784H79.2866V158.984C79.2866 159.796 79.4546 160.048 80.2386 160.048H81.3026V161H80.2386C78.7546 161 78.1666 160.566 78.1666 158.9V154.784H76.8226V153.832H78.1666V151.816H79.2866V153.832H81.3026ZM88.1329 161H86.9009V151.144H93.3969V152.152H88.1329V155.568H92.5009V156.576H88.1329V161ZM94.6789 152.376V150.92H95.9109V152.376H94.6789ZM94.7349 153.832H95.8549V161H94.7349V153.832ZM103.476 157.206C103.476 157.402 103.462 157.57 103.448 157.696H98.0722C98.1282 158.956 98.9682 160.104 100.396 160.104C101.418 160.104 101.922 159.46 102.174 158.648H103.35C103.098 159.838 102.118 161.112 100.354 161.112C98.1702 161.112 96.9802 159.39 96.9802 157.416C96.9802 155.218 98.3382 153.72 100.326 153.72C101.866 153.72 103.476 154.742 103.476 157.206ZM100.41 154.672C98.8842 154.672 98.2822 155.624 98.1282 156.8H102.356C102.258 155.484 101.53 154.672 100.41 154.672ZM105.726 150.92V161H104.606V150.92H105.726ZM112.561 154.392V150.92H113.681V161H112.561V160.384C112.561 160.146 112.589 159.95 112.701 159.642C112.743 159.53 112.785 159.418 112.701 159.376C112.603 159.334 112.547 159.446 112.533 159.488C112.197 160.496 111.245 161.112 110.125 161.112C108.263 161.112 106.961 159.544 106.961 157.416C106.961 155.288 108.263 153.72 110.125 153.72C111.273 153.72 112.211 154.35 112.533 155.316C112.547 155.358 112.603 155.484 112.687 155.456C112.813 155.414 112.729 155.288 112.687 155.162C112.589 154.882 112.561 154.644 112.561 154.392ZM110.293 160.104C111.623 160.104 112.561 158.872 112.561 157.416C112.561 155.96 111.623 154.728 110.293 154.728C108.837 154.728 108.081 155.96 108.081 157.416C108.081 158.872 108.837 160.104 110.293 160.104Z" fill="#0D1632"/>
<path opacity="0.5" d="M52.5173 180.344V176.552H53.5733V185H52.5173V181.208H48.1013V185H47.0453V176.552H48.1013V180.344H52.5173ZM60.2918 181.748C60.2918 181.916 60.2798 182.06 60.2678 182.168H55.6598C55.7078 183.248 56.4278 184.232 57.6518 184.232C58.5278 184.232 58.9598 183.68 59.1758 182.984H60.1838C59.9678 184.004 59.1278 185.096 57.6158 185.096C55.7438 185.096 54.7238 183.62 54.7238 181.928C54.7238 180.044 55.8878 178.76 57.5918 178.76C58.9118 178.76 60.2918 179.636 60.2918 181.748ZM57.6638 179.576C56.3558 179.576 55.8398 180.392 55.7078 181.4H59.3318C59.2478 180.272 58.6238 179.576 57.6638 179.576ZM61.0637 183.284C61.0637 181.928 62.1437 181.508 63.2237 181.412C64.3517 181.316 65.4917 181.412 65.4797 180.728C65.4677 180.248 65.2277 179.576 63.8237 179.576C62.7437 179.576 62.2757 180.128 62.1917 180.68H61.2557C61.4717 179.324 62.5997 178.76 63.9197 178.76C65.2997 178.76 66.4397 179.24 66.4397 181.496V185H65.4797V184.316C65.4797 184.076 65.5157 183.896 65.5997 183.644C65.6357 183.548 65.6717 183.44 65.5757 183.416C65.5157 183.404 65.4797 183.452 65.4557 183.524C65.1317 184.496 64.2077 185.096 63.0797 185.096C61.9877 185.096 61.0637 184.34 61.0637 183.284ZM65.4797 181.568C65.1197 181.988 64.1837 182.036 63.2477 182.192C62.5037 182.312 62.0237 182.588 62.0237 183.224C62.0237 183.812 62.4797 184.376 63.4757 184.28C64.6277 184.172 65.4677 183.272 65.4797 181.568ZM72.2973 179.336V176.36H73.2573V185H72.2973V184.472C72.2973 184.268 72.3213 184.1 72.4173 183.836C72.4533 183.74 72.4893 183.644 72.4173 183.608C72.3333 183.572 72.2853 183.668 72.2733 183.704C71.9853 184.568 71.1693 185.096 70.2093 185.096C68.6133 185.096 67.4973 183.752 67.4973 181.928C67.4973 180.104 68.6133 178.76 70.2093 178.76C71.1933 178.76 71.9973 179.3 72.2733 180.128C72.2853 180.164 72.3333 180.272 72.4053 180.248C72.5133 180.212 72.4413 180.104 72.4053 179.996C72.3213 179.756 72.2973 179.552 72.2973 179.336ZM70.3533 184.232C71.4933 184.232 72.2973 183.176 72.2973 181.928C72.2973 180.68 71.4933 179.624 70.3533 179.624C69.1053 179.624 68.4573 180.68 68.4573 181.928C68.4573 183.176 69.1053 184.232 70.3533 184.232ZM74.6536 177.608V176.36H75.7096V177.608H74.6536ZM74.7016 178.856H75.6616V185H74.7016V178.856ZM80.1999 178.76C81.6159 178.76 82.4799 179.552 82.4799 181.352V185H81.5199V181.4C81.5199 179.972 80.8719 179.576 80.0199 179.576C79.0839 179.576 78.0639 180.476 78.0639 181.94V185H77.1039V178.856H78.0639V179.372C78.0639 179.588 78.0279 179.78 77.9439 180.032C77.9079 180.128 77.8479 180.236 77.9439 180.272C78.0159 180.296 78.0639 180.224 78.0759 180.188C78.3279 179.588 79.0959 178.76 80.1999 178.76ZM83.4348 181.88C83.4348 180.044 84.5508 178.76 86.1468 178.76C87.1308 178.76 87.8268 179.288 88.2108 180.068C88.2348 180.116 88.2588 180.224 88.3548 180.188C88.4508 180.152 88.3908 180.032 88.3428 179.924C88.2468 179.684 88.2348 179.54 88.2348 179.3V178.856H89.1948V184.448C89.1948 186.512 88.0788 187.4 86.3508 187.4C84.5388 187.4 83.7348 186.548 83.6268 185.384H84.5868C84.6708 185.936 85.0188 186.584 86.3388 186.584C87.5988 186.584 88.2348 185.852 88.2348 184.448C88.2348 184.184 88.2468 184.04 88.3428 183.812C88.4148 183.632 88.4388 183.572 88.3548 183.536C88.2708 183.5 88.2348 183.608 88.2108 183.668C87.8148 184.496 87.1068 185 86.1468 185C84.5508 185 83.4348 183.716 83.4348 181.88ZM86.3148 184.136C87.4548 184.136 88.2348 183.152 88.2348 181.88C88.2348 180.608 87.4548 179.624 86.3148 179.624C85.0668 179.624 84.3948 180.608 84.3948 181.88C84.3948 183.152 85.0668 184.136 86.3148 184.136ZM98.3179 175.592L94.2859 185.96H93.6139L97.6459 175.592H98.3179ZM102.349 177.416V176.552H108.685V177.416H106.045V185H104.989V177.416H102.349ZM113.87 181.748C113.87 181.916 113.858 182.06 113.846 182.168H109.238C109.286 183.248 110.006 184.232 111.23 184.232C112.106 184.232 112.538 183.68 112.754 182.984H113.762C113.546 184.004 112.706 185.096 111.194 185.096C109.322 185.096 108.302 183.62 108.302 181.928C108.302 180.044 109.466 178.76 111.17 178.76C112.49 178.76 113.87 179.636 113.87 181.748ZM111.242 179.576C109.934 179.576 109.418 180.392 109.286 181.4H112.91C112.826 180.272 112.202 179.576 111.242 179.576ZM115.169 185H113.969L116.225 181.784L114.161 178.856H115.361L116.777 180.992C116.873 181.136 116.933 181.244 116.945 181.364C116.945 181.424 116.957 181.508 117.041 181.508C117.125 181.508 117.137 181.424 117.137 181.364C117.149 181.244 117.209 181.136 117.305 180.992L118.721 178.856H119.921L117.857 181.784L120.113 185H118.913L117.293 182.564C117.197 182.432 117.161 182.324 117.137 182.192C117.125 182.12 117.125 182.048 117.041 182.048C116.957 182.048 116.957 182.12 116.945 182.192C116.921 182.324 116.885 182.432 116.789 182.564L115.169 185ZM124.149 178.856V179.672H122.421V183.272C122.421 183.968 122.565 184.184 123.237 184.184H124.149V185H123.237C121.965 185 121.461 184.628 121.461 183.2V179.672H120.309V178.856H121.461V177.128H122.421V178.856H124.149Z" fill="#0D1632"/>
<rect x="24.25" y="364.25" width="121.5" height="121.5" rx="15.75" fill="white"/>
<rect x="24.25" y="364.25" width="121.5" height="121.5" rx="15.75" stroke="#DFDFDF" stroke-width="0.5" stroke-linecap="round" stroke-linejoin="round"/>
<path d="M70.6072 428.152V427.144H77.9992V428.152H74.9192V437H73.6872V428.152H70.6072ZM79.2843 428.376V426.92H80.5163V428.376H79.2843ZM79.3403 429.832H80.4603V437H79.3403V429.832ZM89.4511 429.72C90.6831 429.72 91.7751 430.42 91.7751 432.52V437H90.6551V432.352C90.6551 431.232 90.0251 430.672 89.1571 430.672C88.2471 430.672 87.5191 431.68 87.5191 432.884V437H86.3991V432.52C86.3991 431.4 85.9511 430.672 85.0271 430.672C84.2431 430.672 83.2631 431.68 83.2631 433.052V437H82.1431V429.832H83.2631V430.35C83.2631 430.63 83.2211 430.84 83.1231 431.092C83.0811 431.204 83.0531 431.316 83.1371 431.344C83.2211 431.372 83.2771 431.288 83.2911 431.246C83.6971 430.364 84.4391 429.72 85.4191 429.72C86.3011 429.72 86.9591 430.238 87.2251 431.19C87.2391 431.26 87.2811 431.302 87.3651 431.302C87.4631 431.302 87.4771 431.26 87.5051 431.204C87.8411 430.378 88.5691 429.72 89.4511 429.72ZM99.3883 433.206C99.3883 433.402 99.3743 433.57 99.3603 433.696H93.9843C94.0403 434.956 94.8803 436.104 96.3083 436.104C97.3303 436.104 97.8343 435.46 98.0863 434.648H99.2623C99.0103 435.838 98.0303 437.112 96.2663 437.112C94.0823 437.112 92.8923 435.39 92.8923 433.416C92.8923 431.218 94.2503 429.72 96.2383 429.72C97.7783 429.72 99.3883 430.742 99.3883 433.206ZM96.3223 430.672C94.7963 430.672 94.1943 431.624 94.0403 432.8H98.2683C98.1703 431.484 97.4423 430.672 96.3223 430.672Z" fill="#0D1632"/>
<path opacity="0.5" d="M51.7473 453.416V452.552H58.0833V453.416H55.4433V461H54.3873V453.416H51.7473ZM59.1848 453.608V452.36H60.2408V453.608H59.1848ZM59.2328 454.856H60.1928V461H59.2328V454.856ZM67.8992 454.76C68.9552 454.76 69.8912 455.36 69.8912 457.16V461H68.9312V457.016C68.9312 456.056 68.3912 455.576 67.6472 455.576C66.8672 455.576 66.2432 456.44 66.2432 457.472V461H65.2832V457.16C65.2832 456.2 64.8992 455.576 64.1072 455.576C63.4352 455.576 62.5952 456.44 62.5952 457.616V461H61.6352V454.856H62.5952V455.3C62.5952 455.54 62.5592 455.72 62.4752 455.936C62.4392 456.032 62.4152 456.128 62.4872 456.152C62.5592 456.176 62.6072 456.104 62.6192 456.068C62.9672 455.312 63.6032 454.76 64.4432 454.76C65.1992 454.76 65.7632 455.204 65.9912 456.02C66.0032 456.08 66.0392 456.116 66.1112 456.116C66.1952 456.116 66.2072 456.08 66.2312 456.032C66.5192 455.324 67.1432 454.76 67.8992 454.76ZM76.4168 457.748C76.4168 457.916 76.4048 458.06 76.3928 458.168H71.7848C71.8328 459.248 72.5528 460.232 73.7768 460.232C74.6528 460.232 75.0848 459.68 75.3008 458.984H76.3088C76.0928 460.004 75.2528 461.096 73.7408 461.096C71.8688 461.096 70.8488 459.62 70.8488 457.928C70.8488 456.044 72.0128 454.76 73.7168 454.76C75.0368 454.76 76.4168 455.636 76.4168 457.748ZM73.7888 455.576C72.4808 455.576 71.9648 456.392 71.8328 457.4H75.4568C75.3728 456.272 74.7488 455.576 73.7888 455.576ZM80.6457 453.416V452.552H86.9817V453.416H84.3417V461H83.2857V453.416H80.6457ZM88.7286 456.176C89.1366 455.18 89.4606 454.76 91.0086 454.76V455.744C89.2206 455.624 88.7046 456.26 88.7046 457.868V461H87.7446V454.856H88.7046V455.336C88.7046 455.564 88.6806 455.768 88.5846 456.056C88.5486 456.152 88.5126 456.26 88.6086 456.272C88.6806 456.284 88.7046 456.236 88.7286 456.176ZM91.2981 459.284C91.2981 457.928 92.3781 457.508 93.4581 457.412C94.5861 457.316 95.7261 457.412 95.7141 456.728C95.7021 456.248 95.4621 455.576 94.0581 455.576C92.9781 455.576 92.5101 456.128 92.4261 456.68H91.4901C91.7061 455.324 92.8341 454.76 94.1541 454.76C95.5341 454.76 96.6741 455.24 96.6741 457.496V461H95.7141V460.316C95.7141 460.076 95.7501 459.896 95.8341 459.644C95.8701 459.548 95.9061 459.44 95.8101 459.416C95.7501 459.404 95.7141 459.452 95.6901 459.524C95.3661 460.496 94.4421 461.096 93.3141 461.096C92.2221 461.096 91.2981 460.34 91.2981 459.284ZM95.7141 457.568C95.3541 457.988 94.4181 458.036 93.4821 458.192C92.7381 458.312 92.2581 458.588 92.2581 459.224C92.2581 459.812 92.7141 460.376 93.7101 460.28C94.8621 460.172 95.7021 459.272 95.7141 457.568ZM97.7317 457.928C97.7317 456.188 98.7997 454.76 100.648 454.76C102.256 454.76 103.204 455.888 103.3 457.064H102.364C102.244 456.236 101.668 455.624 100.672 455.624C99.3037 455.624 98.6917 456.68 98.6917 457.928C98.6917 459.176 99.3037 460.232 100.672 460.232C101.668 460.232 102.244 459.62 102.364 458.792H103.3C103.204 459.968 102.268 461.096 100.648 461.096C98.8357 461.096 97.7317 459.668 97.7317 457.928ZM106.536 457.412L109.452 461H108.252L105.9 458L105.228 458.636V461H104.268V452.36H105.228V456.848C105.228 457.16 105.168 457.364 104.988 457.604C104.94 457.664 104.892 457.736 104.964 457.784C105.024 457.832 105.072 457.772 105.12 457.724L107.988 454.856H109.26L106.536 457.412ZM115.018 457.748C115.018 457.916 115.006 458.06 114.994 458.168H110.386C110.434 459.248 111.154 460.232 112.378 460.232C113.254 460.232 113.686 459.68 113.902 458.984H114.91C114.694 460.004 113.854 461.096 112.342 461.096C110.47 461.096 109.45 459.62 109.45 457.928C109.45 456.044 110.614 454.76 112.318 454.76C113.638 454.76 115.018 455.636 115.018 457.748ZM112.39 455.576C111.082 455.576 110.566 456.392 110.434 457.4H114.058C113.974 456.272 113.35 455.576 112.39 455.576ZM116.971 456.176C117.379 455.18 117.703 454.76 119.251 454.76V455.744C117.463 455.624 116.947 456.26 116.947 457.868V461H115.987V454.856H116.947V455.336C116.947 455.564 116.923 455.768 116.827 456.056C116.791 456.152 116.755 456.26 116.851 456.272C116.923 456.284 116.947 456.236 116.971 456.176Z" fill="#0D1632"/>
<path d="M93.75 401.25C93.75 406.08 89.83 410 85 410C80.17 410 76.25 406.08 76.25 401.25C76.25 396.42 80.17 392.5 85 392.5C89.83 392.5 93.75 396.42 93.75 401.25Z" stroke="#0069D5" stroke-width="1.5" stroke-linecap="round" stroke-linejoin="round"/>
<path d="M85 396V401" stroke="#0069D5" stroke-width="1.5" stroke-linecap="round" stroke-linejoin="round"/>
<path d="M82 390H88" stroke="#0069D5" stroke-width="1.5" stroke-miterlimit="10" stroke-linecap="round" stroke-linejoin="round"/>
<rect x="24.25" y="226.25" width="121.5" height="121.5" rx="15.75" fill="white"/>
<rect x="24.25" y="226.25" width="121.5" height="121.5" rx="15.75" stroke="#DFDFDF" stroke-width="0.5" stroke-linecap="round" stroke-linejoin="round"/>
<path d="M64.7804 293.414C66.8384 293.694 68.4624 294.1 68.4624 296.172C68.4624 297.768 67.1324 299.112 64.6544 299.112C61.9104 299.112 60.8464 297.348 60.8464 295.528H62.0784C62.1064 296.704 62.5404 298.104 64.6544 298.104C66.6984 298.104 67.2304 297.082 67.2304 296.256C67.2304 295.388 66.6844 294.842 64.6404 294.562C62.4564 294.268 61.1684 293.4 61.1684 291.72C61.1684 290.18 62.4704 289.032 64.6684 289.032C67.1464 289.032 68.0564 290.572 68.0984 292.168H66.8944C66.8944 291.132 66.3624 290.04 64.6404 290.04C62.8764 290.04 62.4004 290.936 62.4004 291.636C62.4004 292.238 62.6664 293.12 64.7804 293.414ZM75.86 295.206C75.86 295.402 75.846 295.57 75.832 295.696H70.456C70.512 296.956 71.352 298.104 72.78 298.104C73.802 298.104 74.306 297.46 74.558 296.648H75.734C75.482 297.838 74.502 299.112 72.738 299.112C70.554 299.112 69.364 297.39 69.364 295.416C69.364 293.218 70.722 291.72 72.71 291.72C74.25 291.72 75.86 292.742 75.86 295.206ZM72.794 292.672C71.268 292.672 70.666 293.624 70.512 294.8H74.74C74.642 293.484 73.914 292.672 72.794 292.672ZM78.1098 288.92V299H76.9898V288.92H78.1098ZM85.7311 295.206C85.7311 295.402 85.7171 295.57 85.7031 295.696H80.3271C80.3831 296.956 81.2231 298.104 82.6511 298.104C83.6731 298.104 84.1771 297.46 84.4291 296.648H85.6051C85.3531 297.838 84.3731 299.112 82.6091 299.112C80.4251 299.112 79.2351 297.39 79.2351 295.416C79.2351 293.218 80.5931 291.72 82.5811 291.72C84.1211 291.72 85.7311 292.742 85.7311 295.206ZM82.6651 292.672C81.1391 292.672 80.5371 293.624 80.3831 294.8H84.6111C84.5131 293.484 83.7851 292.672 82.6651 292.672ZM86.6316 295.416C86.6316 293.386 87.8776 291.72 90.0336 291.72C91.9096 291.72 93.0156 293.036 93.1276 294.408H92.0356C91.8956 293.442 91.2236 292.728 90.0616 292.728C88.4656 292.728 87.7516 293.96 87.7516 295.416C87.7516 296.872 88.4656 298.104 90.0616 298.104C91.2236 298.104 91.8956 297.39 92.0356 296.424H93.1276C93.0156 297.796 91.9236 299.112 90.0336 299.112C87.9196 299.112 86.6316 297.446 86.6316 295.416ZM97.8329 291.832V292.784H95.8169V296.984C95.8169 297.796 95.9849 298.048 96.7689 298.048H97.8329V299H96.7689C95.2849 299 94.6969 298.566 94.6969 296.9V292.784H93.3529V291.832H94.6969V289.816H95.8169V291.832H97.8329ZM101.859 291.72C103.959 291.72 105.219 293.386 105.219 295.416C105.219 297.446 103.959 299.112 101.859 299.112C99.7588 299.112 98.4988 297.446 98.4988 295.416C98.4988 293.386 99.7588 291.72 101.859 291.72ZM101.859 298.104C103.273 298.104 104.099 296.9 104.099 295.416C104.099 293.932 103.273 292.728 101.859 292.728C100.445 292.728 99.6188 293.932 99.6188 295.416C99.6188 296.9 100.445 298.104 101.859 298.104ZM107.491 293.372C107.967 292.21 108.345 291.72 110.151 291.72V292.868C108.065 292.728 107.463 293.47 107.463 295.346V299H106.343V291.832H107.463V292.392C107.463 292.658 107.435 292.896 107.323 293.232C107.281 293.344 107.239 293.47 107.351 293.484C107.435 293.498 107.463 293.442 107.491 293.372Z" fill="#0D1632"/>
<path opacity="0.5" d="M58.5012 318.776C58.5012 316.388 59.9412 314.456 62.4852 314.456C65.0292 314.456 66.0732 316.268 66.1812 317.624H65.1372C65.0172 316.52 64.2012 315.32 62.5332 315.32C60.6372 315.32 59.5572 316.856 59.5572 318.776C59.5572 320.696 60.6372 322.232 62.5332 322.232C64.2012 322.232 65.0172 321.032 65.1372 319.928H66.1812C66.0732 321.284 65.0292 323.096 62.4852 323.096C59.9412 323.096 58.5012 321.164 58.5012 318.776ZM70.4304 316.76C71.8464 316.76 72.7104 317.552 72.7104 319.352V323H71.7504V319.4C71.7504 317.972 71.1024 317.576 70.2504 317.576C69.3144 317.576 68.2944 318.476 68.2944 319.94V323H67.3344V314.36H68.2944V317.372C68.2944 317.588 68.2584 317.78 68.1744 318.032C68.1384 318.128 68.0784 318.236 68.1744 318.272C68.2464 318.296 68.2944 318.224 68.3064 318.188C68.5584 317.588 69.3264 316.76 70.4304 316.76ZM79.2333 319.748C79.2333 319.916 79.2213 320.06 79.2093 320.168H74.6013C74.6493 321.248 75.3693 322.232 76.5933 322.232C77.4693 322.232 77.9013 321.68 78.1173 320.984H79.1253C78.9093 322.004 78.0693 323.096 76.5573 323.096C74.6853 323.096 73.6653 321.62 73.6653 319.928C73.6653 318.044 74.8293 316.76 76.5333 316.76C77.8533 316.76 79.2333 317.636 79.2333 319.748ZM76.6053 317.576C75.2973 317.576 74.7812 318.392 74.6493 319.4H78.2733C78.1893 318.272 77.5653 317.576 76.6053 317.576ZM80.0051 319.928C80.0051 318.188 81.0731 316.76 82.9211 316.76C84.5291 316.76 85.4771 317.888 85.5731 319.064H84.6371C84.5171 318.236 83.9411 317.624 82.9451 317.624C81.5771 317.624 80.9651 318.68 80.9651 319.928C80.9651 321.176 81.5771 322.232 82.9451 322.232C83.9411 322.232 84.5171 321.62 84.6371 320.792H85.5731C85.4771 321.968 84.5411 323.096 82.9211 323.096C81.1091 323.096 80.0051 321.668 80.0051 319.928ZM88.8094 319.412L91.7254 323H90.5254L88.1734 320L87.5014 320.636V323H86.5414V314.36H87.5014V318.848C87.5014 319.16 87.4414 319.364 87.2614 319.604C87.2134 319.664 87.1654 319.736 87.2374 319.784C87.2974 319.832 87.3454 319.772 87.3934 319.724L90.2614 316.856H91.5334L88.8094 319.412ZM97.0186 318.488C96.9466 318.512 96.9106 318.536 96.9106 318.608C96.9106 318.692 96.9706 318.704 97.0306 318.716C98.1946 318.86 98.8306 319.736 98.8306 320.6C98.8306 321.992 98.0146 323 96.2866 323H92.4946V314.552H95.7346C97.4866 314.552 98.4466 315.236 98.4466 316.748C98.4466 317.528 97.8466 318.272 97.0186 318.488ZM95.9746 315.416H93.5506V318.248H95.7466C96.7906 318.248 97.3906 317.516 97.3906 316.724C97.3906 316.016 96.9946 315.416 95.9746 315.416ZM93.5506 322.136H96.2146C97.2106 322.136 97.7746 321.476 97.7746 320.624C97.7746 319.808 97.1626 319.112 96.0106 319.112H93.5506V322.136ZM102.573 316.76C104.373 316.76 105.453 318.188 105.453 319.928C105.453 321.668 104.373 323.096 102.573 323.096C100.773 323.096 99.6926 321.668 99.6926 319.928C99.6926 318.188 100.773 316.76 102.573 316.76ZM102.573 322.232C103.785 322.232 104.493 321.2 104.493 319.928C104.493 318.656 103.785 317.624 102.573 317.624C101.361 317.624 100.653 318.656 100.653 319.928C100.653 321.2 101.361 322.232 102.573 322.232ZM106.747 323H105.547L107.803 319.784L105.739 316.856H106.939L108.355 318.992C108.451 319.136 108.511 319.244 108.523 319.364C108.523 319.424 108.535 319.508 108.619 319.508C108.703 319.508 108.715 319.424 108.715 319.364C108.727 319.244 108.787 319.136 108.883 318.992L110.299 316.856H111.499L109.435 319.784L111.691 323H110.491L108.871 320.564C108.775 320.432 108.739 320.324 108.715 320.192C108.703 320.12 108.703 320.048 108.619 320.048C108.535 320.048 108.535 320.12 108.523 320.192C108.499 320.324 108.463 320.432 108.367 320.564L106.747 323Z" fill="#0D1632"/>
<path d="M91.63 257.15C91.67 257.76 91.62 258.45 91.5 259.22L90.77 263.91C90.15 267.82 88.34 269.14 84.43 268.53L79.74 267.79C78.39 267.58 77.35 267.22 76.59 266.68C75.14 265.67 74.72 264.01 75.12 261.45L75.86 256.76C76.48 252.85 78.29 251.53 82.2 252.14L86.89 252.88C90.03 253.37 91.5 254.65 91.63 257.15Z" stroke="#0069D5" stroke-width="1.5" stroke-linecap="round" stroke-linejoin="round"/>
<path d="M93.5 263.47L92 267.98C90.75 271.74 88.75 272.74 84.99 271.49L80.48 269.99C78.21 269.24 76.95 268.2 76.59 266.68C77.35 267.22 78.39 267.58 79.74 267.79L84.43 268.53C88.34 269.14 90.15 267.82 90.77 263.91L91.5 259.22C91.62 258.45 91.67 257.76 91.63 257.15C94.02 258.42 94.54 260.34 93.5 263.47Z" stroke="#0069D5" stroke-width="1.5" stroke-linecap="round" stroke-linejoin="round"/>
<path d="M81.24 258.98C82.201 258.98 82.98 258.201 82.98 257.24C82.98 256.279 82.201 255.5 81.24 255.5C80.279 255.5 79.5 256.279 79.5 257.24C79.5 258.201 80.279 258.98 81.24 258.98Z" stroke="#0069D5" stroke-width="1.5" stroke-linecap="round" stroke-linejoin="round"/>
<rect x="162.25" y="364.25" width="121.5" height="121.5" rx="15.75" fill="white"/>
<rect x="162.25" y="364.25" width="121.5" height="121.5" rx="15.75" stroke="#DFDFDF" stroke-width="0.5" stroke-linecap="round" stroke-linejoin="round"/>
<path d="M209.952 427.144H213.298C216.91 427.144 218.016 429.468 218.016 432.072C218.016 434.676 216.868 437 213.298 437H209.952V427.144ZM211.184 435.992H213.396C215.888 435.992 216.784 434.06 216.784 432.072C216.784 430.084 215.888 428.152 213.396 428.152H211.184V435.992ZM218.91 434.998C218.91 433.416 220.17 432.926 221.43 432.814C222.746 432.702 224.076 432.814 224.062 432.016C224.048 431.456 223.768 430.672 222.13 430.672C220.87 430.672 220.324 431.316 220.226 431.96H219.134C219.386 430.378 220.702 429.72 222.242 429.72C223.852 429.72 225.182 430.28 225.182 432.912V437H224.062V436.202C224.062 435.922 224.104 435.712 224.202 435.418C224.244 435.306 224.286 435.18 224.174 435.152C224.104 435.138 224.062 435.194 224.034 435.278C223.656 436.412 222.578 437.112 221.262 437.112C219.988 437.112 218.91 436.23 218.91 434.998ZM224.062 432.996C223.642 433.486 222.55 433.542 221.458 433.724C220.59 433.864 220.03 434.186 220.03 434.928C220.03 435.614 220.562 436.272 221.724 436.16C223.068 436.034 224.048 434.984 224.062 432.996ZM230.33 429.832V430.784H228.314V434.984C228.314 435.796 228.482 436.048 229.266 436.048H230.33V437H229.266C227.782 437 227.194 436.566 227.194 434.9V430.784H225.85V429.832H227.194V427.816H228.314V429.832H230.33ZM237.492 433.206C237.492 433.402 237.478 433.57 237.464 433.696H232.088C232.144 434.956 232.984 436.104 234.412 436.104C235.434 436.104 235.938 435.46 236.19 434.648H237.366C237.114 435.838 236.134 437.112 234.37 437.112C232.186 437.112 230.996 435.39 230.996 433.416C230.996 431.218 232.354 429.72 234.342 429.72C235.882 429.72 237.492 430.742 237.492 433.206ZM234.426 430.672C232.9 430.672 232.298 431.624 232.144 432.8H236.372C236.274 431.484 235.546 430.672 234.426 430.672Z" fill="#0D1632"/>
<path opacity="0.5" d="M185.051 456.212C186.815 456.452 188.207 456.8 188.207 458.576C188.207 459.944 187.067 461.096 184.943 461.096C182.591 461.096 181.679 459.584 181.679 458.024H182.735C182.759 459.032 183.131 460.232 184.943 460.232C186.695 460.232 187.151 459.356 187.151 458.648C187.151 457.904 186.683 457.436 184.931 457.196C183.059 456.944 181.955 456.2 181.955 454.76C181.955 453.44 183.071 452.456 184.955 452.456C187.079 452.456 187.859 453.776 187.895 455.144H186.863C186.863 454.256 186.407 453.32 184.931 453.32C183.419 453.32 183.011 454.088 183.011 454.688C183.011 455.204 183.239 455.96 185.051 456.212ZM191.86 454.76C193.66 454.76 194.74 456.188 194.74 457.928C194.74 459.668 193.66 461.096 191.86 461.096C190.06 461.096 188.98 459.668 188.98 457.928C188.98 456.188 190.06 454.76 191.86 454.76ZM191.86 460.232C193.072 460.232 193.78 459.2 193.78 457.928C193.78 456.656 193.072 455.624 191.86 455.624C190.648 455.624 189.94 456.656 189.94 457.928C189.94 459.2 190.648 460.232 191.86 460.232ZM196.688 456.176C197.096 455.18 197.42 454.76 198.968 454.76V455.744C197.18 455.624 196.664 456.26 196.664 457.868V461H195.704V454.856H196.664V455.336C196.664 455.564 196.64 455.768 196.544 456.056C196.508 456.152 196.472 456.26 196.568 456.272C196.64 456.284 196.664 456.236 196.688 456.176ZM203.386 454.856V455.672H201.658V459.272C201.658 459.968 201.802 460.184 202.474 460.184H203.386V461H202.474C201.202 461 200.698 460.628 200.698 459.2V455.672H199.546V454.856H200.698V453.128H201.658V454.856H203.386ZM204.585 453.608V452.36H205.641V453.608H204.585ZM204.633 454.856H205.593V461H204.633V454.856ZM210.132 454.76C211.548 454.76 212.412 455.552 212.412 457.352V461H211.452V457.4C211.452 455.972 210.804 455.576 209.952 455.576C209.016 455.576 207.996 456.476 207.996 457.94V461H207.036V454.856H207.996V455.372C207.996 455.588 207.96 455.78 207.876 456.032C207.84 456.128 207.78 456.236 207.876 456.272C207.948 456.296 207.996 456.224 208.008 456.188C208.26 455.588 209.028 454.76 210.132 454.76ZM213.366 457.88C213.366 456.044 214.482 454.76 216.078 454.76C217.062 454.76 217.758 455.288 218.142 456.068C218.166 456.116 218.19 456.224 218.286 456.188C218.382 456.152 218.322 456.032 218.274 455.924C218.178 455.684 218.166 455.54 218.166 455.3V454.856H219.126V460.448C219.126 462.512 218.01 463.4 216.282 463.4C214.47 463.4 213.666 462.548 213.558 461.384H214.518C214.602 461.936 214.95 462.584 216.27 462.584C217.53 462.584 218.166 461.852 218.166 460.448C218.166 460.184 218.178 460.04 218.274 459.812C218.346 459.632 218.37 459.572 218.286 459.536C218.202 459.5 218.166 459.608 218.142 459.668C217.746 460.496 217.038 461 216.078 461C214.482 461 213.366 459.716 213.366 457.88ZM216.246 460.136C217.386 460.136 218.166 459.152 218.166 457.88C218.166 456.608 217.386 455.624 216.246 455.624C214.998 455.624 214.326 456.608 214.326 457.88C214.326 459.152 214.998 460.136 216.246 460.136ZM229.69 452.552V453.416H225.178V456.344H228.922V457.208H225.178V460.136H229.69V461H224.122V452.552H229.69ZM231.996 452.36V461H231.036V452.36H231.996ZM238.528 457.748C238.528 457.916 238.516 458.06 238.504 458.168H233.896C233.944 459.248 234.664 460.232 235.888 460.232C236.764 460.232 237.196 459.68 237.412 458.984H238.42C238.204 460.004 237.364 461.096 235.852 461.096C233.98 461.096 232.96 459.62 232.96 457.928C232.96 456.044 234.124 454.76 235.828 454.76C237.148 454.76 238.528 455.636 238.528 457.748ZM235.9 455.576C234.592 455.576 234.076 456.392 233.944 457.4H237.568C237.484 456.272 236.86 455.576 235.9 455.576ZM245.761 454.76C246.817 454.76 247.753 455.36 247.753 457.16V461H246.793V457.016C246.793 456.056 246.253 455.576 245.509 455.576C244.729 455.576 244.105 456.44 244.105 457.472V461H243.145V457.16C243.145 456.2 242.761 455.576 241.969 455.576C241.297 455.576 240.457 456.44 240.457 457.616V461H239.497V454.856H240.457V455.3C240.457 455.54 240.421 455.72 240.337 455.936C240.301 456.032 240.277 456.128 240.349 456.152C240.421 456.176 240.469 456.104 240.481 456.068C240.829 455.312 241.465 454.76 242.305 454.76C243.061 454.76 243.625 455.204 243.853 456.02C243.865 456.08 243.901 456.116 243.973 456.116C244.057 456.116 244.069 456.08 244.093 456.032C244.381 455.324 245.005 454.76 245.761 454.76ZM254.278 457.748C254.278 457.916 254.266 458.06 254.254 458.168H249.646C249.694 459.248 250.414 460.232 251.638 460.232C252.514 460.232 252.946 459.68 253.162 458.984H254.17C253.954 460.004 253.114 461.096 251.602 461.096C249.73 461.096 248.71 459.62 248.71 457.928C248.71 456.044 249.874 454.76 251.578 454.76C252.898 454.76 254.278 455.636 254.278 457.748ZM251.65 455.576C250.342 455.576 249.826 456.392 249.694 457.4H253.318C253.234 456.272 252.61 455.576 251.65 455.576ZM258.343 454.76C259.759 454.76 260.623 455.552 260.623 457.352V461H259.663V457.4C259.663 455.972 259.015 455.576 258.163 455.576C257.227 455.576 256.207 456.476 256.207 457.94V461H255.247V454.856H256.207V455.372C256.207 455.588 256.171 455.78 256.087 456.032C256.051 456.128 255.991 456.236 256.087 456.272C256.159 456.296 256.207 456.224 256.219 456.188C256.471 455.588 257.239 454.76 258.343 454.76ZM265.132 454.856V455.672H263.404V459.272C263.404 459.968 263.548 460.184 264.22 460.184H265.132V461H264.22C262.948 461 262.444 460.628 262.444 459.2V455.672H261.292V454.856H262.444V453.128H263.404V454.856H265.132Z" fill="#0D1632"/>
<path d="M219 390V393" stroke="#0069D5" stroke-width="1.5" stroke-miterlimit="10" stroke-linecap="round" stroke-linejoin="round"/>
<path d="M227 390V393" stroke="#0069D5" stroke-width="1.5" stroke-miterlimit="10" stroke-linecap="round" stroke-linejoin="round"/>
<path d="M214.5 397.09H231.5" stroke="#0069D5" stroke-width="1.5" stroke-miterlimit="10" stroke-linecap="round" stroke-linejoin="round"/>
<path d="M232 396.5V405C232 408 230.5 410 227 410H219C215.5 410 214 408 214 405V396.5C214 393.5 215.5 391.5 219 391.5H227C230.5 391.5 232 393.5 232 396.5Z" stroke="#0069D5" stroke-width="1.5" stroke-miterlimit="10" stroke-linecap="round" stroke-linejoin="round"/>
<path d="M226.694 401.7H226.703" stroke="#0069D5" stroke-width="2" stroke-linecap="round" stroke-linejoin="round"/>
<path d="M226.694 404.7H226.703" stroke="#0069D5" stroke-width="2" stroke-linecap="round" stroke-linejoin="round"/>
<path d="M222.995 401.7H223.003" stroke="#0069D5" stroke-width="2" stroke-linecap="round" stroke-linejoin="round"/>
<path d="M222.995 404.7H223.003" stroke="#0069D5" stroke-width="2" stroke-linecap="round" stroke-linejoin="round"/>
<path d="M219.295 401.7H219.304" stroke="#0069D5" stroke-width="2" stroke-linecap="round" stroke-linejoin="round"/>
<path d="M219.295 404.7H219.304" stroke="#0069D5" stroke-width="2" stroke-linecap="round" stroke-linejoin="round"/>
<rect x="162.25" y="226.25" width="121.5" height="121.5" rx="11.75" fill="#F9F9F6"/>
<rect x="162.25" y="226.25" width="121.5" height="121.5" rx="11.75" stroke="white" stroke-width="0.5" stroke-linecap="round" stroke-linejoin="round"/>
<rect x="162.25" y="88.25" width="121.5" height="121.5" rx="15.75" fill="white"/>
<rect x="162.25" y="88.25" width="121.5" height="121.5" rx="15.75" stroke="#DFDFDF" stroke-width="0.5" stroke-linecap="round" stroke-linejoin="round"/>
<path d="M214.65 151.144V152.152H209.386V155.568H213.754V156.576H209.386V159.992H214.65V161H208.154V151.144H214.65ZM223.528 153.72C224.76 153.72 225.852 154.42 225.852 156.52V161H224.732V156.352C224.732 155.232 224.102 154.672 223.234 154.672C222.324 154.672 221.596 155.68 221.596 156.884V161H220.476V156.52C220.476 155.4 220.028 154.672 219.104 154.672C218.32 154.672 217.34 155.68 217.34 157.052V161H216.22V153.832H217.34V154.35C217.34 154.63 217.298 154.84 217.2 155.092C217.158 155.204 217.13 155.316 217.214 155.344C217.298 155.372 217.354 155.288 217.368 155.246C217.774 154.364 218.516 153.72 219.496 153.72C220.378 153.72 221.036 154.238 221.302 155.19C221.316 155.26 221.358 155.302 221.442 155.302C221.54 155.302 221.554 155.26 221.582 155.204C221.918 154.378 222.646 153.72 223.528 153.72ZM226.969 158.998C226.969 157.416 228.229 156.926 229.489 156.814C230.805 156.702 232.135 156.814 232.121 156.016C232.107 155.456 231.827 154.672 230.189 154.672C228.929 154.672 228.383 155.316 228.285 155.96H227.193C227.445 154.378 228.761 153.72 230.301 153.72C231.911 153.72 233.241 154.28 233.241 156.912V161H232.121V160.202C232.121 159.922 232.163 159.712 232.261 159.418C232.303 159.306 232.345 159.18 232.233 159.152C232.163 159.138 232.121 159.194 232.093 159.278C231.715 160.412 230.637 161.112 229.321 161.112C228.047 161.112 226.969 160.23 226.969 158.998ZM232.121 156.996C231.701 157.486 230.609 157.542 229.517 157.724C228.649 157.864 228.089 158.186 228.089 158.928C228.089 159.614 228.621 160.272 229.783 160.16C231.127 160.034 232.107 158.984 232.121 156.996ZM234.867 152.376V150.92H236.099V152.376H234.867ZM234.923 153.832H236.043V161H234.923V153.832ZM238.846 150.92V161H237.726V150.92H238.846Z" fill="#0D1632"/>
<path opacity="0.5" d="M190.081 185H188.881L188.149 182.888H184.141L183.409 185H182.209L185.281 176.552H187.009L190.081 185ZM185.941 177.728L184.441 182.024H187.849L186.349 177.728C186.301 177.584 186.253 177.44 186.241 177.272C186.241 177.2 186.229 177.128 186.145 177.128C186.061 177.128 186.049 177.2 186.049 177.272C186.037 177.44 185.989 177.584 185.941 177.728ZM192.846 185.096C191.43 185.096 190.566 184.304 190.566 182.504V178.856H191.526V182.456C191.526 183.884 192.174 184.28 193.026 184.28C193.962 184.28 194.982 183.38 194.982 181.916V178.856H195.942V185H194.982V184.484C194.982 184.268 195.006 184.076 195.102 183.824C195.138 183.728 195.198 183.62 195.102 183.584C195.03 183.56 194.982 183.632 194.97 183.668C194.766 184.28 193.95 185.096 192.846 185.096ZM200.643 178.856V179.672H198.915V183.272C198.915 183.968 199.059 184.184 199.731 184.184H200.643V185H199.731C198.459 185 197.955 184.628 197.955 183.2V179.672H196.803V178.856H197.955V177.128H198.915V178.856H200.643ZM204.094 178.76C205.894 178.76 206.974 180.188 206.974 181.928C206.974 183.668 205.894 185.096 204.094 185.096C202.294 185.096 201.214 183.668 201.214 181.928C201.214 180.188 202.294 178.76 204.094 178.76ZM204.094 184.232C205.306 184.232 206.014 183.2 206.014 181.928C206.014 180.656 205.306 179.624 204.094 179.624C202.882 179.624 202.174 180.656 202.174 181.928C202.174 183.2 202.882 184.232 204.094 184.232ZM212.638 185H211.582V176.552H217.15V177.416H212.638V180.344H216.382V181.208H212.638V185ZM220.606 178.76C222.406 178.76 223.486 180.188 223.486 181.928C223.486 183.668 222.406 185.096 220.606 185.096C218.806 185.096 217.726 183.668 217.726 181.928C217.726 180.188 218.806 178.76 220.606 178.76ZM220.606 184.232C221.818 184.232 222.526 183.2 222.526 181.928C222.526 180.656 221.818 179.624 220.606 179.624C219.394 179.624 218.686 180.656 218.686 181.928C218.686 183.2 219.394 184.232 220.606 184.232ZM225.434 180.176C225.842 179.18 226.166 178.76 227.714 178.76V179.744C225.926 179.624 225.41 180.26 225.41 181.868V185H224.45V178.856H225.41V179.336C225.41 179.564 225.386 179.768 225.29 180.056C225.254 180.152 225.218 180.26 225.314 180.272C225.386 180.284 225.41 180.236 225.434 180.176ZM229.972 185L228.1 178.856H229.156L230.548 183.992C230.584 184.1 230.596 184.184 230.596 184.256C230.596 184.328 230.596 184.412 230.692 184.412C230.788 184.412 230.788 184.328 230.788 184.256C230.788 184.184 230.8 184.1 230.836 183.992L232.132 178.856H233.284L234.58 183.992C234.616 184.1 234.628 184.184 234.628 184.256C234.628 184.328 234.628 184.412 234.724 184.412C234.82 184.412 234.82 184.328 234.82 184.256C234.82 184.184 234.832 184.1 234.868 183.992L236.26 178.856H237.316L235.444 185H234.004L232.852 180.356C232.816 180.212 232.804 180.056 232.804 179.888C232.804 179.816 232.804 179.732 232.708 179.732C232.612 179.732 232.612 179.816 232.612 179.888C232.612 180.056 232.6 180.212 232.564 180.356L231.412 185H229.972ZM237.601 183.284C237.601 181.928 238.681 181.508 239.761 181.412C240.889 181.316 242.029 181.412 242.017 180.728C242.005 180.248 241.765 179.576 240.361 179.576C239.281 179.576 238.813 180.128 238.729 180.68H237.793C238.009 179.324 239.137 178.76 240.457 178.76C241.837 178.76 242.977 179.24 242.977 181.496V185H242.017V184.316C242.017 184.076 242.053 183.896 242.137 183.644C242.173 183.548 242.209 183.44 242.113 183.416C242.053 183.404 242.017 183.452 241.993 183.524C241.669 184.496 240.745 185.096 239.617 185.096C238.525 185.096 237.601 184.34 237.601 183.284ZM242.017 181.568C241.657 181.988 240.721 182.036 239.785 182.192C239.041 182.312 238.561 182.588 238.561 183.224C238.561 183.812 239.017 184.376 240.013 184.28C241.165 184.172 242.005 183.272 242.017 181.568ZM245.309 180.176C245.717 179.18 246.041 178.76 247.589 178.76V179.744C245.801 179.624 245.285 180.26 245.285 181.868V185H244.325V178.856H245.285V179.336C245.285 179.564 245.261 179.768 245.165 180.056C245.129 180.152 245.093 180.26 245.189 180.272C245.261 180.284 245.285 180.236 245.309 180.176ZM252.678 179.336V176.36H253.638V185H252.678V184.472C252.678 184.268 252.702 184.1 252.798 183.836C252.834 183.74 252.87 183.644 252.798 183.608C252.714 183.572 252.666 183.668 252.654 183.704C252.366 184.568 251.55 185.096 250.59 185.096C248.994 185.096 247.878 183.752 247.878 181.928C247.878 180.104 248.994 178.76 250.59 178.76C251.574 178.76 252.378 179.3 252.654 180.128C252.666 180.164 252.714 180.272 252.786 180.248C252.894 180.212 252.822 180.104 252.786 179.996C252.702 179.756 252.678 179.552 252.678 179.336ZM250.734 184.232C251.874 184.232 252.678 183.176 252.678 181.928C252.678 180.68 251.874 179.624 250.734 179.624C249.486 179.624 248.838 180.68 248.838 181.928C248.838 183.176 249.486 184.232 250.734 184.232ZM260.173 181.748C260.173 181.916 260.161 182.06 260.149 182.168H255.541C255.589 183.248 256.309 184.232 257.533 184.232C258.409 184.232 258.841 183.68 259.057 182.984H260.065C259.849 184.004 259.009 185.096 257.497 185.096C255.625 185.096 254.605 183.62 254.605 181.928C254.605 180.044 255.769 178.76 257.473 178.76C258.793 178.76 260.173 179.636 260.173 181.748ZM257.545 179.576C256.237 179.576 255.721 180.392 255.589 181.4H259.213C259.129 180.272 258.505 179.576 257.545 179.576ZM262.125 180.176C262.533 179.18 262.857 178.76 264.405 178.76V179.744C262.617 179.624 262.101 180.26 262.101 181.868V185H261.141V178.856H262.101V179.336C262.101 179.564 262.077 179.768 261.981 180.056C261.945 180.152 261.909 180.26 262.005 180.272C262.077 180.284 262.101 180.236 262.125 180.176Z" fill="#0D1632"/>
<path d="M213 120.5C213 117 215 115.5 218 115.5H228C231 115.5 233 117 233 120.5V127.5C233 131 231 132.5 228 132.5H218" stroke="#0069D5" stroke-width="1.5" stroke-miterlimit="10" stroke-linecap="round" stroke-linejoin="round"/>
<path d="M228 121L224.87 123.5C223.84 124.32 222.15 124.32 221.12 123.5L218 121" stroke="#0069D5" stroke-width="1.5" stroke-miterlimit="10" stroke-linecap="round" stroke-linejoin="round"/>
<path d="M213 128.5H219" stroke="#0069D5" stroke-width="1.5" stroke-miterlimit="10" stroke-linecap="round" stroke-linejoin="round"/>
<path d="M213 124.5H216" stroke="#0069D5" stroke-width="1.5" stroke-miterlimit="10" stroke-linecap="round" stroke-linejoin="round"/>
<g clip-path="url(#clip0_127_2800)">
<rect x="332" width="421" height="507" rx="24" fill="#FEFEFE"/>
<g opacity="0.5">
<mask id="mask0_127_2800" style="mask-type:alpha" maskUnits="userSpaceOnUse" x="130" y="-171" width="800" height="784">
<rect opacity="0.7" x="130" y="-171" width="800" height="784" rx="10" fill="#D9D9D9"/>
</mask>
<g mask="url(#mask0_127_2800)">
<line x1="338.5" y1="-170.5" x2="338.5" y2="612.5" stroke="#B9B9B9" stroke-linecap="round" stroke-dasharray="0.05 8"/>
<line x1="346.5" y1="-170.5" x2="346.5" y2="612.5" stroke="#B9B9B9" stroke-linecap="round" stroke-dasharray="0.05 8"/>
<line x1="354.5" y1="-170.5" x2="354.5" y2="612.5" stroke="#B9B9B9" stroke-linecap="round" stroke-dasharray="0.05 8"/>
<line x1="362.5" y1="-170.5" x2="362.5" y2="612.5" stroke="#B9B9B9" stroke-linecap="round" stroke-dasharray="0.05 8"/>
<line x1="370.5" y1="-170.5" x2="370.5" y2="612.5" stroke="#B9B9B9" stroke-linecap="round" stroke-dasharray="0.05 8"/>
<line x1="378.5" y1="-170.5" x2="378.5" y2="612.5" stroke="#B9B9B9" stroke-linecap="round" stroke-dasharray="0.05 8"/>
<line x1="386.5" y1="-170.5" x2="386.5" y2="612.5" stroke="#B9B9B9" stroke-linecap="round" stroke-dasharray="0.05 8"/>
<line x1="394.5" y1="-170.5" x2="394.5" y2="612.5" stroke="#B9B9B9" stroke-linecap="round" stroke-dasharray="0.05 8"/>
<line x1="402.5" y1="-170.5" x2="402.5" y2="612.5" stroke="#B9B9B9" stroke-linecap="round" stroke-dasharray="0.05 8"/>
<line x1="410.5" y1="-170.5" x2="410.5" y2="612.5" stroke="#B9B9B9" stroke-linecap="round" stroke-dasharray="0.05 8"/>
<line x1="418.5" y1="-170.5" x2="418.5" y2="612.5" stroke="#B9B9B9" stroke-linecap="round" stroke-dasharray="0.05 8"/>
<line x1="426.5" y1="-170.5" x2="426.5" y2="612.5" stroke="#B9B9B9" stroke-linecap="round" stroke-dasharray="0.05 8"/>
<line x1="434.5" y1="-170.5" x2="434.5" y2="612.5" stroke="#B9B9B9" stroke-linecap="round" stroke-dasharray="0.05 8"/>
<line x1="442.5" y1="-170.5" x2="442.5" y2="612.5" stroke="#B9B9B9" stroke-linecap="round" stroke-dasharray="0.05 8"/>
<line x1="450.5" y1="-170.5" x2="450.5" y2="612.5" stroke="#B9B9B9" stroke-linecap="round" stroke-dasharray="0.05 8"/>
<line x1="458.5" y1="-170.5" x2="458.5" y2="612.5" stroke="#B9B9B9" stroke-linecap="round" stroke-dasharray="0.05 8"/>
<line x1="466.5" y1="-170.5" x2="466.5" y2="612.5" stroke="#B9B9B9" stroke-linecap="round" stroke-dasharray="0.05 8"/>
<line x1="474.5" y1="-170.5" x2="474.5" y2="612.5" stroke="#B9B9B9" stroke-linecap="round" stroke-dasharray="0.05 8"/>
<line x1="482.5" y1="-170.5" x2="482.5" y2="612.5" stroke="#B9B9B9" stroke-linecap="round" stroke-dasharray="0.05 8"/>
<line x1="490.5" y1="-170.5" x2="490.5" y2="612.5" stroke="#B9B9B9" stroke-linecap="round" stroke-dasharray="0.05 8"/>
<line x1="498.5" y1="-170.5" x2="498.5" y2="612.5" stroke="#B9B9B9" stroke-linecap="round" stroke-dasharray="0.05 8"/>
<line x1="506.5" y1="-170.5" x2="506.5" y2="612.5" stroke="#B9B9B9" stroke-linecap="round" stroke-dasharray="0.05 8"/>
<line x1="514.5" y1="-170.5" x2="514.5" y2="612.5" stroke="#B9B9B9" stroke-linecap="round" stroke-dasharray="0.05 8"/>
<line x1="522.5" y1="-170.5" x2="522.5" y2="612.5" stroke="#B9B9B9" stroke-linecap="round" stroke-dasharray="0.05 8"/>
<line x1="530.5" y1="-170.5" x2="530.5" y2="612.5" stroke="#B9B9B9" stroke-linecap="round" stroke-dasharray="0.05 8"/>
<line x1="538.5" y1="-170.5" x2="538.5" y2="612.5" stroke="#B9B9B9" stroke-linecap="round" stroke-dasharray="0.05 8"/>
<line x1="546.5" y1="-170.5" x2="546.5" y2="612.5" stroke="#B9B9B9" stroke-linecap="round" stroke-dasharray="0.05 8"/>
<line x1="554.5" y1="-170.5" x2="554.5" y2="612.5" stroke="#B9B9B9" stroke-linecap="round" stroke-dasharray="0.05 8"/>
</g>
</g>
<g filter="url(#filter0_d_127_2800)">
<rect x="360" y="28" width="273" height="38" rx="19" fill="#FDFDFD" shape-rendering="crispEdges"/>
<rect x="360.25" y="28.25" width="272.5" height="37.5" rx="18.75" stroke="#DFDFDF" stroke-width="0.5" shape-rendering="crispEdges"/>
<rect x="367" y="35" width="81" height="24" rx="12" fill="#1B2433"/>
<path d="M394.292 46.488C394.22 46.512 394.184 46.536 394.184 46.608C394.184 46.692 394.244 46.704 394.304 46.716C395.468 46.86 396.104 47.736 396.104 48.6C396.104 49.992 395.288 51 393.56 51H389.768V42.552H393.008C394.76 42.552 395.72 43.236 395.72 44.748C395.72 45.528 395.12 46.272 394.292 46.488ZM393.248 43.416H390.824V46.248H393.02C394.064 46.248 394.664 45.516 394.664 44.724C394.664 44.016 394.268 43.416 393.248 43.416ZM390.824 50.136H393.488C394.484 50.136 395.048 49.476 395.048 48.624C395.048 47.808 394.436 47.112 393.284 47.112H390.824V50.136ZM399.438 51.096C398.022 51.096 397.158 50.304 397.158 48.504V44.856H398.118V48.456C398.118 49.884 398.766 50.28 399.618 50.28C400.554 50.28 401.574 49.38 401.574 47.916V44.856H402.534V51H401.574V50.484C401.574 50.268 401.598 50.076 401.694 49.824C401.73 49.728 401.79 49.62 401.694 49.584C401.622 49.56 401.574 49.632 401.562 49.668C401.358 50.28 400.542 51.096 399.438 51.096ZM403.923 43.608V42.36H404.979V43.608H403.923ZM403.971 44.856H404.931V51H403.971V44.856ZM407.333 42.36V51H406.373V42.36H407.333ZM413.192 45.336V42.36H414.152V51H413.192V50.472C413.192 50.268 413.216 50.1 413.312 49.836C413.348 49.74 413.384 49.644 413.312 49.608C413.228 49.572 413.18 49.668 413.168 49.704C412.88 50.568 412.064 51.096 411.104 51.096C409.508 51.096 408.392 49.752 408.392 47.928C408.392 46.104 409.508 44.76 411.104 44.76C412.088 44.76 412.892 45.3 413.168 46.128C413.18 46.164 413.228 46.272 413.3 46.248C413.408 46.212 413.336 46.104 413.3 45.996C413.216 45.756 413.192 45.552 413.192 45.336ZM411.248 50.232C412.388 50.232 413.192 49.176 413.192 47.928C413.192 46.68 412.388 45.624 411.248 45.624C410 45.624 409.352 46.68 409.352 47.928C409.352 49.176 410 50.232 411.248 50.232ZM420.686 47.748C420.686 47.916 420.674 48.06 420.662 48.168H416.054C416.102 49.248 416.822 50.232 418.046 50.232C418.922 50.232 419.354 49.68 419.57 48.984H420.578C420.362 50.004 419.522 51.096 418.01 51.096C416.138 51.096 415.118 49.62 415.118 47.928C415.118 46.044 416.282 44.76 417.986 44.76C419.306 44.76 420.686 45.636 420.686 47.748ZM418.058 45.576C416.75 45.576 416.234 46.392 416.102 47.4H419.726C419.642 46.272 419.018 45.576 418.058 45.576ZM422.639 46.176C423.047 45.18 423.371 44.76 424.919 44.76V45.744C423.131 45.624 422.615 46.26 422.615 47.868V51H421.655V44.856H422.615V45.336C422.615 45.564 422.591 45.768 422.495 46.056C422.459 46.152 422.423 46.26 422.519 46.272C422.591 46.284 422.615 46.236 422.639 46.176Z" fill="white"/>
<rect x="456" y="35" width="81" height="24" rx="12" fill="#FDFDFD"/>
<path d="M474.304 51L472.192 42.552H473.344L475 49.788C475.036 49.932 475.048 50.076 475.048 50.256C475.048 50.328 475.072 50.376 475.144 50.376C475.204 50.376 475.24 50.328 475.24 50.256C475.24 50.076 475.252 49.932 475.288 49.788L476.944 42.552H478L479.656 49.788C479.692 49.932 479.704 50.076 479.704 50.256C479.704 50.328 479.74 50.376 479.8 50.376C479.872 50.376 479.896 50.328 479.896 50.256C479.896 50.076 479.908 49.932 479.944 49.788L481.6 42.552H482.752L480.64 51H479.008L477.616 44.736C477.58 44.592 477.568 44.412 477.568 44.184C477.568 44.112 477.544 44.064 477.472 44.064C477.4 44.064 477.376 44.112 477.376 44.184C477.376 44.412 477.364 44.592 477.328 44.736L475.936 51H474.304ZM485.436 44.76C487.236 44.76 488.316 46.188 488.316 47.928C488.316 49.668 487.236 51.096 485.436 51.096C483.636 51.096 482.556 49.668 482.556 47.928C482.556 46.188 483.636 44.76 485.436 44.76ZM485.436 50.232C486.648 50.232 487.356 49.2 487.356 47.928C487.356 46.656 486.648 45.624 485.436 45.624C484.224 45.624 483.516 46.656 483.516 47.928C483.516 49.2 484.224 50.232 485.436 50.232ZM490.264 46.176C490.672 45.18 490.996 44.76 492.544 44.76V45.744C490.756 45.624 490.24 46.26 490.24 47.868V51H489.28V44.856H490.24V45.336C490.24 45.564 490.216 45.768 490.12 46.056C490.084 46.152 490.048 46.26 490.144 46.272C490.216 46.284 490.24 46.236 490.264 46.176ZM495.778 47.412L498.694 51H497.494L495.142 48L494.47 48.636V51H493.51V42.36H494.47V46.848C494.47 47.16 494.41 47.364 494.23 47.604C494.182 47.664 494.134 47.736 494.206 47.784C494.266 47.832 494.314 47.772 494.362 47.724L497.23 44.856H498.502L495.778 47.412ZM501.623 43.176C500.951 43.176 500.807 43.392 500.807 44.088V44.856H502.535V45.672H500.807V51H499.847V45.672H498.887V44.856H499.847V44.16C499.847 42.732 500.351 42.36 501.623 42.36H502.535V43.176H501.623ZM504.548 42.36V51H503.588V42.36H504.548ZM508.393 44.76C510.193 44.76 511.273 46.188 511.273 47.928C511.273 49.668 510.193 51.096 508.393 51.096C506.593 51.096 505.513 49.668 505.513 47.928C505.513 46.188 506.593 44.76 508.393 44.76ZM508.393 50.232C509.605 50.232 510.313 49.2 510.313 47.928C510.313 46.656 509.605 45.624 508.393 45.624C507.181 45.624 506.473 46.656 506.473 47.928C506.473 49.2 507.181 50.232 508.393 50.232ZM513.341 51L511.469 44.856H512.525L513.917 49.992C513.953 50.1 513.965 50.184 513.965 50.256C513.965 50.328 513.965 50.412 514.061 50.412C514.157 50.412 514.157 50.328 514.157 50.256C514.157 50.184 514.169 50.1 514.205 49.992L515.501 44.856H516.653L517.949 49.992C517.985 50.1 517.997 50.184 517.997 50.256C517.997 50.328 517.997 50.412 518.093 50.412C518.189 50.412 518.189 50.328 518.189 50.256C518.189 50.184 518.201 50.1 518.237 49.992L519.629 44.856H520.685L518.813 51H517.373L516.221 46.356C516.185 46.212 516.173 46.056 516.173 45.888C516.173 45.816 516.173 45.732 516.077 45.732C515.981 45.732 515.981 45.816 515.981 45.888C515.981 46.056 515.969 46.212 515.933 46.356L514.781 51H513.341Z" fill="#1B2433"/>
<rect x="545" y="35" width="81" height="24" rx="12" fill="#FDFDFD"/>
</g>
<g filter="url(#filter1_d_127_2800)">
<rect x="360" y="90" width="399" height="90" rx="12" fill="#FDFDFD"/>
<rect x="360.25" y="90.25" width="398.5" height="89.5" rx="11.75" stroke="#DFDFDF" stroke-width="0.5" stroke-dasharray="5 5"/>
</g>
<g filter="url(#filter2_d_127_2800)">
<path d="M360 216C360 209.373 365.373 204 372 204H747C753.627 204 759 209.373 759 216V396C759 402.627 753.627 408 747 408H372C365.373 408 360 402.627 360 396V216Z" fill="#F9F9F6"/>
<path d="M744.533 204V204.5H747C747.769 204.5 748.519 204.575 749.245 204.719L749.341 204.229C750.915 204.54 752.378 205.16 753.666 206.021L753.39 206.437C754.644 207.276 755.724 208.356 756.563 209.61L756.978 209.333C757.84 210.621 758.459 212.084 758.771 213.658L758.281 213.755C758.425 214.481 758.5 215.231 758.5 216V218.5H759V223.5H758.5V228.5H759V233.5H758.5V238.5H759V243.5H758.5V248.5H759V253.5H758.5V258.5H759V263.5H758.5V268.5H759V273.5H758.5V278.5H759V283.5H758.5V288.5H759V293.5H758.5V298.5H759V303.5H758.5V308.5H759V313.5H758.5V318.5H759V323.5H758.5V328.5H759V333.5H758.5V338.5H759V343.5H758.5V348.5H759V353.5H758.5V358.5H759V363.5H758.5V368.5H759V373.5H758.5V378.5H759V383.5H758.5V388.5H759V393.5H758.5V396C758.5 396.769 758.425 397.519 758.281 398.245L758.771 398.341C758.459 399.915 757.84 401.378 756.978 402.666L756.563 402.39C755.724 403.644 754.644 404.724 753.39 405.563L753.666 405.978C752.378 406.84 750.915 407.459 749.341 407.771L749.245 407.281C748.519 407.425 747.769 407.5 747 407.5H744.532V408H739.599V407.5H734.664V408H729.729V407.5H724.796V408H719.861V407.5H714.928V408H709.993V407.5H705.059V408H700.125V407.5H695.19V408H690.257V407.5H685.322V408H680.388V407.5H675.454V408H670.52V407.5H665.585V408H660.651V407.5H655.717V408H650.783V407.5H645.849V408H640.914V407.5H635.98V408H631.046V407.5H626.111V408H621.178V407.5H616.243V408H611.309V407.5H606.375V408H601.44V407.5H596.507V408H591.572V407.5H586.638V408H581.704V407.5H576.77V408H571.836V407.5H566.901V408H561.967V407.5H557.033V408H552.099V407.5H547.164V408H542.23V407.5H537.296V408H532.361V407.5H527.428V408H522.493V407.5H517.56V408H512.625V407.5H507.69V408H502.757V407.5H497.822V408H492.888V407.5H487.954V408H483.02V407.5H478.086V408H473.151V407.5H468.217V408H463.283V407.5H458.349V408H453.414V407.5H448.48V408H443.546V407.5H438.612V408H433.678V407.5H428.743V408H423.81V407.5H418.875V408H413.94V407.5H409.007V408H404.072V407.5H399.138V408H394.204V407.5H389.27V408H384.336V407.5H379.401V408H374.467V407.5H372C371.231 407.5 370.481 407.425 369.755 407.281L369.658 407.771C368.084 407.459 366.621 406.84 365.333 405.978L365.61 405.563C364.356 404.724 363.276 403.644 362.437 402.39L362.021 402.666C361.16 401.378 360.54 399.915 360.229 398.341L360.719 398.245C360.575 397.519 360.5 396.769 360.5 396V393.5H360V388.5H360.5V383.5H360V378.5H360.5V373.5H360V368.5H360.5V363.5H360V358.5H360.5V353.5H360V348.5H360.5V343.5H360V338.5H360.5V333.5H360V328.5H360.5V323.5H360V318.5H360.5V313.5H360V308.5H360.5V303.5H360V298.5H360.5V293.5H360V288.5H360.5V283.5H360V278.5H360.5V273.5H360V268.5H360.5V263.5H360V258.5H360.5V253.5H360V248.5H360.5V243.5H360V238.5H360.5V233.5H360V228.5H360.5V223.5H360V218.5H360.5V216C360.5 215.231 360.575 214.481 360.719 213.755L360.229 213.658C360.54 212.084 361.16 210.621 362.021 209.333L362.437 209.61C363.276 208.356 364.356 207.276 365.61 206.437L365.333 206.021C366.621 205.16 368.084 204.54 369.658 204.229L369.755 204.719C370.481 204.575 371.231 204.5 372 204.5H374.468V204H379.401V204.5H384.336V204H389.271V204.5H394.204V204H399.139V204.5H404.072V204H409.007V204.5H413.941V204H418.875V204.5H423.81V204H428.743V204.5H433.678V204H438.612V204.5H443.546V204H448.48V204.5H453.415V204H458.349V204.5H463.283V204H468.217V204.5H473.151V204H478.086V204.5H483.02V204H487.954V204.5H492.889V204H497.822V204.5H502.757V204H507.691V204.5H512.625V204H517.56V204.5H522.493V204H527.428V204.5H532.362V204H537.296V204.5H542.23V204H547.164V204.5H552.099V204H557.033V204.5H561.967V204H566.901V204.5H571.836V204H576.77V204.5H581.704V204H586.639V204.5H591.572V204H596.507V204.5H601.44V204H606.375V204.5H611.31V204H616.243V204.5H621.178V204H626.112V204.5H631.046V204H635.98V204.5H640.914V204H645.849V204.5H650.783V204H655.717V204.5H660.651V204H665.586V204.5H670.52V204H675.454V204.5H680.388V204H685.322V204.5H690.257V204H695.19V204.5H700.125V204H705.06V204.5H709.993V204H714.928V204.5H719.862V204H724.796V204.5H729.73V204H734.664V204.5H739.599V204H744.533Z" stroke="#1B2433" stroke-opacity="0.5" stroke-dasharray="5 5"/>
</g>
</g>
<rect x="240.183" y="277.704" width="121" height="121" rx="15.5" transform="rotate(-22.0982 240.183 277.704)" fill="white"/>
<rect x="240.183" y="277.704" width="121" height="121" rx="15.5" transform="rotate(-22.0982 240.183 277.704)" stroke="#1B2433" stroke-linecap="round" stroke-linejoin="round"/>
<path d="M305.014 320.321L304.551 319.18L311.607 316.315L312.071 317.456L309.217 318.615L312.461 326.605L311.112 327.153L307.868 319.163L305.014 320.321ZM314.358 323.674C313.742 322.157 314.668 321.237 315.903 320.63C317.059 320.055 318.323 319.707 318.031 319.025C317.797 318.486 317.265 318.067 315.903 318.62C314.735 319.094 314.512 319.699 314.685 320.384L313.465 320.879C313.083 319.267 313.981 318.131 315.512 317.51C317.004 316.904 318.602 316.859 319.593 319.298L321.13 323.086L319.885 323.591L319.627 322.956C319.527 322.709 319.474 322.504 319.454 322.119C319.438 322.005 319.442 321.867 319.335 321.865C319.216 321.868 319.232 321.983 319.232 322.058C319.257 323.197 318.643 324.216 317.437 324.706C316.179 325.217 314.817 324.803 314.358 323.674ZM318.432 320.011C318.23 320.667 317.34 321.044 316.386 321.597C315.629 322.04 315.33 322.494 315.577 323.104C315.793 323.636 316.435 323.95 317.453 323.37C318.412 322.829 319.098 321.69 318.432 320.011ZM318.892 313.115L320.137 312.61L321.443 315.827C321.543 316.073 321.583 316.283 321.603 316.593C321.606 316.712 321.581 316.874 321.714 316.865C321.833 316.862 321.82 316.716 321.817 316.672C321.858 315.658 322.384 314.719 323.447 314.288C325.173 313.587 326.969 314.55 327.769 316.522C328.57 318.494 327.954 320.436 326.228 321.137C325.191 321.558 324.152 321.27 323.386 320.538C323.358 320.504 323.276 320.416 323.209 320.474C323.095 320.565 323.208 320.656 323.289 320.744C323.495 320.992 323.608 321.158 323.703 321.391L323.929 321.949L322.684 322.455L318.892 313.115ZM325.505 320.1C326.803 319.574 327.025 318.26 326.524 317.027C326.024 315.795 324.949 315.008 323.652 315.534C322.471 316.014 322.081 317.396 322.581 318.629C323.081 319.861 324.325 320.58 325.505 320.1ZM327.712 309.534L331.504 318.874L330.259 319.379L326.467 310.04L327.712 309.534ZM337.383 312.513C337.457 312.694 337.497 312.829 337.529 312.982L332.574 314.994C333.096 316.021 334.17 316.582 335.377 316.093C336.272 315.729 336.534 315.109 336.456 314.249L337.741 313.727C337.969 315.07 337.513 316.555 335.814 317.245C333.726 318.092 331.958 317.012 331.194 315.131C330.383 313.134 331.101 311.18 333.007 310.406C334.486 309.806 336.425 310.152 337.383 312.513ZM332.217 313.93L335.901 312.435C335.428 311.493 334.526 311.059 333.515 311.469C332.269 311.975 332.035 312.961 332.217 313.93Z" fill="#0D1632"/>
<path d="M296.182 350L298.839 348.921C301.708 347.757 303.336 349.246 304.175 351.314C305.015 353.382 304.853 355.598 302.018 356.749L299.36 357.828L296.182 350ZM300.014 356.63L301.77 355.917C303.749 355.113 303.838 353.29 303.197 351.711C302.556 350.132 301.221 348.887 299.242 349.69L297.486 350.404L300.014 356.63ZM305.927 349.955C305.931 348.879 306.073 348.368 307.507 347.785L307.877 348.697C306.176 349.258 305.937 350.042 306.542 351.532L307.72 354.434L306.83 354.795L304.519 349.102L305.409 348.741L305.589 349.186C305.675 349.397 305.729 349.595 305.749 349.898C305.752 350 305.759 350.114 305.852 350.089C305.924 350.073 305.928 350.019 305.927 349.955ZM310.357 346.628C312.025 345.951 313.563 346.868 314.217 348.48C314.872 350.092 314.408 351.821 312.741 352.499C311.073 353.176 309.535 352.259 308.88 350.647C308.226 349.035 308.689 347.305 310.357 346.628ZM312.416 351.698C313.539 351.242 313.806 350.02 313.328 348.841C312.849 347.663 311.805 346.973 310.682 347.429C309.559 347.885 309.291 349.107 309.77 350.286C310.248 351.464 311.293 352.154 312.416 351.698ZM313.955 345.271L314.844 344.91L315.025 345.355C315.106 345.555 315.16 345.753 315.173 346.007C315.18 346.12 315.154 346.247 315.268 346.24C315.343 346.235 315.347 346.117 315.345 346.079C315.38 345.21 315.831 344.406 316.743 344.035C318.221 343.435 319.761 344.26 320.447 345.95C321.133 347.64 320.605 349.306 319.126 349.906C318.237 350.267 317.346 350.02 316.69 349.393C316.665 349.364 316.585 349.293 316.521 349.358C316.467 349.418 316.537 349.494 316.606 349.569C316.795 349.778 316.88 349.924 316.957 350.113L318.022 352.737L317.133 353.098L313.955 345.271ZM318.668 349.16C319.824 348.69 320.027 347.468 319.558 346.312C319.088 345.155 318.091 344.421 316.934 344.89C315.878 345.319 315.53 346.6 316 347.756C316.469 348.913 317.611 349.588 318.668 349.16ZM326.588 340.142L326.895 340.898L325.294 341.548L326.648 344.883C326.91 345.528 327.125 345.674 327.747 345.421L328.592 345.078L328.899 345.834L328.054 346.177C326.876 346.656 326.269 346.501 325.732 345.178L324.405 341.909L323.337 342.342L323.03 341.586L324.098 341.153L323.447 339.552L324.337 339.191L324.987 340.792L326.588 340.142ZM329.749 338.754C331.417 338.077 332.955 338.994 333.609 340.606C334.264 342.218 333.801 343.948 332.133 344.625C330.465 345.302 328.927 344.385 328.273 342.773C327.618 341.161 328.081 339.432 329.749 338.754ZM331.808 343.824C332.931 343.369 333.199 342.146 332.72 340.967C332.241 339.789 331.197 339.099 330.074 339.555C328.951 340.011 328.684 341.233 329.162 342.412C329.641 343.591 330.685 344.28 331.808 343.824ZM336.835 333.494L340.013 341.322L339.035 341.719L335.857 333.892L336.835 333.494ZM341.956 333.798C343.268 333.266 344.366 333.674 345.043 335.342L346.416 338.722L345.526 339.083L344.172 335.748C343.635 334.425 342.885 334.302 342.096 334.622C341.229 334.974 340.622 336.192 341.173 337.548L342.324 340.384L341.435 340.745L339.123 335.052L340.013 334.691L340.207 335.169C340.288 335.369 340.327 335.561 340.344 335.826C340.347 335.928 340.332 336.051 340.434 336.048C340.51 336.043 340.527 335.958 340.525 335.921C340.533 335.27 340.933 334.214 341.956 333.798ZM346.419 336.441L347.286 336.089C347.546 336.696 348.221 337.212 349.378 336.743C350.512 336.282 350.626 335.575 350.477 335.208C350.251 334.652 349.792 334.606 348.208 335.042C346.926 335.394 346.049 335.051 345.746 334.306C345.398 333.45 345.822 332.228 347.29 331.633C348.68 331.068 349.75 331.566 350.261 332.602L349.382 332.959C349.128 332.428 348.609 331.978 347.563 332.402C346.574 332.804 346.437 333.455 346.59 333.833C346.721 334.156 346.97 334.482 348.499 334.069C349.912 333.689 350.929 333.769 351.299 334.68C351.768 335.837 351.108 336.921 349.64 337.517C348.184 338.108 346.985 337.675 346.419 336.441ZM356.665 331.051C356.728 331.207 356.771 331.345 356.801 331.449L352.531 333.183C352.982 334.165 354.019 334.806 355.153 334.346C355.965 334.016 356.158 333.342 356.096 332.616L357.03 332.237C357.213 333.263 356.846 334.591 355.445 335.16C353.71 335.864 352.21 334.88 351.574 333.312C350.865 331.567 351.46 329.939 353.039 329.298C354.262 328.802 355.87 329.094 356.665 331.051ZM353.413 330.027C352.201 330.519 352.03 331.469 352.287 332.453L355.645 331.09C355.142 330.076 354.302 329.666 353.413 330.027ZM357.882 328.86C357.886 327.784 358.028 327.273 359.462 326.69L359.832 327.602C358.131 328.164 357.892 328.947 358.497 330.437L359.675 333.339L358.785 333.7L356.474 328.007L357.364 327.646L357.544 328.091C357.63 328.302 357.684 328.5 357.704 328.803C357.707 328.906 357.714 329.019 357.807 328.994C357.879 328.978 357.883 328.925 357.882 328.86ZM363.592 325.117L363.899 325.873L362.298 326.523L363.652 329.859C363.914 330.504 364.129 330.65 364.751 330.397L365.596 330.054L365.903 330.81L365.058 331.153C363.88 331.632 363.273 331.476 362.735 330.153L361.408 326.885L360.341 327.318L360.034 326.562L361.101 326.128L360.451 324.527L361.341 324.166L361.991 325.767L363.592 325.117Z" fill="#868A98"/>
<path d="M310.576 298.23L316.135 295.973C320.768 294.092 321.869 291.487 319.988 286.854L317.731 281.295C315.85 276.662 313.244 275.561 308.611 277.442L303.052 279.699C298.419 281.58 297.319 284.186 299.2 288.819L301.457 294.378C303.338 299.01 305.943 300.111 310.576 298.23Z" stroke="#1374FE" stroke-width="1.5" stroke-linecap="round" stroke-linejoin="round"/>
<path d="M305.832 278.571L313.356 297.102" stroke="#1374FE" stroke-width="1.5" stroke-linecap="round" stroke-linejoin="round"/>
<path d="M300.328 291.598L318.859 284.074" stroke="#1374FE" stroke-width="1.5" stroke-linecap="round" stroke-linejoin="round"/>
<path d="M354.022 362.121L348.464 364.51" stroke="#292D32" stroke-width="1.5" stroke-linecap="round" stroke-linejoin="round"/>
<path d="M353.242 366.336L355.109 361.655L350.427 359.788" stroke="#292D32" stroke-width="1.5" stroke-linecap="round" stroke-linejoin="round"/>
<path d="M348.861 374.958L346.471 369.4" stroke="#292D32" stroke-width="1.5" stroke-linecap="round" stroke-linejoin="round"/>
<path d="M344.645 374.177L349.326 376.044L351.193 371.362" stroke="#292D32" stroke-width="1.5" stroke-linecap="round" stroke-linejoin="round"/>
<path d="M336.033 369.785L341.591 367.395" stroke="#292D32" stroke-width="1.5" stroke-linecap="round" stroke-linejoin="round"/>
<path d="M336.812 365.569L334.946 370.251L339.627 372.117" stroke="#292D32" stroke-width="1.5" stroke-linecap="round" stroke-linejoin="round"/>
<path d="M341.186 356.945L343.575 362.504" stroke="#292D32" stroke-width="1.5" stroke-linecap="round" stroke-linejoin="round"/>
<path d="M345.402 357.727L340.721 355.86L338.854 360.542" stroke="#292D32" stroke-width="1.5" stroke-linecap="round" stroke-linejoin="round"/>
<defs>
<filter id="filter0_d_127_2800" x="326.804" y="8.91224" width="339.392" height="104.392" filterUnits="userSpaceOnUse" color-interpolation-filters="sRGB">
<feFlood flood-opacity="0" result="BackgroundImageFix"/>
<feColorMatrix in="SourceAlpha" type="matrix" values="0 0 0 0 0 0 0 0 0 0 0 0 0 0 0 0 0 0 127 0" result="hardAlpha"/>
<feOffset dy="14.1083"/>
<feGaussianBlur stdDeviation="16.598"/>
<feComposite in2="hardAlpha" operator="out"/>
<feColorMatrix type="matrix" values="0 0 0 0 0 0 0 0 0 0 0 0 0 0 0 0 0 0 0.05 0"/>
<feBlend mode="normal" in2="BackgroundImageFix" result="effect1_dropShadow_127_2800"/>
<feBlend mode="normal" in="SourceGraphic" in2="effect1_dropShadow_127_2800" result="shape"/>
</filter>
<filter id="filter1_d_127_2800" x="326.804" y="70.9122" width="465.392" height="156.392" filterUnits="userSpaceOnUse" color-interpolation-filters="sRGB">
<feFlood flood-opacity="0" result="BackgroundImageFix"/>
<feColorMatrix in="SourceAlpha" type="matrix" values="0 0 0 0 0 0 0 0 0 0 0 0 0 0 0 0 0 0 127 0" result="hardAlpha"/>
<feOffset dy="14.1083"/>
<feGaussianBlur stdDeviation="16.598"/>
<feComposite in2="hardAlpha" operator="out"/>
<feColorMatrix type="matrix" values="0 0 0 0 0 0 0 0 0 0 0 0 0 0 0 0 0 0 0.05 0"/>
<feBlend mode="normal" in2="BackgroundImageFix" result="effect1_dropShadow_127_2800"/>
<feBlend mode="normal" in="SourceGraphic" in2="effect1_dropShadow_127_2800" result="shape"/>
</filter>
<filter id="filter2_d_127_2800" x="326.804" y="184.912" width="465.392" height="270.392" filterUnits="userSpaceOnUse" color-interpolation-filters="sRGB">
<feFlood flood-opacity="0" result="BackgroundImageFix"/>
<feColorMatrix in="SourceAlpha" type="matrix" values="0 0 0 0 0 0 0 0 0 0 0 0 0 0 0 0 0 0 127 0" result="hardAlpha"/>
<feOffset dy="14.1083"/>
<feGaussianBlur stdDeviation="16.598"/>
<feComposite in2="hardAlpha" operator="out"/>
<feColorMatrix type="matrix" values="0 0 0 0 0 0 0 0 0 0 0 0 0 0 0 0 0 0 0.05 0"/>
<feBlend mode="normal" in2="BackgroundImageFix" result="effect1_dropShadow_127_2800"/>
<feBlend mode="normal" in="SourceGraphic" in2="effect1_dropShadow_127_2800" result="shape"/>
</filter>
<clipPath id="clip0_127_2800">
<rect x="332" width="421" height="507" rx="24" fill="white"/>
</clipPath>
</defs>
</svg>
