<svg width="804" height="576" viewBox="0 0 804 576" fill="none" xmlns="http://www.w3.org/2000/svg">
<g filter="url(#filter0_d_127_2615)">
<g clip-path="url(#clip0_127_2615)">
<rect x="36" y="36" width="732" height="504" rx="24" fill="#EFF8FF"/>
<path d="M68 92C68 78.7452 78.7452 68 92 68H352C365.255 68 376 78.7452 376 92V568C376 581.255 365.255 592 352 592H92C78.7452 592 68 581.255 68 568V92Z" fill="#FEFEFE"/>
<rect x="92.25" y="92.25" width="259.5" height="47.5" rx="15.75" fill="white"/>
<rect x="92.25" y="92.25" width="259.5" height="47.5" rx="15.75" stroke="#DFDFDF" stroke-width="0.5" stroke-linecap="round" stroke-linejoin="round"/>
<path d="M115.583 123.5C119.956 123.5 123.5 119.956 123.5 115.583C123.5 111.211 119.956 107.667 115.583 107.667C111.211 107.667 107.667 111.211 107.667 115.583C107.667 119.956 111.211 123.5 115.583 123.5Z" stroke="#292D32" stroke-width="1.25" stroke-linecap="round" stroke-linejoin="round"/>
<path d="M124.333 124.333L122.667 122.667" stroke="#292D32" stroke-width="1.25" stroke-linecap="round" stroke-linejoin="round"/>
<path opacity="0.4" d="M141.756 115.212C143.52 115.452 144.912 115.8 144.912 117.576C144.912 118.944 143.772 120.096 141.648 120.096C139.296 120.096 138.384 118.584 138.384 117.024H139.44C139.464 118.032 139.836 119.232 141.648 119.232C143.4 119.232 143.856 118.356 143.856 117.648C143.856 116.904 143.388 116.436 141.636 116.196C139.764 115.944 138.66 115.2 138.66 113.76C138.66 112.44 139.776 111.456 141.66 111.456C143.784 111.456 144.564 112.776 144.6 114.144H143.568C143.568 113.256 143.112 112.32 141.636 112.32C140.124 112.32 139.716 113.088 139.716 113.688C139.716 114.204 139.944 114.96 141.756 115.212ZM151.253 116.748C151.253 116.916 151.241 117.06 151.229 117.168H146.621C146.669 118.248 147.389 119.232 148.613 119.232C149.489 119.232 149.921 118.68 150.137 117.984H151.145C150.929 119.004 150.089 120.096 148.577 120.096C146.705 120.096 145.685 118.62 145.685 116.928C145.685 115.044 146.849 113.76 148.553 113.76C149.873 113.76 151.253 114.636 151.253 116.748ZM148.625 114.576C147.317 114.576 146.801 115.392 146.669 116.4H150.293C150.209 115.272 149.585 114.576 148.625 114.576ZM152.025 118.284C152.025 116.928 153.105 116.508 154.185 116.412C155.313 116.316 156.453 116.412 156.441 115.728C156.429 115.248 156.189 114.576 154.785 114.576C153.705 114.576 153.237 115.128 153.153 115.68H152.217C152.433 114.324 153.561 113.76 154.881 113.76C156.261 113.76 157.401 114.24 157.401 116.496V120H156.441V119.316C156.441 119.076 156.477 118.896 156.561 118.644C156.597 118.548 156.633 118.44 156.537 118.416C156.477 118.404 156.441 118.452 156.417 118.524C156.093 119.496 155.169 120.096 154.041 120.096C152.949 120.096 152.025 119.34 152.025 118.284ZM156.441 116.568C156.081 116.988 155.145 117.036 154.209 117.192C153.465 117.312 152.985 117.588 152.985 118.224C152.985 118.812 153.441 119.376 154.437 119.28C155.589 119.172 156.429 118.272 156.441 116.568ZM159.732 115.176C160.14 114.18 160.464 113.76 162.012 113.76V114.744C160.224 114.624 159.708 115.26 159.708 116.868V120H158.748V113.856H159.708V114.336C159.708 114.564 159.684 114.768 159.588 115.056C159.552 115.152 159.516 115.26 159.612 115.272C159.684 115.284 159.708 115.236 159.732 115.176ZM162.208 116.928C162.208 115.188 163.276 113.76 165.124 113.76C166.732 113.76 167.68 114.888 167.776 116.064H166.84C166.72 115.236 166.144 114.624 165.148 114.624C163.78 114.624 163.168 115.68 163.168 116.928C163.168 118.176 163.78 119.232 165.148 119.232C166.144 119.232 166.72 118.62 166.84 117.792H167.776C167.68 118.968 166.744 120.096 165.124 120.096C163.312 120.096 162.208 118.668 162.208 116.928ZM171.841 113.76C173.257 113.76 174.121 114.552 174.121 116.352V120H173.161V116.4C173.161 114.972 172.513 114.576 171.661 114.576C170.725 114.576 169.705 115.476 169.705 116.94V120H168.745V111.36H169.705V114.372C169.705 114.588 169.669 114.78 169.585 115.032C169.549 115.128 169.489 115.236 169.585 115.272C169.657 115.296 169.705 115.224 169.717 115.188C169.969 114.588 170.737 113.76 171.841 113.76ZM181.076 112.176C180.404 112.176 180.26 112.392 180.26 113.088V113.856H181.988V114.672H180.26V120H179.3V114.672H178.34V113.856H179.3V113.16C179.3 111.732 179.804 111.36 181.076 111.36H181.988V112.176H181.076ZM185.244 113.76C187.044 113.76 188.124 115.188 188.124 116.928C188.124 118.668 187.044 120.096 185.244 120.096C183.444 120.096 182.364 118.668 182.364 116.928C182.364 115.188 183.444 113.76 185.244 113.76ZM185.244 119.232C186.456 119.232 187.164 118.2 187.164 116.928C187.164 115.656 186.456 114.624 185.244 114.624C184.032 114.624 183.324 115.656 183.324 116.928C183.324 118.2 184.032 119.232 185.244 119.232ZM190.072 115.176C190.48 114.18 190.804 113.76 192.352 113.76V114.744C190.564 114.624 190.048 115.26 190.048 116.868V120H189.088V113.856H190.048V114.336C190.048 114.564 190.024 114.768 189.928 115.056C189.892 115.152 189.856 115.26 189.952 115.272C190.024 115.284 190.048 115.236 190.072 115.176ZM198.019 120H196.963V111.552H202.531V112.416H198.019V115.344H201.763V116.208H198.019V120ZM203.63 112.608V111.36H204.686V112.608H203.63ZM203.678 113.856H204.638V120H203.678V113.856ZM211.171 116.748C211.171 116.916 211.159 117.06 211.147 117.168H206.539C206.587 118.248 207.307 119.232 208.531 119.232C209.407 119.232 209.839 118.68 210.055 117.984H211.063C210.847 119.004 210.007 120.096 208.495 120.096C206.623 120.096 205.603 118.62 205.603 116.928C205.603 115.044 206.767 113.76 208.471 113.76C209.791 113.76 211.171 114.636 211.171 116.748ZM208.543 114.576C207.235 114.576 206.719 115.392 206.587 116.4H210.211C210.127 115.272 209.503 114.576 208.543 114.576ZM213.099 111.36V120H212.139V111.36H213.099ZM218.957 114.336V111.36H219.917V120H218.957V119.472C218.957 119.268 218.981 119.1 219.077 118.836C219.113 118.74 219.149 118.644 219.077 118.608C218.993 118.572 218.945 118.668 218.933 118.704C218.645 119.568 217.829 120.096 216.869 120.096C215.273 120.096 214.157 118.752 214.157 116.928C214.157 115.104 215.273 113.76 216.869 113.76C217.853 113.76 218.657 114.3 218.933 115.128C218.945 115.164 218.993 115.272 219.065 115.248C219.173 115.212 219.101 115.104 219.065 114.996C218.981 114.756 218.957 114.552 218.957 114.336ZM217.013 119.232C218.153 119.232 218.957 118.176 218.957 116.928C218.957 115.68 218.153 114.624 217.013 114.624C215.765 114.624 215.117 115.68 215.117 116.928C215.117 118.176 215.765 119.232 217.013 119.232Z" fill="#0D1632"/>
<rect x="92.25" y="156.25" width="121.5" height="121.5" rx="15.75" fill="white"/>
<rect x="92.25" y="156.25" width="121.5" height="121.5" rx="15.75" stroke="#DFDFDF" stroke-width="0.5" stroke-linecap="round" stroke-linejoin="round"/>
<path d="M142.99 185.93V184.42C142.99 183.4 143.82 182.57 144.84 182.57H157.76C158.78 182.57 159.61 183.4 159.61 184.42V185.93" stroke="#0069D5" stroke-width="1.5" stroke-linecap="round" stroke-linejoin="round"/>
<path d="M151.3 198.1V183.32" stroke="#0069D5" stroke-width="1.5" stroke-linecap="round" stroke-linejoin="round"/>
<path d="M147.9 198.1H153.48" stroke="#0069D5" stroke-width="1.5" stroke-linecap="round" stroke-linejoin="round"/>
<path d="M154.68 190.34H161.69C162.42 190.34 163.01 190.93 163.01 191.66V192.46" stroke="#0069D5" stroke-width="1.5" stroke-linecap="round" stroke-linejoin="round"/>
<path d="M157.08 201.43V190.87" stroke="#0069D5" stroke-width="1.5" stroke-linecap="round" stroke-linejoin="round"/>
<path d="M154.94 201.43H159.22" stroke="#0069D5" stroke-width="1.5" stroke-linecap="round" stroke-linejoin="round"/>
<path d="M123.869 220.152V219.144H131.261V220.152H128.181V229H126.949V220.152H123.869ZM137.31 225.206C137.31 225.402 137.296 225.57 137.282 225.696H131.906C131.962 226.956 132.802 228.104 134.23 228.104C135.252 228.104 135.756 227.46 136.008 226.648H137.184C136.932 227.838 135.952 229.112 134.188 229.112C132.004 229.112 130.814 227.39 130.814 225.416C130.814 223.218 132.172 221.72 134.16 221.72C135.7 221.72 137.31 222.742 137.31 225.206ZM134.244 222.672C132.718 222.672 132.116 223.624 131.962 224.8H136.19C136.092 223.484 135.364 222.672 134.244 222.672ZM138.826 229H137.426L140.058 225.248L137.65 221.832H139.05L140.702 224.324C140.814 224.492 140.884 224.618 140.898 224.758C140.898 224.828 140.912 224.926 141.01 224.926C141.108 224.926 141.122 224.828 141.122 224.758C141.136 224.618 141.206 224.492 141.318 224.324L142.97 221.832H144.37L141.962 225.248L144.594 229H143.194L141.304 226.158C141.192 226.004 141.15 225.878 141.122 225.724C141.108 225.64 141.108 225.556 141.01 225.556C140.912 225.556 140.912 225.64 140.898 225.724C140.87 225.878 140.828 226.004 140.716 226.158L138.826 229ZM149.303 221.832V222.784H147.287V226.984C147.287 227.796 147.455 228.048 148.239 228.048H149.303V229H148.239C146.755 229 146.167 228.566 146.167 226.9V222.784H144.823V221.832H146.167V219.816H147.287V221.832H149.303ZM156.133 229H154.901V219.144H161.397V220.152H156.133V223.568H160.501V224.576H156.133V229ZM162.679 220.376V218.92H163.911V220.376H162.679ZM162.735 221.832H163.855V229H162.735V221.832ZM171.476 225.206C171.476 225.402 171.462 225.57 171.448 225.696H166.072C166.128 226.956 166.968 228.104 168.396 228.104C169.418 228.104 169.922 227.46 170.174 226.648H171.35C171.098 227.838 170.118 229.112 168.354 229.112C166.17 229.112 164.98 227.39 164.98 225.416C164.98 223.218 166.338 221.72 168.326 221.72C169.866 221.72 171.476 222.742 171.476 225.206ZM168.41 222.672C166.884 222.672 166.282 223.624 166.128 224.8H170.356C170.258 223.484 169.53 222.672 168.41 222.672ZM173.726 218.92V229H172.606V218.92H173.726ZM180.561 222.392V218.92H181.681V229H180.561V228.384C180.561 228.146 180.589 227.95 180.701 227.642C180.743 227.53 180.785 227.418 180.701 227.376C180.603 227.334 180.547 227.446 180.533 227.488C180.197 228.496 179.245 229.112 178.125 229.112C176.263 229.112 174.961 227.544 174.961 225.416C174.961 223.288 176.263 221.72 178.125 221.72C179.273 221.72 180.211 222.35 180.533 223.316C180.547 223.358 180.603 223.484 180.687 223.456C180.813 223.414 180.729 223.288 180.687 223.162C180.589 222.882 180.561 222.644 180.561 222.392ZM178.293 228.104C179.623 228.104 180.561 226.872 180.561 225.416C180.561 223.96 179.623 222.728 178.293 222.728C176.837 222.728 176.081 223.96 176.081 225.416C176.081 226.872 176.837 228.104 178.293 228.104Z" fill="#0D1632"/>
<path opacity="0.5" d="M120.517 248.344V244.552H121.573V253H120.517V249.208H116.101V253H115.045V244.552H116.101V248.344H120.517ZM128.292 249.748C128.292 249.916 128.28 250.06 128.268 250.168H123.66C123.708 251.248 124.428 252.232 125.652 252.232C126.528 252.232 126.96 251.68 127.176 250.984H128.184C127.968 252.004 127.128 253.096 125.616 253.096C123.744 253.096 122.724 251.62 122.724 249.928C122.724 248.044 123.888 246.76 125.592 246.76C126.912 246.76 128.292 247.636 128.292 249.748ZM125.664 247.576C124.356 247.576 123.84 248.392 123.708 249.4H127.332C127.248 248.272 126.624 247.576 125.664 247.576ZM129.064 251.284C129.064 249.928 130.144 249.508 131.224 249.412C132.352 249.316 133.492 249.412 133.48 248.728C133.468 248.248 133.228 247.576 131.824 247.576C130.744 247.576 130.276 248.128 130.192 248.68H129.256C129.472 247.324 130.6 246.76 131.92 246.76C133.3 246.76 134.44 247.24 134.44 249.496V253H133.48V252.316C133.48 252.076 133.516 251.896 133.6 251.644C133.636 251.548 133.672 251.44 133.576 251.416C133.516 251.404 133.48 251.452 133.456 251.524C133.132 252.496 132.208 253.096 131.08 253.096C129.988 253.096 129.064 252.34 129.064 251.284ZM133.48 249.568C133.12 249.988 132.184 250.036 131.248 250.192C130.504 250.312 130.024 250.588 130.024 251.224C130.024 251.812 130.48 252.376 131.476 252.28C132.628 252.172 133.468 251.272 133.48 249.568ZM140.297 247.336V244.36H141.257V253H140.297V252.472C140.297 252.268 140.321 252.1 140.417 251.836C140.453 251.74 140.489 251.644 140.417 251.608C140.333 251.572 140.285 251.668 140.273 251.704C139.985 252.568 139.169 253.096 138.209 253.096C136.613 253.096 135.497 251.752 135.497 249.928C135.497 248.104 136.613 246.76 138.209 246.76C139.193 246.76 139.997 247.3 140.273 248.128C140.285 248.164 140.333 248.272 140.405 248.248C140.513 248.212 140.441 248.104 140.405 247.996C140.321 247.756 140.297 247.552 140.297 247.336ZM138.353 252.232C139.493 252.232 140.297 251.176 140.297 249.928C140.297 248.68 139.493 247.624 138.353 247.624C137.105 247.624 136.457 248.68 136.457 249.928C136.457 251.176 137.105 252.232 138.353 252.232ZM142.654 245.608V244.36H143.71V245.608H142.654ZM142.702 246.856H143.662V253H142.702V246.856ZM148.2 246.76C149.616 246.76 150.48 247.552 150.48 249.352V253H149.52V249.4C149.52 247.972 148.872 247.576 148.02 247.576C147.084 247.576 146.064 248.476 146.064 249.94V253H145.104V246.856H146.064V247.372C146.064 247.588 146.028 247.78 145.944 248.032C145.908 248.128 145.848 248.236 145.944 248.272C146.016 248.296 146.064 248.224 146.076 248.188C146.328 247.588 147.096 246.76 148.2 246.76ZM151.435 249.88C151.435 248.044 152.551 246.76 154.147 246.76C155.131 246.76 155.827 247.288 156.211 248.068C156.235 248.116 156.259 248.224 156.355 248.188C156.451 248.152 156.391 248.032 156.343 247.924C156.247 247.684 156.235 247.54 156.235 247.3V246.856H157.195V252.448C157.195 254.512 156.079 255.4 154.351 255.4C152.539 255.4 151.735 254.548 151.627 253.384H152.587C152.671 253.936 153.019 254.584 154.339 254.584C155.599 254.584 156.235 253.852 156.235 252.448C156.235 252.184 156.247 252.04 156.343 251.812C156.415 251.632 156.439 251.572 156.355 251.536C156.271 251.5 156.235 251.608 156.211 251.668C155.815 252.496 155.107 253 154.147 253C152.551 253 151.435 251.716 151.435 249.88ZM154.315 252.136C155.455 252.136 156.235 251.152 156.235 249.88C156.235 248.608 155.455 247.624 154.315 247.624C153.067 247.624 152.395 248.608 152.395 249.88C152.395 251.152 153.067 252.136 154.315 252.136ZM166.318 243.592L162.286 253.96H161.614L165.646 243.592H166.318ZM170.349 245.416V244.552H176.685V245.416H174.045V253H172.989V245.416H170.349ZM181.87 249.748C181.87 249.916 181.858 250.06 181.846 250.168H177.238C177.286 251.248 178.006 252.232 179.23 252.232C180.106 252.232 180.538 251.68 180.754 250.984H181.762C181.546 252.004 180.706 253.096 179.194 253.096C177.322 253.096 176.302 251.62 176.302 249.928C176.302 248.044 177.466 246.76 179.17 246.76C180.49 246.76 181.87 247.636 181.87 249.748ZM179.242 247.576C177.934 247.576 177.418 248.392 177.286 249.4H180.91C180.826 248.272 180.202 247.576 179.242 247.576ZM183.169 253H181.969L184.225 249.784L182.161 246.856H183.361L184.777 248.992C184.873 249.136 184.933 249.244 184.945 249.364C184.945 249.424 184.957 249.508 185.041 249.508C185.125 249.508 185.137 249.424 185.137 249.364C185.149 249.244 185.209 249.136 185.305 248.992L186.721 246.856H187.921L185.857 249.784L188.113 253H186.913L185.293 250.564C185.197 250.432 185.161 250.324 185.137 250.192C185.125 250.12 185.125 250.048 185.041 250.048C184.957 250.048 184.957 250.12 184.945 250.192C184.921 250.324 184.885 250.432 184.789 250.564L183.169 253ZM192.149 246.856V247.672H190.421V251.272C190.421 251.968 190.565 252.184 191.237 252.184H192.149V253H191.237C189.965 253 189.461 252.628 189.461 251.2V247.672H188.309V246.856H189.461V245.128H190.421V246.856H192.149Z" fill="#0D1632"/>
<rect x="92.25" y="432.25" width="121.5" height="121.5" rx="15.75" fill="white"/>
<rect x="92.25" y="432.25" width="121.5" height="121.5" rx="15.75" stroke="#DFDFDF" stroke-width="0.5" stroke-linecap="round" stroke-linejoin="round"/>
<path d="M138.607 496.152V495.144H145.999V496.152H142.919V505H141.687V496.152H138.607ZM147.284 496.376V494.92H148.516V496.376H147.284ZM147.34 497.832H148.46V505H147.34V497.832ZM157.451 497.72C158.683 497.72 159.775 498.42 159.775 500.52V505H158.655V500.352C158.655 499.232 158.025 498.672 157.157 498.672C156.247 498.672 155.519 499.68 155.519 500.884V505H154.399V500.52C154.399 499.4 153.951 498.672 153.027 498.672C152.243 498.672 151.263 499.68 151.263 501.052V505H150.143V497.832H151.263V498.35C151.263 498.63 151.221 498.84 151.123 499.092C151.081 499.204 151.053 499.316 151.137 499.344C151.221 499.372 151.277 499.288 151.291 499.246C151.697 498.364 152.439 497.72 153.419 497.72C154.301 497.72 154.959 498.238 155.225 499.19C155.239 499.26 155.281 499.302 155.365 499.302C155.463 499.302 155.477 499.26 155.505 499.204C155.841 498.378 156.569 497.72 157.451 497.72ZM167.388 501.206C167.388 501.402 167.374 501.57 167.36 501.696H161.984C162.04 502.956 162.88 504.104 164.308 504.104C165.33 504.104 165.834 503.46 166.086 502.648H167.262C167.01 503.838 166.03 505.112 164.266 505.112C162.082 505.112 160.892 503.39 160.892 501.416C160.892 499.218 162.25 497.72 164.238 497.72C165.778 497.72 167.388 498.742 167.388 501.206ZM164.322 498.672C162.796 498.672 162.194 499.624 162.04 500.8H166.268C166.17 499.484 165.442 498.672 164.322 498.672Z" fill="#0D1632"/>
<path opacity="0.5" d="M119.747 521.416V520.552H126.083V521.416H123.443V529H122.387V521.416H119.747ZM127.185 521.608V520.36H128.241V521.608H127.185ZM127.233 522.856H128.193V529H127.233V522.856ZM135.899 522.76C136.955 522.76 137.891 523.36 137.891 525.16V529H136.931V525.016C136.931 524.056 136.391 523.576 135.647 523.576C134.867 523.576 134.243 524.44 134.243 525.472V529H133.283V525.16C133.283 524.2 132.899 523.576 132.107 523.576C131.435 523.576 130.595 524.44 130.595 525.616V529H129.635V522.856H130.595V523.3C130.595 523.54 130.559 523.72 130.475 523.936C130.439 524.032 130.415 524.128 130.487 524.152C130.559 524.176 130.607 524.104 130.619 524.068C130.967 523.312 131.603 522.76 132.443 522.76C133.199 522.76 133.763 523.204 133.991 524.02C134.003 524.08 134.039 524.116 134.111 524.116C134.195 524.116 134.207 524.08 134.231 524.032C134.519 523.324 135.143 522.76 135.899 522.76ZM144.417 525.748C144.417 525.916 144.405 526.06 144.393 526.168H139.785C139.833 527.248 140.553 528.232 141.777 528.232C142.653 528.232 143.085 527.68 143.301 526.984H144.309C144.093 528.004 143.253 529.096 141.741 529.096C139.869 529.096 138.849 527.62 138.849 525.928C138.849 524.044 140.013 522.76 141.717 522.76C143.037 522.76 144.417 523.636 144.417 525.748ZM141.789 523.576C140.481 523.576 139.965 524.392 139.833 525.4H143.457C143.373 524.272 142.749 523.576 141.789 523.576ZM148.646 521.416V520.552H154.982V521.416H152.342V529H151.286V521.416H148.646ZM156.729 524.176C157.137 523.18 157.461 522.76 159.009 522.76V523.744C157.221 523.624 156.705 524.26 156.705 525.868V529H155.745V522.856H156.705V523.336C156.705 523.564 156.681 523.768 156.585 524.056C156.549 524.152 156.513 524.26 156.609 524.272C156.681 524.284 156.705 524.236 156.729 524.176ZM159.298 527.284C159.298 525.928 160.378 525.508 161.458 525.412C162.586 525.316 163.726 525.412 163.714 524.728C163.702 524.248 163.462 523.576 162.058 523.576C160.978 523.576 160.51 524.128 160.426 524.68H159.49C159.706 523.324 160.834 522.76 162.154 522.76C163.534 522.76 164.674 523.24 164.674 525.496V529H163.714V528.316C163.714 528.076 163.75 527.896 163.834 527.644C163.87 527.548 163.906 527.44 163.81 527.416C163.75 527.404 163.714 527.452 163.69 527.524C163.366 528.496 162.442 529.096 161.314 529.096C160.222 529.096 159.298 528.34 159.298 527.284ZM163.714 525.568C163.354 525.988 162.418 526.036 161.482 526.192C160.738 526.312 160.258 526.588 160.258 527.224C160.258 527.812 160.714 528.376 161.71 528.28C162.862 528.172 163.702 527.272 163.714 525.568ZM165.732 525.928C165.732 524.188 166.8 522.76 168.648 522.76C170.256 522.76 171.204 523.888 171.3 525.064H170.364C170.244 524.236 169.668 523.624 168.672 523.624C167.304 523.624 166.692 524.68 166.692 525.928C166.692 527.176 167.304 528.232 168.672 528.232C169.668 528.232 170.244 527.62 170.364 526.792H171.3C171.204 527.968 170.268 529.096 168.648 529.096C166.836 529.096 165.732 527.668 165.732 525.928ZM174.536 525.412L177.452 529H176.252L173.9 526L173.228 526.636V529H172.268V520.36H173.228V524.848C173.228 525.16 173.168 525.364 172.988 525.604C172.94 525.664 172.892 525.736 172.964 525.784C173.024 525.832 173.072 525.772 173.12 525.724L175.988 522.856H177.26L174.536 525.412ZM183.018 525.748C183.018 525.916 183.006 526.06 182.994 526.168H178.386C178.434 527.248 179.154 528.232 180.378 528.232C181.254 528.232 181.686 527.68 181.902 526.984H182.91C182.694 528.004 181.854 529.096 180.342 529.096C178.47 529.096 177.45 527.62 177.45 525.928C177.45 524.044 178.614 522.76 180.318 522.76C181.638 522.76 183.018 523.636 183.018 525.748ZM180.39 523.576C179.082 523.576 178.566 524.392 178.434 525.4H182.058C181.974 524.272 181.35 523.576 180.39 523.576ZM184.971 524.176C185.379 523.18 185.703 522.76 187.251 522.76V523.744C185.463 523.624 184.947 524.26 184.947 525.868V529H183.987V522.856H184.947V523.336C184.947 523.564 184.923 523.768 184.827 524.056C184.791 524.152 184.755 524.26 184.851 524.272C184.923 524.284 184.947 524.236 184.971 524.176Z" fill="#0D1632"/>
<path d="M161.75 469.25C161.75 474.08 157.83 478 153 478C148.17 478 144.25 474.08 144.25 469.25C144.25 464.42 148.17 460.5 153 460.5C157.83 460.5 161.75 464.42 161.75 469.25Z" stroke="#0069D5" stroke-width="1.5" stroke-linecap="round" stroke-linejoin="round"/>
<path d="M153 464V469" stroke="#0069D5" stroke-width="1.5" stroke-linecap="round" stroke-linejoin="round"/>
<path d="M150 458H156" stroke="#0069D5" stroke-width="1.5" stroke-miterlimit="10" stroke-linecap="round" stroke-linejoin="round"/>
<rect x="92.25" y="294.25" width="121.5" height="121.5" rx="15.75" fill="white"/>
<rect x="92.25" y="294.25" width="121.5" height="121.5" rx="15.75" stroke="#DFDFDF" stroke-width="0.5" stroke-linecap="round" stroke-linejoin="round"/>
<path d="M132.78 361.414C134.838 361.694 136.462 362.1 136.462 364.172C136.462 365.768 135.132 367.112 132.654 367.112C129.91 367.112 128.846 365.348 128.846 363.528H130.078C130.106 364.704 130.54 366.104 132.654 366.104C134.698 366.104 135.23 365.082 135.23 364.256C135.23 363.388 134.684 362.842 132.64 362.562C130.456 362.268 129.168 361.4 129.168 359.72C129.168 358.18 130.47 357.032 132.668 357.032C135.146 357.032 136.056 358.572 136.098 360.168H134.894C134.894 359.132 134.362 358.04 132.64 358.04C130.876 358.04 130.4 358.936 130.4 359.636C130.4 360.238 130.666 361.12 132.78 361.414ZM143.86 363.206C143.86 363.402 143.846 363.57 143.832 363.696H138.456C138.512 364.956 139.352 366.104 140.78 366.104C141.802 366.104 142.306 365.46 142.558 364.648H143.734C143.482 365.838 142.502 367.112 140.738 367.112C138.554 367.112 137.364 365.39 137.364 363.416C137.364 361.218 138.722 359.72 140.71 359.72C142.25 359.72 143.86 360.742 143.86 363.206ZM140.794 360.672C139.268 360.672 138.666 361.624 138.512 362.8H142.74C142.642 361.484 141.914 360.672 140.794 360.672ZM146.11 356.92V367H144.99V356.92H146.11ZM153.731 363.206C153.731 363.402 153.717 363.57 153.703 363.696H148.327C148.383 364.956 149.223 366.104 150.651 366.104C151.673 366.104 152.177 365.46 152.429 364.648H153.605C153.353 365.838 152.373 367.112 150.609 367.112C148.425 367.112 147.235 365.39 147.235 363.416C147.235 361.218 148.593 359.72 150.581 359.72C152.121 359.72 153.731 360.742 153.731 363.206ZM150.665 360.672C149.139 360.672 148.537 361.624 148.383 362.8H152.611C152.513 361.484 151.785 360.672 150.665 360.672ZM154.632 363.416C154.632 361.386 155.878 359.72 158.034 359.72C159.91 359.72 161.016 361.036 161.128 362.408H160.036C159.896 361.442 159.224 360.728 158.062 360.728C156.466 360.728 155.752 361.96 155.752 363.416C155.752 364.872 156.466 366.104 158.062 366.104C159.224 366.104 159.896 365.39 160.036 364.424H161.128C161.016 365.796 159.924 367.112 158.034 367.112C155.92 367.112 154.632 365.446 154.632 363.416ZM165.833 359.832V360.784H163.817V364.984C163.817 365.796 163.985 366.048 164.769 366.048H165.833V367H164.769C163.285 367 162.697 366.566 162.697 364.9V360.784H161.353V359.832H162.697V357.816H163.817V359.832H165.833ZM169.859 359.72C171.959 359.72 173.219 361.386 173.219 363.416C173.219 365.446 171.959 367.112 169.859 367.112C167.759 367.112 166.499 365.446 166.499 363.416C166.499 361.386 167.759 359.72 169.859 359.72ZM169.859 366.104C171.273 366.104 172.099 364.9 172.099 363.416C172.099 361.932 171.273 360.728 169.859 360.728C168.445 360.728 167.619 361.932 167.619 363.416C167.619 364.9 168.445 366.104 169.859 366.104ZM175.491 361.372C175.967 360.21 176.345 359.72 178.151 359.72V360.868C176.065 360.728 175.463 361.47 175.463 363.346V367H174.343V359.832H175.463V360.392C175.463 360.658 175.435 360.896 175.323 361.232C175.281 361.344 175.239 361.47 175.351 361.484C175.435 361.498 175.463 361.442 175.491 361.372Z" fill="#0D1632"/>
<path opacity="0.5" d="M126.501 386.776C126.501 384.388 127.941 382.456 130.485 382.456C133.029 382.456 134.073 384.268 134.181 385.624H133.137C133.017 384.52 132.201 383.32 130.533 383.32C128.637 383.32 127.557 384.856 127.557 386.776C127.557 388.696 128.637 390.232 130.533 390.232C132.201 390.232 133.017 389.032 133.137 387.928H134.181C134.073 389.284 133.029 391.096 130.485 391.096C127.941 391.096 126.501 389.164 126.501 386.776ZM138.43 384.76C139.846 384.76 140.71 385.552 140.71 387.352V391H139.75V387.4C139.75 385.972 139.102 385.576 138.25 385.576C137.314 385.576 136.294 386.476 136.294 387.94V391H135.334V382.36H136.294V385.372C136.294 385.588 136.258 385.78 136.174 386.032C136.138 386.128 136.078 386.236 136.174 386.272C136.246 386.296 136.294 386.224 136.306 386.188C136.558 385.588 137.326 384.76 138.43 384.76ZM147.233 387.748C147.233 387.916 147.221 388.06 147.209 388.168H142.601C142.649 389.248 143.369 390.232 144.593 390.232C145.469 390.232 145.901 389.68 146.117 388.984H147.125C146.909 390.004 146.069 391.096 144.557 391.096C142.685 391.096 141.665 389.62 141.665 387.928C141.665 386.044 142.829 384.76 144.533 384.76C145.853 384.76 147.233 385.636 147.233 387.748ZM144.605 385.576C143.297 385.576 142.781 386.392 142.649 387.4H146.273C146.189 386.272 145.565 385.576 144.605 385.576ZM148.005 387.928C148.005 386.188 149.073 384.76 150.921 384.76C152.529 384.76 153.477 385.888 153.573 387.064H152.637C152.517 386.236 151.941 385.624 150.945 385.624C149.577 385.624 148.965 386.68 148.965 387.928C148.965 389.176 149.577 390.232 150.945 390.232C151.941 390.232 152.517 389.62 152.637 388.792H153.573C153.477 389.968 152.541 391.096 150.921 391.096C149.109 391.096 148.005 389.668 148.005 387.928ZM156.809 387.412L159.725 391H158.525L156.173 388L155.501 388.636V391H154.541V382.36H155.501V386.848C155.501 387.16 155.441 387.364 155.261 387.604C155.213 387.664 155.165 387.736 155.237 387.784C155.297 387.832 155.345 387.772 155.393 387.724L158.261 384.856H159.533L156.809 387.412ZM165.019 386.488C164.947 386.512 164.911 386.536 164.911 386.608C164.911 386.692 164.971 386.704 165.031 386.716C166.195 386.86 166.831 387.736 166.831 388.6C166.831 389.992 166.015 391 164.287 391H160.495V382.552H163.735C165.487 382.552 166.447 383.236 166.447 384.748C166.447 385.528 165.847 386.272 165.019 386.488ZM163.975 383.416H161.551V386.248H163.747C164.791 386.248 165.391 385.516 165.391 384.724C165.391 384.016 164.995 383.416 163.975 383.416ZM161.551 390.136H164.215C165.211 390.136 165.775 389.476 165.775 388.624C165.775 387.808 165.163 387.112 164.011 387.112H161.551V390.136ZM170.573 384.76C172.373 384.76 173.453 386.188 173.453 387.928C173.453 389.668 172.373 391.096 170.573 391.096C168.773 391.096 167.693 389.668 167.693 387.928C167.693 386.188 168.773 384.76 170.573 384.76ZM170.573 390.232C171.785 390.232 172.493 389.2 172.493 387.928C172.493 386.656 171.785 385.624 170.573 385.624C169.361 385.624 168.653 386.656 168.653 387.928C168.653 389.2 169.361 390.232 170.573 390.232ZM174.747 391H173.547L175.803 387.784L173.739 384.856H174.939L176.355 386.992C176.451 387.136 176.511 387.244 176.523 387.364C176.523 387.424 176.535 387.508 176.619 387.508C176.703 387.508 176.715 387.424 176.715 387.364C176.727 387.244 176.787 387.136 176.883 386.992L178.299 384.856H179.499L177.435 387.784L179.691 391H178.491L176.871 388.564C176.775 388.432 176.739 388.324 176.715 388.192C176.703 388.12 176.703 388.048 176.619 388.048C176.535 388.048 176.535 388.12 176.523 388.192C176.499 388.324 176.463 388.432 176.367 388.564L174.747 391Z" fill="#0D1632"/>
<path d="M159.63 325.15C159.67 325.76 159.62 326.45 159.5 327.22L158.77 331.91C158.15 335.82 156.34 337.14 152.43 336.53L147.74 335.79C146.39 335.58 145.35 335.22 144.59 334.68C143.14 333.67 142.72 332.01 143.12 329.45L143.86 324.76C144.48 320.85 146.29 319.53 150.2 320.14L154.89 320.88C158.03 321.37 159.5 322.65 159.63 325.15Z" stroke="#0069D5" stroke-width="1.5" stroke-linecap="round" stroke-linejoin="round"/>
<path d="M161.5 331.47L160 335.98C158.75 339.74 156.75 340.74 152.99 339.49L148.48 337.99C146.21 337.24 144.95 336.2 144.59 334.68C145.35 335.22 146.39 335.58 147.74 335.79L152.43 336.53C156.34 337.14 158.15 335.82 158.77 331.91L159.5 327.22C159.62 326.45 159.67 325.76 159.63 325.15C162.02 326.42 162.54 328.34 161.5 331.47Z" stroke="#0069D5" stroke-width="1.5" stroke-linecap="round" stroke-linejoin="round"/>
<path d="M149.24 326.98C150.201 326.98 150.98 326.201 150.98 325.24C150.98 324.279 150.201 323.5 149.24 323.5C148.279 323.5 147.5 324.279 147.5 325.24C147.5 326.201 148.279 326.98 149.24 326.98Z" stroke="#0069D5" stroke-width="1.5" stroke-linecap="round" stroke-linejoin="round"/>
<rect x="230.25" y="432.25" width="121.5" height="121.5" rx="15.75" fill="white"/>
<rect x="230.25" y="432.25" width="121.5" height="121.5" rx="15.75" stroke="#DFDFDF" stroke-width="0.5" stroke-linecap="round" stroke-linejoin="round"/>
<path d="M277.952 495.144H281.298C284.91 495.144 286.016 497.468 286.016 500.072C286.016 502.676 284.868 505 281.298 505H277.952V495.144ZM279.184 503.992H281.396C283.888 503.992 284.784 502.06 284.784 500.072C284.784 498.084 283.888 496.152 281.396 496.152H279.184V503.992ZM286.91 502.998C286.91 501.416 288.17 500.926 289.43 500.814C290.746 500.702 292.076 500.814 292.062 500.016C292.048 499.456 291.768 498.672 290.13 498.672C288.87 498.672 288.324 499.316 288.226 499.96H287.134C287.386 498.378 288.702 497.72 290.242 497.72C291.852 497.72 293.182 498.28 293.182 500.912V505H292.062V504.202C292.062 503.922 292.104 503.712 292.202 503.418C292.244 503.306 292.286 503.18 292.174 503.152C292.104 503.138 292.062 503.194 292.034 503.278C291.656 504.412 290.578 505.112 289.262 505.112C287.988 505.112 286.91 504.23 286.91 502.998ZM292.062 500.996C291.642 501.486 290.55 501.542 289.458 501.724C288.59 501.864 288.03 502.186 288.03 502.928C288.03 503.614 288.562 504.272 289.724 504.16C291.068 504.034 292.048 502.984 292.062 500.996ZM298.33 497.832V498.784H296.314V502.984C296.314 503.796 296.482 504.048 297.266 504.048H298.33V505H297.266C295.782 505 295.194 504.566 295.194 502.9V498.784H293.85V497.832H295.194V495.816H296.314V497.832H298.33ZM305.492 501.206C305.492 501.402 305.478 501.57 305.464 501.696H300.088C300.144 502.956 300.984 504.104 302.412 504.104C303.434 504.104 303.938 503.46 304.19 502.648H305.366C305.114 503.838 304.134 505.112 302.37 505.112C300.186 505.112 298.996 503.39 298.996 501.416C298.996 499.218 300.354 497.72 302.342 497.72C303.882 497.72 305.492 498.742 305.492 501.206ZM302.426 498.672C300.9 498.672 300.298 499.624 300.144 500.8H304.372C304.274 499.484 303.546 498.672 302.426 498.672Z" fill="#0D1632"/>
<path opacity="0.5" d="M253.051 524.212C254.815 524.452 256.207 524.8 256.207 526.576C256.207 527.944 255.067 529.096 252.943 529.096C250.591 529.096 249.679 527.584 249.679 526.024H250.735C250.759 527.032 251.131 528.232 252.943 528.232C254.695 528.232 255.151 527.356 255.151 526.648C255.151 525.904 254.683 525.436 252.931 525.196C251.059 524.944 249.955 524.2 249.955 522.76C249.955 521.44 251.071 520.456 252.955 520.456C255.079 520.456 255.859 521.776 255.895 523.144H254.863C254.863 522.256 254.407 521.32 252.931 521.32C251.419 521.32 251.011 522.088 251.011 522.688C251.011 523.204 251.239 523.96 253.051 524.212ZM259.86 522.76C261.66 522.76 262.74 524.188 262.74 525.928C262.74 527.668 261.66 529.096 259.86 529.096C258.06 529.096 256.98 527.668 256.98 525.928C256.98 524.188 258.06 522.76 259.86 522.76ZM259.86 528.232C261.072 528.232 261.78 527.2 261.78 525.928C261.78 524.656 261.072 523.624 259.86 523.624C258.648 523.624 257.94 524.656 257.94 525.928C257.94 527.2 258.648 528.232 259.86 528.232ZM264.688 524.176C265.096 523.18 265.42 522.76 266.968 522.76V523.744C265.18 523.624 264.664 524.26 264.664 525.868V529H263.704V522.856H264.664V523.336C264.664 523.564 264.64 523.768 264.544 524.056C264.508 524.152 264.472 524.26 264.568 524.272C264.64 524.284 264.664 524.236 264.688 524.176ZM271.386 522.856V523.672H269.658V527.272C269.658 527.968 269.802 528.184 270.474 528.184H271.386V529H270.474C269.202 529 268.698 528.628 268.698 527.2V523.672H267.546V522.856H268.698V521.128H269.658V522.856H271.386ZM272.585 521.608V520.36H273.641V521.608H272.585ZM272.633 522.856H273.593V529H272.633V522.856ZM278.132 522.76C279.548 522.76 280.412 523.552 280.412 525.352V529H279.452V525.4C279.452 523.972 278.804 523.576 277.952 523.576C277.016 523.576 275.996 524.476 275.996 525.94V529H275.036V522.856H275.996V523.372C275.996 523.588 275.96 523.78 275.876 524.032C275.84 524.128 275.78 524.236 275.876 524.272C275.948 524.296 275.996 524.224 276.008 524.188C276.26 523.588 277.028 522.76 278.132 522.76ZM281.366 525.88C281.366 524.044 282.482 522.76 284.078 522.76C285.062 522.76 285.758 523.288 286.142 524.068C286.166 524.116 286.19 524.224 286.286 524.188C286.382 524.152 286.322 524.032 286.274 523.924C286.178 523.684 286.166 523.54 286.166 523.3V522.856H287.126V528.448C287.126 530.512 286.01 531.4 284.282 531.4C282.47 531.4 281.666 530.548 281.558 529.384H282.518C282.602 529.936 282.95 530.584 284.27 530.584C285.53 530.584 286.166 529.852 286.166 528.448C286.166 528.184 286.178 528.04 286.274 527.812C286.346 527.632 286.37 527.572 286.286 527.536C286.202 527.5 286.166 527.608 286.142 527.668C285.746 528.496 285.038 529 284.078 529C282.482 529 281.366 527.716 281.366 525.88ZM284.246 528.136C285.386 528.136 286.166 527.152 286.166 525.88C286.166 524.608 285.386 523.624 284.246 523.624C282.998 523.624 282.326 524.608 282.326 525.88C282.326 527.152 282.998 528.136 284.246 528.136ZM297.69 520.552V521.416H293.178V524.344H296.922V525.208H293.178V528.136H297.69V529H292.122V520.552H297.69ZM299.996 520.36V529H299.036V520.36H299.996ZM306.528 525.748C306.528 525.916 306.516 526.06 306.504 526.168H301.896C301.944 527.248 302.664 528.232 303.888 528.232C304.764 528.232 305.196 527.68 305.412 526.984H306.42C306.204 528.004 305.364 529.096 303.852 529.096C301.98 529.096 300.96 527.62 300.96 525.928C300.96 524.044 302.124 522.76 303.828 522.76C305.148 522.76 306.528 523.636 306.528 525.748ZM303.9 523.576C302.592 523.576 302.076 524.392 301.944 525.4H305.568C305.484 524.272 304.86 523.576 303.9 523.576ZM313.761 522.76C314.817 522.76 315.753 523.36 315.753 525.16V529H314.793V525.016C314.793 524.056 314.253 523.576 313.509 523.576C312.729 523.576 312.105 524.44 312.105 525.472V529H311.145V525.16C311.145 524.2 310.761 523.576 309.969 523.576C309.297 523.576 308.457 524.44 308.457 525.616V529H307.497V522.856H308.457V523.3C308.457 523.54 308.421 523.72 308.337 523.936C308.301 524.032 308.277 524.128 308.349 524.152C308.421 524.176 308.469 524.104 308.481 524.068C308.829 523.312 309.465 522.76 310.305 522.76C311.061 522.76 311.625 523.204 311.853 524.02C311.865 524.08 311.901 524.116 311.973 524.116C312.057 524.116 312.069 524.08 312.093 524.032C312.381 523.324 313.005 522.76 313.761 522.76ZM322.278 525.748C322.278 525.916 322.266 526.06 322.254 526.168H317.646C317.694 527.248 318.414 528.232 319.638 528.232C320.514 528.232 320.946 527.68 321.162 526.984H322.17C321.954 528.004 321.114 529.096 319.602 529.096C317.73 529.096 316.71 527.62 316.71 525.928C316.71 524.044 317.874 522.76 319.578 522.76C320.898 522.76 322.278 523.636 322.278 525.748ZM319.65 523.576C318.342 523.576 317.826 524.392 317.694 525.4H321.318C321.234 524.272 320.61 523.576 319.65 523.576ZM326.343 522.76C327.759 522.76 328.623 523.552 328.623 525.352V529H327.663V525.4C327.663 523.972 327.015 523.576 326.163 523.576C325.227 523.576 324.207 524.476 324.207 525.94V529H323.247V522.856H324.207V523.372C324.207 523.588 324.171 523.78 324.087 524.032C324.051 524.128 323.991 524.236 324.087 524.272C324.159 524.296 324.207 524.224 324.219 524.188C324.471 523.588 325.239 522.76 326.343 522.76ZM333.132 522.856V523.672H331.404V527.272C331.404 527.968 331.548 528.184 332.22 528.184H333.132V529H332.22C330.948 529 330.444 528.628 330.444 527.2V523.672H329.292V522.856H330.444V521.128H331.404V522.856H333.132Z" fill="#0D1632"/>
<path d="M287 458V461" stroke="#0069D5" stroke-width="1.5" stroke-miterlimit="10" stroke-linecap="round" stroke-linejoin="round"/>
<path d="M295 458V461" stroke="#0069D5" stroke-width="1.5" stroke-miterlimit="10" stroke-linecap="round" stroke-linejoin="round"/>
<path d="M282.5 465.09H299.5" stroke="#0069D5" stroke-width="1.5" stroke-miterlimit="10" stroke-linecap="round" stroke-linejoin="round"/>
<path d="M300 464.5V473C300 476 298.5 478 295 478H287C283.5 478 282 476 282 473V464.5C282 461.5 283.5 459.5 287 459.5H295C298.5 459.5 300 461.5 300 464.5Z" stroke="#0069D5" stroke-width="1.5" stroke-miterlimit="10" stroke-linecap="round" stroke-linejoin="round"/>
<path d="M294.694 469.7H294.703" stroke="#0069D5" stroke-width="2" stroke-linecap="round" stroke-linejoin="round"/>
<path d="M294.694 472.7H294.703" stroke="#0069D5" stroke-width="2" stroke-linecap="round" stroke-linejoin="round"/>
<path d="M290.995 469.7H291.003" stroke="#0069D5" stroke-width="2" stroke-linecap="round" stroke-linejoin="round"/>
<path d="M290.995 472.7H291.003" stroke="#0069D5" stroke-width="2" stroke-linecap="round" stroke-linejoin="round"/>
<path d="M287.295 469.7H287.304" stroke="#0069D5" stroke-width="2" stroke-linecap="round" stroke-linejoin="round"/>
<path d="M287.295 472.7H287.304" stroke="#0069D5" stroke-width="2" stroke-linecap="round" stroke-linejoin="round"/>
<rect x="230.25" y="294.25" width="121.5" height="121.5" rx="11.75" fill="#F9F9F6"/>
<rect x="230.25" y="294.25" width="121.5" height="121.5" rx="11.75" stroke="white" stroke-width="0.5" stroke-linecap="round" stroke-linejoin="round"/>
<rect x="230.25" y="156.25" width="121.5" height="121.5" rx="15.75" fill="white"/>
<rect x="230.25" y="156.25" width="121.5" height="121.5" rx="15.75" stroke="#DFDFDF" stroke-width="0.5" stroke-linecap="round" stroke-linejoin="round"/>
<path d="M282.65 219.144V220.152H277.386V223.568H281.754V224.576H277.386V227.992H282.65V229H276.154V219.144H282.65ZM291.528 221.72C292.76 221.72 293.852 222.42 293.852 224.52V229H292.732V224.352C292.732 223.232 292.102 222.672 291.234 222.672C290.324 222.672 289.596 223.68 289.596 224.884V229H288.476V224.52C288.476 223.4 288.028 222.672 287.104 222.672C286.32 222.672 285.34 223.68 285.34 225.052V229H284.22V221.832H285.34V222.35C285.34 222.63 285.298 222.84 285.2 223.092C285.158 223.204 285.13 223.316 285.214 223.344C285.298 223.372 285.354 223.288 285.368 223.246C285.774 222.364 286.516 221.72 287.496 221.72C288.378 221.72 289.036 222.238 289.302 223.19C289.316 223.26 289.358 223.302 289.442 223.302C289.54 223.302 289.554 223.26 289.582 223.204C289.918 222.378 290.646 221.72 291.528 221.72ZM294.969 226.998C294.969 225.416 296.229 224.926 297.489 224.814C298.805 224.702 300.135 224.814 300.121 224.016C300.107 223.456 299.827 222.672 298.189 222.672C296.929 222.672 296.383 223.316 296.285 223.96H295.193C295.445 222.378 296.761 221.72 298.301 221.72C299.911 221.72 301.241 222.28 301.241 224.912V229H300.121V228.202C300.121 227.922 300.163 227.712 300.261 227.418C300.303 227.306 300.345 227.18 300.233 227.152C300.163 227.138 300.121 227.194 300.093 227.278C299.715 228.412 298.637 229.112 297.321 229.112C296.047 229.112 294.969 228.23 294.969 226.998ZM300.121 224.996C299.701 225.486 298.609 225.542 297.517 225.724C296.649 225.864 296.089 226.186 296.089 226.928C296.089 227.614 296.621 228.272 297.783 228.16C299.127 228.034 300.107 226.984 300.121 224.996ZM302.867 220.376V218.92H304.099V220.376H302.867ZM302.923 221.832H304.043V229H302.923V221.832ZM306.846 218.92V229H305.726V218.92H306.846Z" fill="#0D1632"/>
<path opacity="0.5" d="M258.081 253H256.881L256.149 250.888H252.141L251.409 253H250.209L253.281 244.552H255.009L258.081 253ZM253.941 245.728L252.441 250.024H255.849L254.349 245.728C254.301 245.584 254.253 245.44 254.241 245.272C254.241 245.2 254.229 245.128 254.145 245.128C254.061 245.128 254.049 245.2 254.049 245.272C254.037 245.44 253.989 245.584 253.941 245.728ZM260.846 253.096C259.43 253.096 258.566 252.304 258.566 250.504V246.856H259.526V250.456C259.526 251.884 260.174 252.28 261.026 252.28C261.962 252.28 262.982 251.38 262.982 249.916V246.856H263.942V253H262.982V252.484C262.982 252.268 263.006 252.076 263.102 251.824C263.138 251.728 263.198 251.62 263.102 251.584C263.03 251.56 262.982 251.632 262.97 251.668C262.766 252.28 261.95 253.096 260.846 253.096ZM268.643 246.856V247.672H266.915V251.272C266.915 251.968 267.059 252.184 267.731 252.184H268.643V253H267.731C266.459 253 265.955 252.628 265.955 251.2V247.672H264.803V246.856H265.955V245.128H266.915V246.856H268.643ZM272.094 246.76C273.894 246.76 274.974 248.188 274.974 249.928C274.974 251.668 273.894 253.096 272.094 253.096C270.294 253.096 269.214 251.668 269.214 249.928C269.214 248.188 270.294 246.76 272.094 246.76ZM272.094 252.232C273.306 252.232 274.014 251.2 274.014 249.928C274.014 248.656 273.306 247.624 272.094 247.624C270.882 247.624 270.174 248.656 270.174 249.928C270.174 251.2 270.882 252.232 272.094 252.232ZM280.638 253H279.582V244.552H285.15V245.416H280.638V248.344H284.382V249.208H280.638V253ZM288.606 246.76C290.406 246.76 291.486 248.188 291.486 249.928C291.486 251.668 290.406 253.096 288.606 253.096C286.806 253.096 285.726 251.668 285.726 249.928C285.726 248.188 286.806 246.76 288.606 246.76ZM288.606 252.232C289.818 252.232 290.526 251.2 290.526 249.928C290.526 248.656 289.818 247.624 288.606 247.624C287.394 247.624 286.686 248.656 286.686 249.928C286.686 251.2 287.394 252.232 288.606 252.232ZM293.434 248.176C293.842 247.18 294.166 246.76 295.714 246.76V247.744C293.926 247.624 293.41 248.26 293.41 249.868V253H292.45V246.856H293.41V247.336C293.41 247.564 293.386 247.768 293.29 248.056C293.254 248.152 293.218 248.26 293.314 248.272C293.386 248.284 293.41 248.236 293.434 248.176ZM297.972 253L296.1 246.856H297.156L298.548 251.992C298.584 252.1 298.596 252.184 298.596 252.256C298.596 252.328 298.596 252.412 298.692 252.412C298.788 252.412 298.788 252.328 298.788 252.256C298.788 252.184 298.8 252.1 298.836 251.992L300.132 246.856H301.284L302.58 251.992C302.616 252.1 302.628 252.184 302.628 252.256C302.628 252.328 302.628 252.412 302.724 252.412C302.82 252.412 302.82 252.328 302.82 252.256C302.82 252.184 302.832 252.1 302.868 251.992L304.26 246.856H305.316L303.444 253H302.004L300.852 248.356C300.816 248.212 300.804 248.056 300.804 247.888C300.804 247.816 300.804 247.732 300.708 247.732C300.612 247.732 300.612 247.816 300.612 247.888C300.612 248.056 300.6 248.212 300.564 248.356L299.412 253H297.972ZM305.601 251.284C305.601 249.928 306.681 249.508 307.761 249.412C308.889 249.316 310.029 249.412 310.017 248.728C310.005 248.248 309.765 247.576 308.361 247.576C307.281 247.576 306.813 248.128 306.729 248.68H305.793C306.009 247.324 307.137 246.76 308.457 246.76C309.837 246.76 310.977 247.24 310.977 249.496V253H310.017V252.316C310.017 252.076 310.053 251.896 310.137 251.644C310.173 251.548 310.209 251.44 310.113 251.416C310.053 251.404 310.017 251.452 309.993 251.524C309.669 252.496 308.745 253.096 307.617 253.096C306.525 253.096 305.601 252.34 305.601 251.284ZM310.017 249.568C309.657 249.988 308.721 250.036 307.785 250.192C307.041 250.312 306.561 250.588 306.561 251.224C306.561 251.812 307.017 252.376 308.013 252.28C309.165 252.172 310.005 251.272 310.017 249.568ZM313.309 248.176C313.717 247.18 314.041 246.76 315.589 246.76V247.744C313.801 247.624 313.285 248.26 313.285 249.868V253H312.325V246.856H313.285V247.336C313.285 247.564 313.261 247.768 313.165 248.056C313.129 248.152 313.093 248.26 313.189 248.272C313.261 248.284 313.285 248.236 313.309 248.176ZM320.678 247.336V244.36H321.638V253H320.678V252.472C320.678 252.268 320.702 252.1 320.798 251.836C320.834 251.74 320.87 251.644 320.798 251.608C320.714 251.572 320.666 251.668 320.654 251.704C320.366 252.568 319.55 253.096 318.59 253.096C316.994 253.096 315.878 251.752 315.878 249.928C315.878 248.104 316.994 246.76 318.59 246.76C319.574 246.76 320.378 247.3 320.654 248.128C320.666 248.164 320.714 248.272 320.786 248.248C320.894 248.212 320.822 248.104 320.786 247.996C320.702 247.756 320.678 247.552 320.678 247.336ZM318.734 252.232C319.874 252.232 320.678 251.176 320.678 249.928C320.678 248.68 319.874 247.624 318.734 247.624C317.486 247.624 316.838 248.68 316.838 249.928C316.838 251.176 317.486 252.232 318.734 252.232ZM328.173 249.748C328.173 249.916 328.161 250.06 328.149 250.168H323.541C323.589 251.248 324.309 252.232 325.533 252.232C326.409 252.232 326.841 251.68 327.057 250.984H328.065C327.849 252.004 327.009 253.096 325.497 253.096C323.625 253.096 322.605 251.62 322.605 249.928C322.605 248.044 323.769 246.76 325.473 246.76C326.793 246.76 328.173 247.636 328.173 249.748ZM325.545 247.576C324.237 247.576 323.721 248.392 323.589 249.4H327.213C327.129 248.272 326.505 247.576 325.545 247.576ZM330.125 248.176C330.533 247.18 330.857 246.76 332.405 246.76V247.744C330.617 247.624 330.101 248.26 330.101 249.868V253H329.141V246.856H330.101V247.336C330.101 247.564 330.077 247.768 329.981 248.056C329.945 248.152 329.909 248.26 330.005 248.272C330.077 248.284 330.101 248.236 330.125 248.176Z" fill="#0D1632"/>
<path d="M281 188.5C281 185 283 183.5 286 183.5H296C299 183.5 301 185 301 188.5V195.5C301 199 299 200.5 296 200.5H286" stroke="#0069D5" stroke-width="1.5" stroke-miterlimit="10" stroke-linecap="round" stroke-linejoin="round"/>
<path d="M296 189L292.87 191.5C291.84 192.32 290.15 192.32 289.12 191.5L286 189" stroke="#0069D5" stroke-width="1.5" stroke-miterlimit="10" stroke-linecap="round" stroke-linejoin="round"/>
<path d="M281 196.5H287" stroke="#0069D5" stroke-width="1.5" stroke-miterlimit="10" stroke-linecap="round" stroke-linejoin="round"/>
<path d="M281 192.5H284" stroke="#0069D5" stroke-width="1.5" stroke-miterlimit="10" stroke-linecap="round" stroke-linejoin="round"/>
<g clip-path="url(#clip1_127_2615)">
<rect x="400" y="68" width="421" height="507" rx="24" fill="#FEFEFE"/>
<g opacity="0.5">
<mask id="mask0_127_2615" style="mask-type:alpha" maskUnits="userSpaceOnUse" x="198" y="-103" width="800" height="784">
<rect opacity="0.7" x="198" y="-103" width="800" height="784" rx="10" fill="#D9D9D9"/>
</mask>
<g mask="url(#mask0_127_2615)">
<line x1="406.5" y1="-102.5" x2="406.5" y2="680.5" stroke="#B9B9B9" stroke-linecap="round" stroke-dasharray="0.05 8"/>
<line x1="414.5" y1="-102.5" x2="414.5" y2="680.5" stroke="#B9B9B9" stroke-linecap="round" stroke-dasharray="0.05 8"/>
<line x1="422.5" y1="-102.5" x2="422.5" y2="680.5" stroke="#B9B9B9" stroke-linecap="round" stroke-dasharray="0.05 8"/>
<line x1="430.5" y1="-102.5" x2="430.5" y2="680.5" stroke="#B9B9B9" stroke-linecap="round" stroke-dasharray="0.05 8"/>
<line x1="438.5" y1="-102.5" x2="438.5" y2="680.5" stroke="#B9B9B9" stroke-linecap="round" stroke-dasharray="0.05 8"/>
<line x1="446.5" y1="-102.5" x2="446.5" y2="680.5" stroke="#B9B9B9" stroke-linecap="round" stroke-dasharray="0.05 8"/>
<line x1="454.5" y1="-102.5" x2="454.5" y2="680.5" stroke="#B9B9B9" stroke-linecap="round" stroke-dasharray="0.05 8"/>
<line x1="462.5" y1="-102.5" x2="462.5" y2="680.5" stroke="#B9B9B9" stroke-linecap="round" stroke-dasharray="0.05 8"/>
<line x1="470.5" y1="-102.5" x2="470.5" y2="680.5" stroke="#B9B9B9" stroke-linecap="round" stroke-dasharray="0.05 8"/>
<line x1="478.5" y1="-102.5" x2="478.5" y2="680.5" stroke="#B9B9B9" stroke-linecap="round" stroke-dasharray="0.05 8"/>
<line x1="486.5" y1="-102.5" x2="486.5" y2="680.5" stroke="#B9B9B9" stroke-linecap="round" stroke-dasharray="0.05 8"/>
<line x1="494.5" y1="-102.5" x2="494.5" y2="680.5" stroke="#B9B9B9" stroke-linecap="round" stroke-dasharray="0.05 8"/>
<line x1="502.5" y1="-102.5" x2="502.5" y2="680.5" stroke="#B9B9B9" stroke-linecap="round" stroke-dasharray="0.05 8"/>
<line x1="510.5" y1="-102.5" x2="510.5" y2="680.5" stroke="#B9B9B9" stroke-linecap="round" stroke-dasharray="0.05 8"/>
<line x1="518.5" y1="-102.5" x2="518.5" y2="680.5" stroke="#B9B9B9" stroke-linecap="round" stroke-dasharray="0.05 8"/>
<line x1="526.5" y1="-102.5" x2="526.5" y2="680.5" stroke="#B9B9B9" stroke-linecap="round" stroke-dasharray="0.05 8"/>
<line x1="534.5" y1="-102.5" x2="534.5" y2="680.5" stroke="#B9B9B9" stroke-linecap="round" stroke-dasharray="0.05 8"/>
<line x1="542.5" y1="-102.5" x2="542.5" y2="680.5" stroke="#B9B9B9" stroke-linecap="round" stroke-dasharray="0.05 8"/>
<line x1="550.5" y1="-102.5" x2="550.5" y2="680.5" stroke="#B9B9B9" stroke-linecap="round" stroke-dasharray="0.05 8"/>
<line x1="558.5" y1="-102.5" x2="558.5" y2="680.5" stroke="#B9B9B9" stroke-linecap="round" stroke-dasharray="0.05 8"/>
<line x1="566.5" y1="-102.5" x2="566.5" y2="680.5" stroke="#B9B9B9" stroke-linecap="round" stroke-dasharray="0.05 8"/>
<line x1="574.5" y1="-102.5" x2="574.5" y2="680.5" stroke="#B9B9B9" stroke-linecap="round" stroke-dasharray="0.05 8"/>
<line x1="582.5" y1="-102.5" x2="582.5" y2="680.5" stroke="#B9B9B9" stroke-linecap="round" stroke-dasharray="0.05 8"/>
<line x1="590.5" y1="-102.5" x2="590.5" y2="680.5" stroke="#B9B9B9" stroke-linecap="round" stroke-dasharray="0.05 8"/>
<line x1="598.5" y1="-102.5" x2="598.5" y2="680.5" stroke="#B9B9B9" stroke-linecap="round" stroke-dasharray="0.05 8"/>
<line x1="606.5" y1="-102.5" x2="606.5" y2="680.5" stroke="#B9B9B9" stroke-linecap="round" stroke-dasharray="0.05 8"/>
<line x1="614.5" y1="-102.5" x2="614.5" y2="680.5" stroke="#B9B9B9" stroke-linecap="round" stroke-dasharray="0.05 8"/>
<line x1="622.5" y1="-102.5" x2="622.5" y2="680.5" stroke="#B9B9B9" stroke-linecap="round" stroke-dasharray="0.05 8"/>
<line x1="630.5" y1="-102.5" x2="630.5" y2="680.5" stroke="#B9B9B9" stroke-linecap="round" stroke-dasharray="0.05 8"/>
<line x1="638.5" y1="-102.5" x2="638.5" y2="680.5" stroke="#B9B9B9" stroke-linecap="round" stroke-dasharray="0.05 8"/>
<line x1="646.5" y1="-102.5" x2="646.5" y2="680.5" stroke="#B9B9B9" stroke-linecap="round" stroke-dasharray="0.05 8"/>
<line x1="654.5" y1="-102.5" x2="654.5" y2="680.5" stroke="#B9B9B9" stroke-linecap="round" stroke-dasharray="0.05 8"/>
<line x1="662.5" y1="-102.5" x2="662.5" y2="680.5" stroke="#B9B9B9" stroke-linecap="round" stroke-dasharray="0.05 8"/>
<line x1="670.5" y1="-102.5" x2="670.5" y2="680.5" stroke="#B9B9B9" stroke-linecap="round" stroke-dasharray="0.05 8"/>
<line x1="678.5" y1="-102.5" x2="678.5" y2="680.5" stroke="#B9B9B9" stroke-linecap="round" stroke-dasharray="0.05 8"/>
<line x1="686.5" y1="-102.5" x2="686.5" y2="680.5" stroke="#B9B9B9" stroke-linecap="round" stroke-dasharray="0.05 8"/>
<line x1="694.5" y1="-102.5" x2="694.5" y2="680.5" stroke="#B9B9B9" stroke-linecap="round" stroke-dasharray="0.05 8"/>
<line x1="702.5" y1="-102.5" x2="702.5" y2="680.5" stroke="#B9B9B9" stroke-linecap="round" stroke-dasharray="0.05 8"/>
<line x1="710.5" y1="-102.5" x2="710.5" y2="680.5" stroke="#B9B9B9" stroke-linecap="round" stroke-dasharray="0.05 8"/>
<line x1="718.5" y1="-102.5" x2="718.5" y2="680.5" stroke="#B9B9B9" stroke-linecap="round" stroke-dasharray="0.05 8"/>
<line x1="726.5" y1="-102.5" x2="726.5" y2="680.5" stroke="#B9B9B9" stroke-linecap="round" stroke-dasharray="0.05 8"/>
<line x1="734.5" y1="-102.5" x2="734.5" y2="680.5" stroke="#B9B9B9" stroke-linecap="round" stroke-dasharray="0.05 8"/>
<line x1="742.5" y1="-102.5" x2="742.5" y2="680.5" stroke="#B9B9B9" stroke-linecap="round" stroke-dasharray="0.05 8"/>
<line x1="750.5" y1="-102.5" x2="750.5" y2="680.5" stroke="#B9B9B9" stroke-linecap="round" stroke-dasharray="0.05 8"/>
<line x1="758.5" y1="-102.5" x2="758.5" y2="680.5" stroke="#B9B9B9" stroke-linecap="round" stroke-dasharray="0.05 8"/>
<line x1="766.5" y1="-102.5" x2="766.5" y2="680.5" stroke="#B9B9B9" stroke-linecap="round" stroke-dasharray="0.05 8"/>
</g>
</g>
<g filter="url(#filter1_d_127_2615)">
<rect x="428" y="96" width="273" height="38" rx="19" fill="#FDFDFD" shape-rendering="crispEdges"/>
<rect x="428.25" y="96.25" width="272.5" height="37.5" rx="18.75" stroke="#DFDFDF" stroke-width="0.5" shape-rendering="crispEdges"/>
<rect x="435" y="103" width="81" height="24" rx="12" fill="#1B2433"/>
<path d="M462.292 114.488C462.22 114.512 462.184 114.536 462.184 114.608C462.184 114.692 462.244 114.704 462.304 114.716C463.468 114.86 464.104 115.736 464.104 116.6C464.104 117.992 463.288 119 461.56 119H457.768V110.552H461.008C462.76 110.552 463.72 111.236 463.72 112.748C463.72 113.528 463.12 114.272 462.292 114.488ZM461.248 111.416H458.824V114.248H461.02C462.064 114.248 462.664 113.516 462.664 112.724C462.664 112.016 462.268 111.416 461.248 111.416ZM458.824 118.136H461.488C462.484 118.136 463.048 117.476 463.048 116.624C463.048 115.808 462.436 115.112 461.284 115.112H458.824V118.136ZM467.438 119.096C466.022 119.096 465.158 118.304 465.158 116.504V112.856H466.118V116.456C466.118 117.884 466.766 118.28 467.618 118.28C468.554 118.28 469.574 117.38 469.574 115.916V112.856H470.534V119H469.574V118.484C469.574 118.268 469.598 118.076 469.694 117.824C469.73 117.728 469.79 117.62 469.694 117.584C469.622 117.56 469.574 117.632 469.562 117.668C469.358 118.28 468.542 119.096 467.438 119.096ZM471.923 111.608V110.36H472.979V111.608H471.923ZM471.971 112.856H472.931V119H471.971V112.856ZM475.333 110.36V119H474.373V110.36H475.333ZM481.192 113.336V110.36H482.152V119H481.192V118.472C481.192 118.268 481.216 118.1 481.312 117.836C481.348 117.74 481.384 117.644 481.312 117.608C481.228 117.572 481.18 117.668 481.168 117.704C480.88 118.568 480.064 119.096 479.104 119.096C477.508 119.096 476.392 117.752 476.392 115.928C476.392 114.104 477.508 112.76 479.104 112.76C480.088 112.76 480.892 113.3 481.168 114.128C481.18 114.164 481.228 114.272 481.3 114.248C481.408 114.212 481.336 114.104 481.3 113.996C481.216 113.756 481.192 113.552 481.192 113.336ZM479.248 118.232C480.388 118.232 481.192 117.176 481.192 115.928C481.192 114.68 480.388 113.624 479.248 113.624C478 113.624 477.352 114.68 477.352 115.928C477.352 117.176 478 118.232 479.248 118.232ZM488.686 115.748C488.686 115.916 488.674 116.06 488.662 116.168H484.054C484.102 117.248 484.822 118.232 486.046 118.232C486.922 118.232 487.354 117.68 487.57 116.984H488.578C488.362 118.004 487.522 119.096 486.01 119.096C484.138 119.096 483.118 117.62 483.118 115.928C483.118 114.044 484.282 112.76 485.986 112.76C487.306 112.76 488.686 113.636 488.686 115.748ZM486.058 113.576C484.75 113.576 484.234 114.392 484.102 115.4H487.726C487.642 114.272 487.018 113.576 486.058 113.576ZM490.639 114.176C491.047 113.18 491.371 112.76 492.919 112.76V113.744C491.131 113.624 490.615 114.26 490.615 115.868V119H489.655V112.856H490.615V113.336C490.615 113.564 490.591 113.768 490.495 114.056C490.459 114.152 490.423 114.26 490.519 114.272C490.591 114.284 490.615 114.236 490.639 114.176Z" fill="white"/>
<rect x="524" y="103" width="81" height="24" rx="12" fill="#FDFDFD"/>
<path d="M542.304 119L540.192 110.552H541.344L543 117.788C543.036 117.932 543.048 118.076 543.048 118.256C543.048 118.328 543.072 118.376 543.144 118.376C543.204 118.376 543.24 118.328 543.24 118.256C543.24 118.076 543.252 117.932 543.288 117.788L544.944 110.552H546L547.656 117.788C547.692 117.932 547.704 118.076 547.704 118.256C547.704 118.328 547.74 118.376 547.8 118.376C547.872 118.376 547.896 118.328 547.896 118.256C547.896 118.076 547.908 117.932 547.944 117.788L549.6 110.552H550.752L548.64 119H547.008L545.616 112.736C545.58 112.592 545.568 112.412 545.568 112.184C545.568 112.112 545.544 112.064 545.472 112.064C545.4 112.064 545.376 112.112 545.376 112.184C545.376 112.412 545.364 112.592 545.328 112.736L543.936 119H542.304ZM553.436 112.76C555.236 112.76 556.316 114.188 556.316 115.928C556.316 117.668 555.236 119.096 553.436 119.096C551.636 119.096 550.556 117.668 550.556 115.928C550.556 114.188 551.636 112.76 553.436 112.76ZM553.436 118.232C554.648 118.232 555.356 117.2 555.356 115.928C555.356 114.656 554.648 113.624 553.436 113.624C552.224 113.624 551.516 114.656 551.516 115.928C551.516 117.2 552.224 118.232 553.436 118.232ZM558.264 114.176C558.672 113.18 558.996 112.76 560.544 112.76V113.744C558.756 113.624 558.24 114.26 558.24 115.868V119H557.28V112.856H558.24V113.336C558.24 113.564 558.216 113.768 558.12 114.056C558.084 114.152 558.048 114.26 558.144 114.272C558.216 114.284 558.24 114.236 558.264 114.176ZM563.778 115.412L566.694 119H565.494L563.142 116L562.47 116.636V119H561.51V110.36H562.47V114.848C562.47 115.16 562.41 115.364 562.23 115.604C562.182 115.664 562.134 115.736 562.206 115.784C562.266 115.832 562.314 115.772 562.362 115.724L565.23 112.856H566.502L563.778 115.412ZM569.623 111.176C568.951 111.176 568.807 111.392 568.807 112.088V112.856H570.535V113.672H568.807V119H567.847V113.672H566.887V112.856H567.847V112.16C567.847 110.732 568.351 110.36 569.623 110.36H570.535V111.176H569.623ZM572.548 110.36V119H571.588V110.36H572.548ZM576.393 112.76C578.193 112.76 579.273 114.188 579.273 115.928C579.273 117.668 578.193 119.096 576.393 119.096C574.593 119.096 573.513 117.668 573.513 115.928C573.513 114.188 574.593 112.76 576.393 112.76ZM576.393 118.232C577.605 118.232 578.313 117.2 578.313 115.928C578.313 114.656 577.605 113.624 576.393 113.624C575.181 113.624 574.473 114.656 574.473 115.928C574.473 117.2 575.181 118.232 576.393 118.232ZM581.341 119L579.469 112.856H580.525L581.917 117.992C581.953 118.1 581.965 118.184 581.965 118.256C581.965 118.328 581.965 118.412 582.061 118.412C582.157 118.412 582.157 118.328 582.157 118.256C582.157 118.184 582.169 118.1 582.205 117.992L583.501 112.856H584.653L585.949 117.992C585.985 118.1 585.997 118.184 585.997 118.256C585.997 118.328 585.997 118.412 586.093 118.412C586.189 118.412 586.189 118.328 586.189 118.256C586.189 118.184 586.201 118.1 586.237 117.992L587.629 112.856H588.685L586.813 119H585.373L584.221 114.356C584.185 114.212 584.173 114.056 584.173 113.888C584.173 113.816 584.173 113.732 584.077 113.732C583.981 113.732 583.981 113.816 583.981 113.888C583.981 114.056 583.969 114.212 583.933 114.356L582.781 119H581.341Z" fill="#1B2433"/>
<rect x="613" y="103" width="81" height="24" rx="12" fill="#FDFDFD"/>
<path d="M634.976 119L632 110.552H633.2L635.66 117.872C635.708 118.004 635.732 118.136 635.744 118.28C635.744 118.352 635.768 118.4 635.84 118.4C635.912 118.4 635.936 118.352 635.936 118.28C635.948 118.136 635.972 118.004 636.02 117.872L638.48 110.552H639.68L636.704 119H634.976ZM640.302 111.608V110.36H641.358V111.608H640.302ZM640.35 112.856H641.31V119H640.35V112.856ZM642.368 116.888H643.304C643.316 117.548 643.748 118.28 644.996 118.28C646.22 118.28 646.592 117.668 646.592 117.272C646.592 116.672 646.184 116.456 644.552 116.264C643.232 116.108 642.548 115.46 642.548 114.656C642.548 113.732 643.4 112.76 644.984 112.76C646.484 112.76 647.288 113.624 647.372 114.776H646.424C646.388 114.188 646.076 113.576 644.948 113.576C643.88 113.576 643.508 114.128 643.508 114.536C643.508 114.884 643.616 115.28 645.188 115.472C646.64 115.652 647.552 116.108 647.552 117.092C647.552 118.34 646.532 119.096 644.948 119.096C643.376 119.096 642.428 118.244 642.368 116.888ZM648.564 111.608V110.36H649.62V111.608H648.564ZM648.612 112.856H649.572V119H648.612V112.856ZM651.014 110.36H651.974V113.336C651.974 113.552 651.95 113.756 651.866 113.996C651.83 114.104 651.758 114.212 651.866 114.248C651.938 114.272 651.986 114.164 651.998 114.128C652.358 113.336 653.078 112.76 654.062 112.76C655.658 112.76 656.774 114.104 656.774 115.928C656.774 117.752 655.658 119.096 654.062 119.096C653.102 119.096 652.37 118.532 651.998 117.704C651.986 117.668 651.938 117.572 651.854 117.608C651.782 117.644 651.818 117.74 651.854 117.836C651.95 118.1 651.974 118.268 651.974 118.472V119H651.014V110.36ZM653.918 118.232C655.166 118.232 655.814 117.176 655.814 115.928C655.814 114.68 655.166 113.624 653.918 113.624C652.778 113.624 651.974 114.68 651.974 115.928C651.974 117.176 652.778 118.232 653.918 118.232ZM657.786 111.608V110.36H658.842V111.608H657.786ZM657.834 112.856H658.794V119H657.834V112.856ZM661.197 110.36V119H660.237V110.36H661.197ZM662.591 111.608V110.36H663.647V111.608H662.591ZM662.639 112.856H663.599V119H662.639V112.856ZM668.212 112.856V113.672H666.484V117.272C666.484 117.968 666.628 118.184 667.3 118.184H668.212V119H667.3C666.028 119 665.524 118.628 665.524 117.2V113.672H664.372V112.856H665.524V111.128H666.484V112.856H668.212ZM671.353 119.276L668.785 112.856H669.841L671.653 117.692C671.701 117.836 671.737 117.98 671.737 118.16C671.737 118.232 671.749 118.316 671.833 118.316C671.917 118.316 671.929 118.232 671.929 118.16C671.929 117.98 671.965 117.848 672.013 117.704L673.681 112.856H674.737L672.169 119.732C671.749 120.872 671.185 121.304 670.081 121.304H669.337V120.44H669.985C670.897 120.44 671.089 120.068 671.245 119.6L671.353 119.276Z" fill="#1B2433"/>
</g>
<g filter="url(#filter2_d_127_2615)">
<rect x="428" y="158" width="399" height="90" rx="12" fill="#FDFDFD"/>
<rect x="428.25" y="158.25" width="398.5" height="89.5" rx="11.75" stroke="#DFDFDF" stroke-width="0.5" stroke-dasharray="5 5"/>
</g>
<g filter="url(#filter3_d_127_2615)">
<path d="M428 284C428 277.373 433.373 272 440 272H815C821.627 272 827 277.373 827 284V464C827 470.627 821.627 476 815 476H440C433.373 476 428 470.627 428 464V284Z" fill="#F9F9F6"/>
<path d="M812.533 272V272.5H815C815.769 272.5 816.519 272.575 817.245 272.719L817.341 272.229C818.915 272.54 820.378 273.16 821.666 274.021L821.39 274.437C822.644 275.276 823.724 276.356 824.563 277.61L824.978 277.333C825.84 278.621 826.459 280.084 826.771 281.658L826.281 281.755C826.425 282.481 826.5 283.231 826.5 284V286.5H827V291.5H826.5V296.5H827V301.5H826.5V306.5H827V311.5H826.5V316.5H827V321.5H826.5V326.5H827V331.5H826.5V336.5H827V341.5H826.5V346.5H827V351.5H826.5V356.5H827V361.5H826.5V366.5H827V371.5H826.5V376.5H827V381.5H826.5V386.5H827V391.5H826.5V396.5H827V401.5H826.5V406.5H827V411.5H826.5V416.5H827V421.5H826.5V426.5H827V431.5H826.5V436.5H827V441.5H826.5V446.5H827V451.5H826.5V456.5H827V461.5H826.5V464C826.5 464.769 826.425 465.519 826.281 466.245L826.771 466.341C826.459 467.915 825.84 469.378 824.978 470.666L824.563 470.39C823.724 471.644 822.644 472.724 821.39 473.563L821.666 473.978C820.378 474.84 818.915 475.459 817.341 475.771L817.245 475.281C816.519 475.425 815.769 475.5 815 475.5H812.532V476H807.599V475.5H802.664V476H797.729V475.5H792.796V476H787.861V475.5H782.928V476H777.993V475.5H773.059V476H768.125V475.5H763.19V476H758.257V475.5H753.322V476H748.388V475.5H743.454V476H738.52V475.5H733.585V476H728.651V475.5H723.717V476H718.783V475.5H713.849V476H708.914V475.5H703.98V476H699.046V475.5H694.111V476H689.178V475.5H684.243V476H679.309V475.5H674.375V476H669.44V475.5H664.507V476H659.572V475.5H654.638V476H649.704V475.5H644.77V476H639.836V475.5H634.901V476H629.967V475.5H625.033V476H620.099V475.5H615.164V476H610.23V475.5H605.296V476H600.361V475.5H595.428V476H590.493V475.5H585.56V476H580.625V475.5H575.69V476H570.757V475.5H565.822V476H560.888V475.5H555.954V476H551.02V475.5H546.086V476H541.151V475.5H536.217V476H531.283V475.5H526.349V476H521.414V475.5H516.48V476H511.546V475.5H506.612V476H501.678V475.5H496.743V476H491.81V475.5H486.875V476H481.94V475.5H477.007V476H472.072V475.5H467.138V476H462.204V475.5H457.27V476H452.336V475.5H447.401V476H442.467V475.5H440C439.231 475.5 438.481 475.425 437.755 475.281L437.658 475.771C436.084 475.459 434.621 474.84 433.333 473.978L433.61 473.563C432.356 472.724 431.276 471.644 430.437 470.39L430.021 470.666C429.16 469.378 428.54 467.915 428.229 466.341L428.719 466.245C428.575 465.519 428.5 464.769 428.5 464V461.5H428V456.5H428.5V451.5H428V446.5H428.5V441.5H428V436.5H428.5V431.5H428V426.5H428.5V421.5H428V416.5H428.5V411.5H428V406.5H428.5V401.5H428V396.5H428.5V391.5H428V386.5H428.5V381.5H428V376.5H428.5V371.5H428V366.5H428.5V361.5H428V356.5H428.5V351.5H428V346.5H428.5V341.5H428V336.5H428.5V331.5H428V326.5H428.5V321.5H428V316.5H428.5V311.5H428V306.5H428.5V301.5H428V296.5H428.5V291.5H428V286.5H428.5V284C428.5 283.231 428.575 282.481 428.719 281.755L428.229 281.658C428.54 280.084 429.16 278.621 430.021 277.333L430.437 277.61C431.276 276.356 432.356 275.276 433.61 274.437L433.333 274.021C434.621 273.16 436.084 272.54 437.658 272.229L437.755 272.719C438.481 272.575 439.231 272.5 440 272.5H442.468V272H447.401V272.5H452.336V272H457.271V272.5H462.204V272H467.139V272.5H472.072V272H477.007V272.5H481.941V272H486.875V272.5H491.81V272H496.743V272.5H501.678V272H506.612V272.5H511.546V272H516.48V272.5H521.415V272H526.349V272.5H531.283V272H536.217V272.5H541.151V272H546.086V272.5H551.02V272H555.954V272.5H560.889V272H565.822V272.5H570.757V272H575.691V272.5H580.625V272H585.56V272.5H590.493V272H595.428V272.5H600.362V272H605.296V272.5H610.23V272H615.164V272.5H620.099V272H625.033V272.5H629.967V272H634.901V272.5H639.836V272H644.77V272.5H649.704V272H654.639V272.5H659.572V272H664.507V272.5H669.44V272H674.375V272.5H679.31V272H684.243V272.5H689.178V272H694.112V272.5H699.046V272H703.98V272.5H708.914V272H713.849V272.5H718.783V272H723.717V272.5H728.651V272H733.586V272.5H738.52V272H743.454V272.5H748.388V272H753.322V272.5H758.257V272H763.19V272.5H768.125V272H773.06V272.5H777.993V272H782.928V272.5H787.862V272H792.796V272.5H797.73V272H802.664V272.5H807.599V272H812.533Z" stroke="#1B2433" stroke-opacity="0.5" stroke-dasharray="5 5"/>
</g>
<path opacity="0.2" d="M640.867 202.688V195.104H642.979V212H640.867V204.416H632.035V212H629.923V195.104H632.035V202.688H640.867ZM656.416 205.496C656.416 205.832 656.392 206.12 656.368 206.336H647.152C647.248 208.496 648.688 210.464 651.136 210.464C652.888 210.464 653.752 209.36 654.184 207.968H656.2C655.768 210.008 654.088 212.192 651.064 212.192C647.32 212.192 645.28 209.24 645.28 205.856C645.28 202.088 647.608 199.52 651.016 199.52C653.656 199.52 656.416 201.272 656.416 205.496ZM651.16 201.152C648.544 201.152 647.512 202.784 647.248 204.8H654.496C654.328 202.544 653.08 201.152 651.16 201.152ZM657.959 208.568C657.959 205.856 660.119 205.016 662.279 204.824C664.535 204.632 666.815 204.824 666.791 203.456C666.767 202.496 666.287 201.152 663.479 201.152C661.319 201.152 660.383 202.256 660.215 203.36H658.343C658.775 200.648 661.031 199.52 663.671 199.52C666.431 199.52 668.711 200.48 668.711 204.992V212H666.791V210.632C666.791 210.152 666.863 209.792 667.031 209.288C667.103 209.096 667.175 208.88 666.983 208.832C666.863 208.808 666.791 208.904 666.743 209.048C666.095 210.992 664.247 212.192 661.991 212.192C659.807 212.192 657.959 210.68 657.959 208.568ZM666.791 205.136C666.071 205.976 664.199 206.072 662.327 206.384C660.839 206.624 659.879 207.176 659.879 208.448C659.879 209.624 660.791 210.752 662.783 210.56C665.087 210.344 666.767 208.544 666.791 205.136ZM680.427 200.672V194.72H682.347V212H680.427V210.944C680.427 210.536 680.475 210.2 680.667 209.672C680.739 209.48 680.811 209.288 680.667 209.216C680.499 209.144 680.403 209.336 680.379 209.408C679.803 211.136 678.171 212.192 676.251 212.192C673.059 212.192 670.827 209.504 670.827 205.856C670.827 202.208 673.059 199.52 676.251 199.52C678.219 199.52 679.827 200.6 680.379 202.256C680.403 202.328 680.499 202.544 680.643 202.496C680.859 202.424 680.715 202.208 680.643 201.992C680.475 201.512 680.427 201.104 680.427 200.672ZM676.539 210.464C678.819 210.464 680.427 208.352 680.427 205.856C680.427 203.36 678.819 201.248 676.539 201.248C674.043 201.248 672.747 203.36 672.747 205.856C672.747 208.352 674.043 210.464 676.539 210.464ZM685.139 197.216V194.72H687.251V197.216H685.139ZM685.235 199.712H687.155V212H685.235V199.712ZM696.232 199.52C699.064 199.52 700.792 201.104 700.792 204.704V212H698.872V204.8C698.872 201.944 697.576 201.152 695.872 201.152C694 201.152 691.96 202.952 691.96 205.88V212H690.04V199.712H691.96V200.744C691.96 201.176 691.888 201.56 691.72 202.064C691.648 202.256 691.528 202.472 691.72 202.544C691.864 202.592 691.96 202.448 691.984 202.376C692.488 201.176 694.024 199.52 696.232 199.52ZM702.702 205.76C702.702 202.088 704.934 199.52 708.126 199.52C710.094 199.52 711.486 200.576 712.254 202.136C712.302 202.232 712.35 202.448 712.542 202.376C712.734 202.304 712.614 202.064 712.518 201.848C712.326 201.368 712.302 201.08 712.302 200.6V199.712H714.222V210.896C714.222 215.024 711.99 216.8 708.534 216.8C704.91 216.8 703.302 215.096 703.086 212.768H705.006C705.174 213.872 705.87 215.168 708.51 215.168C711.03 215.168 712.302 213.704 712.302 210.896C712.302 210.368 712.326 210.08 712.518 209.624C712.662 209.264 712.71 209.144 712.542 209.072C712.374 209 712.302 209.216 712.254 209.336C711.462 210.992 710.046 212 708.126 212C704.934 212 702.702 209.432 702.702 205.76ZM708.462 210.272C710.742 210.272 712.302 208.304 712.302 205.76C712.302 203.216 710.742 201.248 708.462 201.248C705.966 201.248 704.622 203.216 704.622 205.76C704.622 208.304 705.966 210.272 708.462 210.272ZM730.188 202.424C733.716 202.904 736.5 203.6 736.5 207.152C736.5 209.888 734.22 212.192 729.972 212.192C725.268 212.192 723.444 209.168 723.444 206.048H725.556C725.604 208.064 726.348 210.464 729.972 210.464C733.476 210.464 734.388 208.712 734.388 207.296C734.388 205.808 733.452 204.872 729.948 204.392C726.204 203.888 723.996 202.4 723.996 199.52C723.996 196.88 726.228 194.912 729.996 194.912C734.244 194.912 735.804 197.552 735.876 200.288H733.812C733.812 198.512 732.9 196.64 729.948 196.64C726.924 196.64 726.108 198.176 726.108 199.376C726.108 200.408 726.564 201.92 730.188 202.424ZM749.181 205.496C749.181 205.832 749.157 206.12 749.133 206.336H739.917C740.013 208.496 741.453 210.464 743.901 210.464C745.653 210.464 746.517 209.36 746.949 207.968H748.965C748.533 210.008 746.853 212.192 743.829 212.192C740.085 212.192 738.045 209.24 738.045 205.856C738.045 202.088 740.373 199.52 743.781 199.52C746.421 199.52 749.181 201.272 749.181 205.496ZM743.925 201.152C741.309 201.152 740.277 202.784 740.013 204.8H747.261C747.093 202.544 745.845 201.152 743.925 201.152ZM750.725 205.856C750.725 202.376 752.861 199.52 756.557 199.52C759.773 199.52 761.669 201.776 761.861 204.128H759.989C759.749 202.472 758.597 201.248 756.605 201.248C753.869 201.248 752.645 203.36 752.645 205.856C752.645 208.352 753.869 210.464 756.605 210.464C758.597 210.464 759.749 209.24 759.989 207.584H761.861C761.669 209.936 759.797 212.192 756.557 212.192C752.933 212.192 750.725 209.336 750.725 205.856ZM769.927 199.712V201.344H766.471V208.544C766.471 209.936 766.759 210.368 768.103 210.368H769.927V212H768.103C765.559 212 764.551 211.256 764.551 208.4V201.344H762.247V199.712H764.551V196.256H766.471V199.712H769.927ZM772.327 197.216V194.72H774.439V197.216H772.327ZM772.423 199.712H774.343V212H772.423V199.712ZM782.032 199.52C785.632 199.52 787.792 202.376 787.792 205.856C787.792 209.336 785.632 212.192 782.032 212.192C778.432 212.192 776.272 209.336 776.272 205.856C776.272 202.376 778.432 199.52 782.032 199.52ZM782.032 210.464C784.456 210.464 785.872 208.4 785.872 205.856C785.872 203.312 784.456 201.248 782.032 201.248C779.608 201.248 778.192 203.312 778.192 205.856C778.192 208.4 779.608 210.464 782.032 210.464ZM795.912 199.52C798.744 199.52 800.472 201.104 800.472 204.704V212H798.552V204.8C798.552 201.944 797.256 201.152 795.552 201.152C793.68 201.152 791.64 202.952 791.64 205.88V212H789.72V199.712H791.64V200.744C791.64 201.176 791.568 201.56 791.4 202.064C791.328 202.256 791.208 202.472 791.4 202.544C791.544 202.592 791.64 202.448 791.664 202.376C792.168 201.176 793.704 199.52 795.912 199.52Z" fill="#0D1632"/>
</g>
<rect x="308.183" y="345.704" width="121" height="121" rx="15.5" transform="rotate(-22.0982 308.183 345.704)" fill="white"/>
<rect x="308.183" y="345.704" width="121" height="121" rx="15.5" transform="rotate(-22.0982 308.183 345.704)" stroke="#1B2433" stroke-linecap="round" stroke-linejoin="round"/>
<path d="M373.014 388.322L372.551 387.18L379.607 384.315L380.071 385.457L377.217 386.615L380.461 394.606L379.112 395.154L375.868 387.163L373.014 388.322ZM382.358 391.675C381.742 390.157 382.668 389.237 383.903 388.63C385.059 388.055 386.323 387.708 386.031 387.026C385.797 386.486 385.265 386.068 383.903 386.621C382.735 387.095 382.512 387.699 382.685 388.384L381.465 388.879C381.083 387.267 381.981 386.131 383.512 385.51C385.004 384.904 386.602 384.86 387.593 387.298L389.13 391.086L387.885 391.592L387.627 390.956C387.527 390.709 387.474 390.504 387.454 390.12C387.438 390.005 387.442 389.868 387.335 389.866C387.216 389.869 387.232 389.983 387.232 390.058C387.257 391.197 386.643 392.217 385.437 392.707C384.179 393.217 382.817 392.803 382.358 391.675ZM386.432 388.011C386.23 388.668 385.34 389.044 384.386 389.597C383.629 390.041 383.33 390.495 383.577 391.104C383.793 391.636 384.435 391.95 385.453 391.37C386.412 390.83 387.098 389.69 386.432 388.011ZM386.892 381.116L388.137 380.61L389.443 383.827C389.543 384.073 389.583 384.284 389.603 384.593C389.606 384.713 389.581 384.874 389.714 384.866C389.833 384.862 389.82 384.717 389.817 384.673C389.858 383.658 390.384 382.72 391.447 382.288C393.173 381.588 394.969 382.551 395.769 384.522C396.57 386.494 395.954 388.436 394.228 389.137C393.191 389.558 392.152 389.27 391.386 388.538C391.358 388.504 391.276 388.417 391.209 388.474C391.095 388.566 391.208 388.656 391.289 388.744C391.495 388.993 391.608 389.158 391.703 389.392L391.929 389.95L390.684 390.455L386.892 381.116ZM393.505 388.101C394.803 387.574 395.025 386.26 394.524 385.028C394.024 383.796 392.949 383.008 391.652 383.535C390.471 384.014 390.081 385.397 390.581 386.629C391.081 387.861 392.325 388.58 393.505 388.101ZM395.712 377.534L399.504 386.874L398.259 387.38L394.467 378.04L395.712 377.534ZM405.383 380.513C405.457 380.695 405.497 380.83 405.529 380.983L400.574 382.995C401.096 384.021 402.17 384.583 403.377 384.093C404.272 383.729 404.534 383.109 404.456 382.249L405.741 381.728C405.969 383.071 405.513 384.555 403.814 385.245C401.726 386.093 399.958 385.013 399.194 383.132C398.383 381.134 399.101 379.181 401.007 378.406C402.486 377.806 404.425 378.152 405.383 380.513ZM400.217 381.931L403.901 380.435C403.428 379.494 402.526 379.059 401.515 379.47C400.269 379.975 400.035 380.962 400.217 381.931Z" fill="#0D1632"/>
<path d="M364.182 418L366.839 416.922C369.708 415.757 371.336 417.246 372.175 419.314C373.015 421.382 372.853 423.598 370.018 424.749L367.36 425.828L364.182 418ZM368.014 424.63L369.77 423.917C371.749 423.113 371.838 421.29 371.197 419.711C370.556 418.132 369.221 416.887 367.242 417.69L365.486 418.404L368.014 424.63ZM373.927 417.955C373.931 416.879 374.073 416.368 375.507 415.785L375.877 416.697C374.176 417.258 373.937 418.042 374.542 419.532L375.72 422.434L374.83 422.795L372.519 417.102L373.409 416.741L373.589 417.186C373.675 417.397 373.729 417.595 373.749 417.898C373.752 418 373.759 418.114 373.852 418.089C373.924 418.073 373.928 418.02 373.927 417.955ZM378.357 414.628C380.025 413.951 381.563 414.868 382.217 416.48C382.872 418.092 382.408 419.822 380.741 420.499C379.073 421.176 377.535 420.259 376.88 418.647C376.226 417.035 376.689 415.305 378.357 414.628ZM380.416 419.698C381.539 419.242 381.806 418.02 381.328 416.841C380.849 415.663 379.805 414.973 378.682 415.429C377.559 415.885 377.291 417.107 377.77 418.286C378.248 419.464 379.293 420.154 380.416 419.698ZM381.955 413.271L382.844 412.91L383.025 413.355C383.106 413.555 383.16 413.753 383.173 414.007C383.18 414.12 383.154 414.248 383.268 414.24C383.343 414.235 383.347 414.117 383.345 414.08C383.38 413.21 383.831 412.406 384.743 412.036C386.221 411.435 387.761 412.261 388.447 413.951C389.133 415.641 388.605 417.306 387.126 417.906C386.237 418.267 385.346 418.02 384.69 417.393C384.665 417.364 384.585 417.293 384.521 417.358C384.467 417.418 384.537 417.494 384.606 417.569C384.795 417.778 384.88 417.924 384.957 418.113L386.022 420.737L385.133 421.099L381.955 413.271ZM386.668 417.16C387.824 416.69 388.027 415.468 387.558 414.312C387.088 413.155 386.091 412.421 384.934 412.89C383.878 413.319 383.53 414.6 384 415.756C384.469 416.913 385.611 417.589 386.668 417.16ZM394.588 408.142L394.895 408.898L393.294 409.548L394.648 412.883C394.91 413.528 395.125 413.674 395.747 413.421L396.592 413.078L396.899 413.834L396.054 414.177C394.876 414.656 394.269 414.501 393.732 413.178L392.405 409.909L391.337 410.342L391.03 409.586L392.098 409.153L391.447 407.552L392.337 407.191L392.987 408.792L394.588 408.142ZM397.749 406.755C399.417 406.077 400.955 406.994 401.609 408.606C402.264 410.219 401.801 411.948 400.133 412.625C398.465 413.302 396.927 412.385 396.273 410.773C395.618 409.161 396.081 407.432 397.749 406.755ZM399.808 411.825C400.931 411.369 401.199 410.146 400.72 408.968C400.241 407.789 399.197 407.099 398.074 407.555C396.951 408.011 396.684 409.234 397.162 410.412C397.641 411.591 398.685 412.281 399.808 411.825ZM404.835 401.494L408.013 409.322L407.035 409.719L403.857 401.892L404.835 401.494ZM409.956 401.798C411.268 401.266 412.366 401.675 413.043 403.342L414.416 406.722L413.526 407.084L412.172 403.748C411.635 402.425 410.885 402.302 410.096 402.622C409.229 402.974 408.622 404.192 409.173 405.548L410.324 408.384L409.435 408.745L407.123 403.052L408.013 402.691L408.207 403.169C408.288 403.369 408.327 403.561 408.344 403.826C408.347 403.928 408.332 404.051 408.434 404.048C408.51 404.043 408.527 403.959 408.525 403.921C408.533 403.27 408.933 402.214 409.956 401.798ZM414.419 404.442L415.286 404.089C415.546 404.696 416.221 405.212 417.378 404.743C418.512 404.282 418.626 403.575 418.477 403.208C418.251 402.652 417.792 402.606 416.208 403.042C414.926 403.394 414.049 403.051 413.746 402.306C413.398 401.45 413.822 400.229 415.29 399.633C416.68 399.068 417.75 399.566 418.261 400.602L417.382 400.959C417.128 400.428 416.609 399.978 415.563 400.402C414.574 400.804 414.437 401.455 414.59 401.834C414.721 402.156 414.97 402.482 416.499 402.069C417.912 401.689 418.929 401.769 419.299 402.68C419.768 403.837 419.108 404.921 417.64 405.517C416.184 406.108 414.985 405.675 414.419 404.442ZM424.665 399.051C424.728 399.207 424.771 399.345 424.801 399.449L420.531 401.183C420.982 402.165 422.019 402.806 423.153 402.346C423.965 402.016 424.158 401.342 424.096 400.616L425.03 400.237C425.213 401.263 424.846 402.591 423.445 403.16C421.71 403.864 420.21 402.88 419.574 401.313C418.865 399.567 419.46 397.939 421.039 397.298C422.262 396.802 423.87 397.094 424.665 399.051ZM421.413 398.027C420.201 398.519 420.03 399.47 420.287 400.453L423.645 399.09C423.142 398.076 422.302 397.666 421.413 398.027ZM425.882 396.86C425.886 395.784 426.028 395.273 427.462 394.69L427.832 395.602C426.131 396.164 425.892 396.947 426.497 398.437L427.675 401.339L426.785 401.7L424.474 396.007L425.364 395.646L425.544 396.091C425.63 396.302 425.684 396.5 425.704 396.803C425.707 396.906 425.714 397.019 425.807 396.994C425.879 396.978 425.883 396.925 425.882 396.86ZM431.592 393.117L431.899 393.873L430.298 394.524L431.652 397.859C431.914 398.504 432.129 398.65 432.751 398.397L433.596 398.054L433.903 398.81L433.058 399.153C431.88 399.632 431.273 399.477 430.735 398.154L429.408 394.885L428.341 395.318L428.034 394.562L429.101 394.129L428.451 392.528L429.341 392.166L429.991 393.767L431.592 393.117Z" fill="#868A98"/>
<path d="M378.576 366.231L384.135 363.973C388.768 362.092 389.869 359.487 387.988 354.854L385.731 349.295C383.85 344.662 381.244 343.562 376.611 345.443L371.052 347.7C366.419 349.581 365.319 352.186 367.2 356.819L369.457 362.378C371.338 367.011 373.943 368.112 378.576 366.231Z" stroke="#1374FE" stroke-width="1.5" stroke-linecap="round" stroke-linejoin="round"/>
<path d="M373.832 346.571L381.356 365.102" stroke="#1374FE" stroke-width="1.5" stroke-linecap="round" stroke-linejoin="round"/>
<path d="M368.328 359.599L386.859 352.075" stroke="#1374FE" stroke-width="1.5" stroke-linecap="round" stroke-linejoin="round"/>
<path d="M422.018 430.121L416.46 432.51" stroke="#292D32" stroke-width="1.5" stroke-linecap="round" stroke-linejoin="round"/>
<path d="M421.238 434.336L423.105 429.655L418.424 427.788" stroke="#292D32" stroke-width="1.5" stroke-linecap="round" stroke-linejoin="round"/>
<path d="M416.861 442.96L414.472 437.401" stroke="#292D32" stroke-width="1.5" stroke-linecap="round" stroke-linejoin="round"/>
<path d="M412.645 442.179L417.326 444.046L419.193 439.364" stroke="#292D32" stroke-width="1.5" stroke-linecap="round" stroke-linejoin="round"/>
<path d="M404.033 437.785L409.591 435.396" stroke="#292D32" stroke-width="1.5" stroke-linecap="round" stroke-linejoin="round"/>
<path d="M404.812 433.569L402.946 438.251L407.627 440.118" stroke="#292D32" stroke-width="1.5" stroke-linecap="round" stroke-linejoin="round"/>
<path d="M409.182 424.945L411.572 430.503" stroke="#292D32" stroke-width="1.5" stroke-linecap="round" stroke-linejoin="round"/>
<path d="M413.398 425.726L408.717 423.859L406.85 428.541" stroke="#292D32" stroke-width="1.5" stroke-linecap="round" stroke-linejoin="round"/>
</g>
<rect x="36.25" y="36.25" width="731.5" height="503.5" rx="23.75" stroke="black" stroke-opacity="0.2" stroke-width="0.5"/>
</g>
<defs>
<filter id="filter0_d_127_2615" x="0" y="0" width="804" height="576" filterUnits="userSpaceOnUse" color-interpolation-filters="sRGB">
<feFlood flood-opacity="0" result="BackgroundImageFix"/>
<feColorMatrix in="SourceAlpha" type="matrix" values="0 0 0 0 0 0 0 0 0 0 0 0 0 0 0 0 0 0 127 0" result="hardAlpha"/>
<feOffset/>
<feGaussianBlur stdDeviation="18"/>
<feComposite in2="hardAlpha" operator="out"/>
<feColorMatrix type="matrix" values="0 0 0 0 0 0 0 0 0 0 0 0 0 0 0 0 0 0 0.05 0"/>
<feBlend mode="normal" in2="BackgroundImageFix" result="effect1_dropShadow_127_2615"/>
<feBlend mode="normal" in="SourceGraphic" in2="effect1_dropShadow_127_2615" result="shape"/>
</filter>
<filter id="filter1_d_127_2615" x="394.804" y="76.9122" width="339.392" height="104.392" filterUnits="userSpaceOnUse" color-interpolation-filters="sRGB">
<feFlood flood-opacity="0" result="BackgroundImageFix"/>
<feColorMatrix in="SourceAlpha" type="matrix" values="0 0 0 0 0 0 0 0 0 0 0 0 0 0 0 0 0 0 127 0" result="hardAlpha"/>
<feOffset dy="14.1083"/>
<feGaussianBlur stdDeviation="16.598"/>
<feComposite in2="hardAlpha" operator="out"/>
<feColorMatrix type="matrix" values="0 0 0 0 0 0 0 0 0 0 0 0 0 0 0 0 0 0 0.05 0"/>
<feBlend mode="normal" in2="BackgroundImageFix" result="effect1_dropShadow_127_2615"/>
<feBlend mode="normal" in="SourceGraphic" in2="effect1_dropShadow_127_2615" result="shape"/>
</filter>
<filter id="filter2_d_127_2615" x="394.804" y="138.912" width="465.392" height="156.392" filterUnits="userSpaceOnUse" color-interpolation-filters="sRGB">
<feFlood flood-opacity="0" result="BackgroundImageFix"/>
<feColorMatrix in="SourceAlpha" type="matrix" values="0 0 0 0 0 0 0 0 0 0 0 0 0 0 0 0 0 0 127 0" result="hardAlpha"/>
<feOffset dy="14.1083"/>
<feGaussianBlur stdDeviation="16.598"/>
<feComposite in2="hardAlpha" operator="out"/>
<feColorMatrix type="matrix" values="0 0 0 0 0 0 0 0 0 0 0 0 0 0 0 0 0 0 0.05 0"/>
<feBlend mode="normal" in2="BackgroundImageFix" result="effect1_dropShadow_127_2615"/>
<feBlend mode="normal" in="SourceGraphic" in2="effect1_dropShadow_127_2615" result="shape"/>
</filter>
<filter id="filter3_d_127_2615" x="394.804" y="252.912" width="465.392" height="270.392" filterUnits="userSpaceOnUse" color-interpolation-filters="sRGB">
<feFlood flood-opacity="0" result="BackgroundImageFix"/>
<feColorMatrix in="SourceAlpha" type="matrix" values="0 0 0 0 0 0 0 0 0 0 0 0 0 0 0 0 0 0 127 0" result="hardAlpha"/>
<feOffset dy="14.1083"/>
<feGaussianBlur stdDeviation="16.598"/>
<feComposite in2="hardAlpha" operator="out"/>
<feColorMatrix type="matrix" values="0 0 0 0 0 0 0 0 0 0 0 0 0 0 0 0 0 0 0.05 0"/>
<feBlend mode="normal" in2="BackgroundImageFix" result="effect1_dropShadow_127_2615"/>
<feBlend mode="normal" in="SourceGraphic" in2="effect1_dropShadow_127_2615" result="shape"/>
</filter>
<clipPath id="clip0_127_2615">
<rect x="36" y="36" width="732" height="504" rx="24" fill="white"/>
</clipPath>
<clipPath id="clip1_127_2615">
<rect x="400" y="68" width="421" height="507" rx="24" fill="white"/>
</clipPath>
</defs>
</svg>
