<svg width="492" height="216" viewBox="0 0 492 216" fill="none" xmlns="http://www.w3.org/2000/svg">
<path d="M0 24C0 10.7452 10.7452 0 24 0H468C481.255 0 492 10.7452 492 24V192C492 205.255 481.255 216 468 216H24C10.7452 216 0 205.255 0 192V24Z" fill="white"/>
<path d="M24 0.25H468C481.117 0.25 491.75 10.8832 491.75 24V192C491.75 205.117 481.117 215.75 468 215.75H24C10.8832 215.75 0.25 205.117 0.25 192V24C0.25 10.8832 10.8832 0.25 24 0.25Z" stroke="black" stroke-opacity="0.2" stroke-width="0.5"/>
<circle cx="65" cy="124" r="32" fill="white"/>
<circle cx="65" cy="124" r="31.75" stroke="black" stroke-opacity="0.2" stroke-width="0.5"/>
<path d="M60.9997 131.333H64.9997C68.3331 131.333 70.3331 128.933 70.3331 126V119.213C70.3331 117.813 69.1864 116.667 67.7864 116.667H58.2264C56.8264 116.667 55.6798 117.813 55.6798 119.213V126C55.6664 128.933 57.6664 131.333 60.9997 131.333Z" fill="#EFF9F9"/>
<path d="M61.666 110.667V114.667" stroke="#292D32" stroke-width="1.5" stroke-linecap="round" stroke-linejoin="round"/>
<path d="M68.334 110.667V114.667" stroke="#292D32" stroke-width="1.5" stroke-linecap="round" stroke-linejoin="round"/>
<path d="M65 137.333V129.333" stroke="#292D32" stroke-width="1.5" stroke-linecap="round" stroke-linejoin="round"/>
<path d="M62.9997 129.333H66.9997C70.3331 129.333 72.3331 126.933 72.3331 124V117.213C72.3331 115.813 71.1864 114.667 69.7864 114.667H60.2264C58.8264 114.667 57.6798 115.813 57.6798 117.213V124C57.6664 126.933 59.6664 129.333 62.9997 129.333Z" stroke="#038989" stroke-width="1.5" stroke-linecap="round" stroke-linejoin="round"/>
<circle cx="186" cy="124" r="32" fill="white"/>
<circle cx="186" cy="124" r="31.75" stroke="black" stroke-opacity="0.2" stroke-width="0.5"/>
<path d="M182.717 126.596L179.932 130.09C177.727 132.881 179.68 137 183.22 137H188.771C192.311 137 194.284 132.862 192.06 130.09L189.274 126.596C187.611 124.468 184.4 124.468 182.717 126.596Z" fill="#EFF9F9"/>
<path d="M188.84 123.12C189.36 120.933 187.454 119.027 185.267 119.547C184.24 119.8 183.4 120.64 183.147 121.667C182.627 123.853 184.534 125.76 186.72 125.24C187.76 124.987 188.6 124.147 188.84 123.12Z" stroke="#038989" stroke-width="1.5" stroke-linecap="round" stroke-linejoin="round"/>
<path d="M194.015 130.92C196.295 128.787 197.721 125.76 197.721 122.387C197.721 115.907 192.468 110.667 186.001 110.667C179.535 110.667 174.281 115.92 174.281 122.387C174.281 125.773 175.721 128.827 178.028 130.96" stroke="#292D32" stroke-width="1.5" stroke-linecap="round" stroke-linejoin="round"/>
<path d="M180.666 127.4C179.44 126.093 178.68 124.333 178.68 122.387C178.68 118.347 181.96 115.067 186 115.067C190.04 115.067 193.32 118.347 193.32 122.387C193.32 124.333 192.56 126.08 191.333 127.4" stroke="#292D32" stroke-width="1.5" stroke-linecap="round" stroke-linejoin="round"/>
<path d="M183.734 130.213L181.814 132.6C180.294 134.507 181.641 137.32 184.081 137.32H187.908C190.348 137.32 191.708 134.493 190.174 132.6L188.254 130.213C187.108 128.76 184.894 128.76 183.734 130.213Z" stroke="#292D32" stroke-width="1.5" stroke-linecap="round" stroke-linejoin="round"/>
<circle cx="307" cy="124" r="32" fill="white"/>
<circle cx="307" cy="124" r="31.75" stroke="black" stroke-opacity="0.2" stroke-width="0.5"/>
<path d="M310.666 134.333H297.333C291.999 134.333 290.666 133 290.666 127.667V125C290.666 119.667 291.999 118.333 297.333 118.333H310.666C315.999 118.333 317.333 119.667 317.333 125V127.667C317.333 133 315.999 134.333 310.666 134.333Z" fill="#EFF9F9"/>
<path d="M299 121.333V118.667C299 114.253 300.333 110.667 307 110.667C313.667 110.667 315 114.253 315 118.667V121.333" stroke="#292D32" stroke-width="1.5" stroke-linecap="round" stroke-linejoin="round"/>
<path d="M313.666 137.333H300.333C294.999 137.333 293.666 136 293.666 130.667V128C293.666 122.667 294.999 121.333 300.333 121.333H313.666C318.999 121.333 320.333 122.667 320.333 128V130.667C320.333 136 318.999 137.333 313.666 137.333Z" stroke="#292D32" stroke-width="1.5" stroke-linecap="round" stroke-linejoin="round"/>
<path d="M312.329 129.333H312.341" stroke="#038989" stroke-width="2.5" stroke-linecap="round" stroke-linejoin="round"/>
<path d="M306.993 129.333H307.005" stroke="#038989" stroke-width="2.5" stroke-linecap="round" stroke-linejoin="round"/>
<path d="M301.659 129.333H301.671" stroke="#038989" stroke-width="2.5" stroke-linecap="round" stroke-linejoin="round"/>
<circle cx="428" cy="124" r="32" fill="white"/>
<circle cx="428" cy="124" r="31.75" stroke="black" stroke-opacity="0.2" stroke-width="0.5"/>
<path d="M423.233 112.267L417.43 114.43C416.093 114.924 415 116.488 415 117.892V126.437C415 127.794 415.907 129.577 417.012 130.394L422.012 134.086C423.651 135.305 426.349 135.305 427.988 134.086L432.988 130.394C434.093 129.577 435 127.794 435 126.437V117.892C435 116.477 433.907 114.913 432.57 114.418L426.767 112.267C425.779 111.911 424.198 111.911 423.233 112.267Z" fill="#EFF9F9"/>
<path d="M425.987 110.973L419.334 113.48C417.8 114.053 416.547 115.867 416.547 117.493V127.4C416.547 128.973 417.587 131.04 418.854 131.987L424.587 136.267C426.467 137.68 429.56 137.68 431.44 136.267L437.174 131.987C438.44 131.04 439.48 128.973 439.48 127.4V117.493C439.48 115.853 438.227 114.04 436.694 113.467L430.04 110.973C428.907 110.56 427.094 110.56 425.987 110.973Z" stroke="#292D32" stroke-width="1.5" stroke-linecap="round" stroke-linejoin="round"/>
<path d="M424.068 123.827L426.215 125.973L431.948 120.24" stroke="#038989" stroke-width="1.5" stroke-linecap="round" stroke-linejoin="round"/>
<path opacity="0.3" d="M101 124L150 124" stroke="#1B2433" stroke-dasharray="5 5"/>
<path opacity="0.3" d="M222 124L271 124" stroke="#1B2433" stroke-dasharray="5 5"/>
<path opacity="0.3" d="M343 124L392 124" stroke="#1B2433" stroke-dasharray="5 5"/>
<path d="M35.9964 175.368C35.9964 172.184 37.9164 169.608 41.3084 169.608C44.7004 169.608 46.0924 172.024 46.2364 173.832H44.8444C44.6844 172.36 43.5964 170.76 41.3724 170.76C38.8444 170.76 37.4044 172.808 37.4044 175.368C37.4044 177.928 38.8444 179.976 41.3724 179.976C43.5964 179.976 44.6844 178.376 44.8444 176.904H46.2364C46.0924 178.712 44.7004 181.128 41.3084 181.128C37.9164 181.128 35.9964 178.552 35.9964 175.368ZM51.102 172.68C53.502 172.68 54.942 174.584 54.942 176.904C54.942 179.224 53.502 181.128 51.102 181.128C48.702 181.128 47.262 179.224 47.262 176.904C47.262 174.584 48.702 172.68 51.102 172.68ZM51.102 179.976C52.718 179.976 53.662 178.6 53.662 176.904C53.662 175.208 52.718 173.832 51.102 173.832C49.486 173.832 48.542 175.208 48.542 176.904C48.542 178.6 49.486 179.976 51.102 179.976ZM60.3551 172.68C62.2431 172.68 63.3951 173.736 63.3951 176.136V181H62.1151V176.2C62.1151 174.296 61.2511 173.768 60.1151 173.768C58.8671 173.768 57.5071 174.968 57.5071 176.92V181H56.2271V172.808H57.5071V173.496C57.5071 173.784 57.4591 174.04 57.3471 174.376C57.2991 174.504 57.2191 174.648 57.3471 174.696C57.4431 174.728 57.5071 174.632 57.5231 174.584C57.8591 173.784 58.8831 172.68 60.3551 172.68ZM69.1833 172.68C71.0713 172.68 72.2233 173.736 72.2233 176.136V181H70.9433V176.2C70.9433 174.296 70.0793 173.768 68.9433 173.768C67.6953 173.768 66.3353 174.968 66.3353 176.92V181H65.0553V172.808H66.3353V173.496C66.3353 173.784 66.2873 174.04 66.1753 174.376C66.1273 174.504 66.0473 174.648 66.1753 174.696C66.2713 174.728 66.3353 174.632 66.3513 174.584C66.6873 173.784 67.7113 172.68 69.1833 172.68ZM80.9204 176.664C80.9204 176.888 80.9044 177.08 80.8884 177.224H74.7444C74.8084 178.664 75.7684 179.976 77.4004 179.976C78.5684 179.976 79.1444 179.24 79.4324 178.312H80.7764C80.4884 179.672 79.3684 181.128 77.3524 181.128C74.8564 181.128 73.4964 179.16 73.4964 176.904C73.4964 174.392 75.0484 172.68 77.3204 172.68C79.0804 172.68 80.9204 173.848 80.9204 176.664ZM77.4164 173.768C75.6724 173.768 74.9844 174.856 74.8084 176.2H79.6404C79.5284 174.696 78.6964 173.768 77.4164 173.768ZM81.9495 176.904C81.9495 174.584 83.3735 172.68 85.8375 172.68C87.9815 172.68 89.2455 174.184 89.3735 175.752H88.1255C87.9655 174.648 87.1975 173.832 85.8695 173.832C84.0455 173.832 83.2295 175.24 83.2295 176.904C83.2295 178.568 84.0455 179.976 85.8695 179.976C87.1975 179.976 87.9655 179.16 88.1255 178.056H89.3735C89.2455 179.624 87.9975 181.128 85.8375 181.128C83.4215 181.128 81.9495 179.224 81.9495 176.904ZM94.751 172.808V173.896H92.447V178.696C92.447 179.624 92.639 179.912 93.535 179.912H94.751V181H93.535C91.839 181 91.167 180.504 91.167 178.6V173.896H89.631V172.808H91.167V170.504H92.447V172.808H94.751Z" fill="#1B2433"/>
<path d="M161.535 170.888V169.736H169.983V170.888H166.463V181H165.055V170.888H161.535ZM172.313 174.568C172.857 173.24 173.289 172.68 175.353 172.68V173.992C172.969 173.832 172.281 174.68 172.281 176.824V181H171.001V172.808H172.281V173.448C172.281 173.752 172.249 174.024 172.121 174.408C172.073 174.536 172.025 174.68 172.153 174.696C172.249 174.712 172.281 174.648 172.313 174.568ZM176.577 171.144V169.48H177.985V171.144H176.577ZM176.641 172.808H177.921V181H176.641V172.808ZM179.332 176.84C179.332 174.392 180.82 172.68 182.948 172.68C184.26 172.68 185.188 173.384 185.7 174.424C185.732 174.488 185.764 174.632 185.892 174.584C186.02 174.536 185.94 174.376 185.876 174.232C185.748 173.912 185.732 173.72 185.732 173.4V172.808H187.012V180.264C187.012 183.016 185.524 184.2 183.22 184.2C180.804 184.2 179.732 183.064 179.588 181.512H180.868C180.98 182.248 181.444 183.112 183.204 183.112C184.884 183.112 185.732 182.136 185.732 180.264C185.732 179.912 185.748 179.72 185.876 179.416C185.972 179.176 186.004 179.096 185.892 179.048C185.78 179 185.732 179.144 185.7 179.224C185.172 180.328 184.228 181 182.948 181C180.82 181 179.332 179.288 179.332 176.84ZM183.172 179.848C184.692 179.848 185.732 178.536 185.732 176.84C185.732 175.144 184.692 173.832 183.172 173.832C181.508 173.832 180.612 175.144 180.612 176.84C180.612 178.536 181.508 179.848 183.172 179.848ZM188.426 176.84C188.426 174.392 189.914 172.68 192.042 172.68C193.354 172.68 194.282 173.384 194.794 174.424C194.826 174.488 194.858 174.632 194.986 174.584C195.114 174.536 195.034 174.376 194.97 174.232C194.842 173.912 194.826 173.72 194.826 173.4V172.808H196.106V180.264C196.106 183.016 194.618 184.2 192.314 184.2C189.898 184.2 188.826 183.064 188.682 181.512H189.962C190.074 182.248 190.538 183.112 192.298 183.112C193.978 183.112 194.826 182.136 194.826 180.264C194.826 179.912 194.842 179.72 194.97 179.416C195.066 179.176 195.098 179.096 194.986 179.048C194.874 179 194.826 179.144 194.794 179.224C194.266 180.328 193.322 181 192.042 181C189.914 181 188.426 179.288 188.426 176.84ZM192.266 179.848C193.786 179.848 194.826 178.536 194.826 176.84C194.826 175.144 193.786 173.832 192.266 173.832C190.602 173.832 189.706 175.144 189.706 176.84C189.706 178.536 190.602 179.848 192.266 179.848ZM204.819 176.664C204.819 176.888 204.803 177.08 204.787 177.224H198.643C198.707 178.664 199.667 179.976 201.299 179.976C202.467 179.976 203.043 179.24 203.331 178.312H204.675C204.387 179.672 203.267 181.128 201.251 181.128C198.755 181.128 197.395 179.16 197.395 176.904C197.395 174.392 198.947 172.68 201.219 172.68C202.979 172.68 204.819 173.848 204.819 176.664ZM201.315 173.768C199.571 173.768 198.883 174.856 198.707 176.2H203.539C203.427 174.696 202.595 173.768 201.315 173.768ZM207.422 174.568C207.966 173.24 208.398 172.68 210.462 172.68V173.992C208.078 173.832 207.39 174.68 207.39 176.824V181H206.11V172.808H207.39V173.448C207.39 173.752 207.358 174.024 207.23 174.408C207.182 174.536 207.134 174.68 207.262 174.696C207.358 174.712 207.39 174.648 207.422 174.568Z" fill="#1B2433"/>
<path d="M271.988 181H270.388L269.412 178.184H264.068L263.092 181H261.492L265.588 169.736H267.892L271.988 181ZM266.468 171.304L264.468 177.032H269.012L267.012 171.304C266.948 171.112 266.884 170.92 266.868 170.696C266.868 170.6 266.852 170.504 266.74 170.504C266.628 170.504 266.612 170.6 266.612 170.696C266.596 170.92 266.532 171.112 266.468 171.304ZM275.675 181.128C273.787 181.128 272.635 180.072 272.635 177.672V172.808H273.915V177.608C273.915 179.512 274.779 180.04 275.915 180.04C277.163 180.04 278.523 178.84 278.523 176.888V172.808H279.803V181H278.523V180.312C278.523 180.024 278.555 179.768 278.683 179.432C278.731 179.304 278.811 179.16 278.683 179.112C278.587 179.08 278.523 179.176 278.507 179.224C278.235 180.04 277.147 181.128 275.675 181.128ZM286.071 172.808V173.896H283.767V178.696C283.767 179.624 283.959 179.912 284.855 179.912H286.071V181H284.855C283.159 181 282.487 180.504 282.487 178.6V173.896H280.951V172.808H282.487V170.504H283.767V172.808H286.071ZM291.863 172.68C293.751 172.68 294.903 173.736 294.903 176.136V181H293.623V176.2C293.623 174.296 292.759 173.768 291.623 173.768C290.375 173.768 289.015 174.968 289.015 176.92V181H287.735V169.48H289.015V173.496C289.015 173.784 288.967 174.04 288.855 174.376C288.807 174.504 288.727 174.648 288.855 174.696C288.951 174.728 289.015 174.632 289.031 174.584C289.367 173.784 290.391 172.68 291.863 172.68ZM303.6 176.664C303.6 176.888 303.584 177.08 303.568 177.224H297.424C297.488 178.664 298.448 179.976 300.08 179.976C301.248 179.976 301.824 179.24 302.112 178.312H303.456C303.168 179.672 302.048 181.128 300.032 181.128C297.536 181.128 296.176 179.16 296.176 176.904C296.176 174.392 297.728 172.68 300 172.68C301.76 172.68 303.6 173.848 303.6 176.664ZM300.096 173.768C298.352 173.768 297.664 174.856 297.488 176.2H302.32C302.208 174.696 301.376 173.768 300.096 173.768ZM309.019 172.68C310.907 172.68 312.059 173.736 312.059 176.136V181H310.779V176.2C310.779 174.296 309.915 173.768 308.779 173.768C307.531 173.768 306.171 174.968 306.171 176.92V181H304.891V172.808H306.171V173.496C306.171 173.784 306.123 174.04 306.011 174.376C305.963 174.504 305.883 174.648 306.011 174.696C306.107 174.728 306.171 174.632 306.187 174.584C306.523 173.784 307.547 172.68 309.019 172.68ZM318.071 172.808V173.896H315.767V178.696C315.767 179.624 315.959 179.912 316.855 179.912H318.071V181H316.855C315.159 181 314.487 180.504 314.487 178.6V173.896H312.951V172.808H314.487V170.504H315.767V172.808H318.071ZM319.671 171.144V169.48H321.079V171.144H319.671ZM319.735 172.808H321.015V181H319.735V172.808ZM322.301 176.904C322.301 174.584 323.725 172.68 326.189 172.68C328.333 172.68 329.597 174.184 329.725 175.752H328.477C328.317 174.648 327.549 173.832 326.221 173.832C324.397 173.832 323.581 175.24 323.581 176.904C323.581 178.568 324.397 179.976 326.221 179.976C327.549 179.976 328.317 179.16 328.477 178.056H329.725C329.597 179.624 328.349 181.128 326.189 181.128C323.773 181.128 322.301 179.224 322.301 176.904ZM330.754 178.712C330.754 176.904 332.194 176.344 333.634 176.216C335.138 176.088 336.658 176.216 336.642 175.304C336.626 174.664 336.306 173.768 334.434 173.768C332.994 173.768 332.37 174.504 332.258 175.24H331.01C331.298 173.432 332.802 172.68 334.562 172.68C336.402 172.68 337.922 173.32 337.922 176.328V181H336.642V180.088C336.642 179.768 336.69 179.528 336.802 179.192C336.85 179.064 336.898 178.92 336.77 178.888C336.69 178.872 336.642 178.936 336.61 179.032C336.178 180.328 334.946 181.128 333.442 181.128C331.986 181.128 330.754 180.12 330.754 178.712ZM336.642 176.424C336.162 176.984 334.914 177.048 333.666 177.256C332.674 177.416 332.034 177.784 332.034 178.632C332.034 179.416 332.642 180.168 333.97 180.04C335.506 179.896 336.626 178.696 336.642 176.424ZM343.806 172.808V173.896H341.502V178.696C341.502 179.624 341.694 179.912 342.59 179.912H343.806V181H342.59C340.894 181 340.222 180.504 340.222 178.6V173.896H338.686V172.808H340.222V170.504H341.502V172.808H343.806ZM351.991 176.664C351.991 176.888 351.975 177.08 351.959 177.224H345.815C345.879 178.664 346.839 179.976 348.471 179.976C349.639 179.976 350.215 179.24 350.503 178.312H351.847C351.559 179.672 350.439 181.128 348.423 181.128C345.927 181.128 344.567 179.16 344.567 176.904C344.567 174.392 346.119 172.68 348.391 172.68C350.151 172.68 351.991 173.848 351.991 176.664ZM348.487 173.768C346.743 173.768 346.055 174.856 345.879 176.2H350.711C350.599 174.696 349.767 173.768 348.487 173.768Z" fill="#1B2433"/>
<path d="M393.637 175.368C393.637 172.184 395.557 169.608 398.949 169.608C402.341 169.608 403.733 172.024 403.877 173.832H402.485C402.325 172.36 401.237 170.76 399.013 170.76C396.485 170.76 395.045 172.808 395.045 175.368C395.045 177.928 396.485 179.976 399.013 179.976C401.237 179.976 402.325 178.376 402.485 176.904H403.877C403.733 178.712 402.341 181.128 398.949 181.128C395.557 181.128 393.637 178.552 393.637 175.368ZM408.743 172.68C411.143 172.68 412.583 174.584 412.583 176.904C412.583 179.224 411.143 181.128 408.743 181.128C406.343 181.128 404.903 179.224 404.903 176.904C404.903 174.584 406.343 172.68 408.743 172.68ZM408.743 179.976C410.359 179.976 411.303 178.6 411.303 176.904C411.303 175.208 410.359 173.832 408.743 173.832C407.127 173.832 406.183 175.208 406.183 176.904C406.183 178.6 407.127 179.976 408.743 179.976ZM417.996 172.68C419.884 172.68 421.036 173.736 421.036 176.136V181H419.756V176.2C419.756 174.296 418.892 173.768 417.756 173.768C416.508 173.768 415.148 174.968 415.148 176.92V181H413.868V172.808H415.148V173.496C415.148 173.784 415.1 174.04 414.988 174.376C414.94 174.504 414.86 174.648 414.988 174.696C415.084 174.728 415.148 174.632 415.164 174.584C415.5 173.784 416.524 172.68 417.996 172.68ZM425.576 170.568C424.68 170.568 424.488 170.856 424.488 171.784V172.808H426.792V173.896H424.488V181H423.208V173.896H421.928V172.808H423.208V171.88C423.208 169.976 423.88 169.48 425.576 169.48H426.792V170.568H425.576ZM428.132 171.144V169.48H429.54V171.144H428.132ZM428.196 172.808H429.476V181H428.196V172.808ZM430.887 176.84C430.887 174.392 432.375 172.68 434.503 172.68C435.815 172.68 436.743 173.384 437.255 174.424C437.287 174.488 437.319 174.632 437.447 174.584C437.575 174.536 437.495 174.376 437.431 174.232C437.303 173.912 437.287 173.72 437.287 173.4V172.808H438.567V180.264C438.567 183.016 437.079 184.2 434.775 184.2C432.359 184.2 431.287 183.064 431.143 181.512H432.423C432.535 182.248 432.999 183.112 434.759 183.112C436.439 183.112 437.287 182.136 437.287 180.264C437.287 179.912 437.303 179.72 437.431 179.416C437.527 179.176 437.559 179.096 437.447 179.048C437.335 179 437.287 179.144 437.255 179.224C436.727 180.328 435.783 181 434.503 181C432.375 181 430.887 179.288 430.887 176.84ZM434.727 179.848C436.247 179.848 437.287 178.536 437.287 176.84C437.287 175.144 436.247 173.832 434.727 173.832C433.063 173.832 432.167 175.144 432.167 176.84C432.167 178.536 433.063 179.848 434.727 179.848ZM443.277 181.128C441.389 181.128 440.237 180.072 440.237 177.672V172.808H441.517V177.608C441.517 179.512 442.381 180.04 443.517 180.04C444.765 180.04 446.125 178.84 446.125 176.888V172.808H447.405V181H446.125V180.312C446.125 180.024 446.157 179.768 446.285 179.432C446.333 179.304 446.413 179.16 446.285 179.112C446.189 179.08 446.125 179.176 446.109 179.224C445.837 180.04 444.749 181.128 443.277 181.128ZM450.633 174.568C451.177 173.24 451.609 172.68 453.673 172.68V173.992C451.289 173.832 450.601 174.68 450.601 176.824V181H449.321V172.808H450.601V173.448C450.601 173.752 450.569 174.024 450.441 174.408C450.393 174.536 450.345 174.68 450.473 174.696C450.569 174.712 450.601 174.648 450.633 174.568ZM461.358 176.664C461.358 176.888 461.342 177.08 461.326 177.224H455.182C455.246 178.664 456.206 179.976 457.838 179.976C459.006 179.976 459.582 179.24 459.87 178.312H461.214C460.926 179.672 459.806 181.128 457.79 181.128C455.294 181.128 453.934 179.16 453.934 176.904C453.934 174.392 455.486 172.68 457.758 172.68C459.518 172.68 461.358 173.848 461.358 176.664ZM457.854 173.768C456.11 173.768 455.422 174.856 455.246 176.2H460.078C459.966 174.696 459.134 173.768 457.854 173.768Z" fill="#1B2433"/>
<path opacity="0.3" d="M378.516 47V35.736H379.924V45.848H385.684V47H378.516ZM394.131 42.664C394.131 42.888 394.115 43.08 394.099 43.224H387.955C388.019 44.664 388.979 45.976 390.611 45.976C391.779 45.976 392.355 45.24 392.643 44.312H393.987C393.699 45.672 392.579 47.128 390.563 47.128C388.067 47.128 386.707 45.16 386.707 42.904C386.707 40.392 388.259 38.68 390.531 38.68C392.291 38.68 394.131 39.848 394.131 42.664ZM390.627 39.768C388.883 39.768 388.195 40.856 388.019 42.2H392.851C392.739 40.696 391.907 39.768 390.627 39.768ZM395.16 44.712C395.16 42.904 396.6 42.344 398.04 42.216C399.544 42.088 401.064 42.216 401.048 41.304C401.032 40.664 400.712 39.768 398.84 39.768C397.4 39.768 396.776 40.504 396.664 41.24H395.416C395.704 39.432 397.208 38.68 398.968 38.68C400.808 38.68 402.328 39.32 402.328 42.328V47H401.048V46.088C401.048 45.768 401.096 45.528 401.208 45.192C401.256 45.064 401.304 44.92 401.176 44.888C401.096 44.872 401.048 44.936 401.016 45.032C400.584 46.328 399.352 47.128 397.848 47.128C396.392 47.128 395.16 46.12 395.16 44.712ZM401.048 42.424C400.568 42.984 399.32 43.048 398.072 43.256C397.08 43.416 396.44 43.784 396.44 44.632C396.44 45.416 397.048 46.168 398.376 46.04C399.912 45.896 401.032 44.696 401.048 42.424ZM405.438 40.568C405.982 39.24 406.414 38.68 408.478 38.68V39.992C406.094 39.832 405.406 40.68 405.406 42.824V47H404.126V38.808H405.406V39.448C405.406 39.752 405.374 40.024 405.246 40.408C405.198 40.536 405.15 40.68 405.278 40.696C405.374 40.712 405.406 40.648 405.438 40.568ZM413.754 38.68C415.642 38.68 416.794 39.736 416.794 42.136V47H415.514V42.2C415.514 40.296 414.65 39.768 413.514 39.768C412.266 39.768 410.906 40.968 410.906 42.92V47H409.626V38.808H410.906V39.496C410.906 39.784 410.858 40.04 410.746 40.376C410.698 40.504 410.618 40.648 410.746 40.696C410.842 40.728 410.906 40.632 410.922 40.584C411.258 39.784 412.282 38.68 413.754 38.68ZM424.596 47H423.188V35.736H425.812L428.564 45.016C428.644 45.304 428.676 45.496 428.692 45.816C428.692 45.912 428.708 46.008 428.82 46.008C428.932 46.008 428.948 45.912 428.948 45.816C428.964 45.496 428.996 45.304 429.076 45.016L431.828 35.736H434.452V47H433.044V37.64C433.044 37.368 433.06 37.128 433.156 36.744C433.188 36.616 433.22 36.52 433.124 36.488C433.012 36.456 432.98 36.52 432.948 36.616L429.78 47H427.86L424.692 36.616C424.66 36.52 424.628 36.456 424.516 36.488C424.42 36.52 424.452 36.616 424.484 36.744C424.58 37.128 424.596 37.368 424.596 37.64V47ZM439.829 38.68C442.229 38.68 443.669 40.584 443.669 42.904C443.669 45.224 442.229 47.128 439.829 47.128C437.429 47.128 435.989 45.224 435.989 42.904C435.989 40.584 437.429 38.68 439.829 38.68ZM439.829 45.976C441.445 45.976 442.389 44.6 442.389 42.904C442.389 41.208 441.445 39.832 439.829 39.832C438.213 39.832 437.269 41.208 437.269 42.904C437.269 44.6 438.213 45.976 439.829 45.976ZM446.266 40.568C446.81 39.24 447.242 38.68 449.306 38.68V39.992C446.922 39.832 446.234 40.68 446.234 42.824V47H444.954V38.808H446.234V39.448C446.234 39.752 446.202 40.024 446.074 40.408C446.026 40.536 445.978 40.68 446.106 40.696C446.202 40.712 446.234 40.648 446.266 40.568ZM456.991 42.664C456.991 42.888 456.975 43.08 456.959 43.224H450.815C450.879 44.664 451.839 45.976 453.471 45.976C454.639 45.976 455.215 45.24 455.503 44.312H456.847C456.559 45.672 455.439 47.128 453.423 47.128C450.927 47.128 449.567 45.16 449.567 42.904C449.567 40.392 451.119 38.68 453.391 38.68C455.151 38.68 456.991 39.848 456.991 42.664ZM453.487 39.768C451.743 39.768 451.055 40.856 450.879 42.2H455.711C455.599 40.696 454.767 39.768 453.487 39.768Z" fill="#1B2433"/>
<path d="M41.984 45.448H33.536V43.048L40.736 32.104H44.288V43.432H46.592V45.448H44.288V49H41.984V45.448ZM41.912 33.784L35.6 43.72C35.528 43.84 35.432 43.984 35.552 44.08C35.696 44.2 35.816 44.056 35.912 43.96C36.248 43.648 36.632 43.432 37.472 43.432H41.984V35.32C41.984 34.888 42.032 34.552 42.2 34.096C42.272 33.88 42.368 33.76 42.2 33.664C42.056 33.592 41.984 33.688 41.912 33.784ZM63.7031 39.04C67.4231 39.544 70.2071 40.408 70.2071 43.96C70.2071 46.696 67.9271 49.192 63.4871 49.192C58.8071 49.192 56.7671 46.168 56.7671 43.048H59.1671C59.2151 44.728 60.1031 47.08 63.4871 47.08C66.7991 47.08 67.7111 45.376 67.7111 44.104C67.7111 42.616 66.7751 41.8 63.4631 41.392C59.5271 40.912 57.3431 39.544 57.3431 36.664C57.3431 34.024 59.5991 31.912 63.5111 31.912C67.6631 31.912 69.4871 34.552 69.5591 37.288H67.2311C67.2311 35.8 66.2231 34.024 63.4631 34.024C60.6311 34.024 59.8151 35.416 59.8151 36.52C59.8151 37.552 60.2711 38.584 63.7031 39.04ZM79.9036 36.712V38.728H76.4476V45.16C76.4476 46.552 76.7356 46.984 78.0796 46.984H79.9036V49H77.8876C75.3436 49 74.1436 48.064 74.1436 45.4V38.728H71.8396V36.712H74.1436V33.256H76.4476V36.712H79.9036ZM93.0596 42.688C93.0596 43.024 93.0356 43.264 92.9876 43.528H83.8196C83.9876 45.496 85.3316 47.08 87.5636 47.08C89.2196 47.08 90.0356 46.264 90.4676 44.848H92.8436C92.3396 47.128 90.6596 49.192 87.5156 49.192C83.6516 49.192 81.5396 46.336 81.5396 42.856C81.5396 39.16 83.9396 36.52 87.4676 36.52C90.2036 36.52 93.0596 38.32 93.0596 42.688ZM83.9396 41.608H90.7556C90.6116 39.808 89.4596 38.536 87.5876 38.536C85.2836 38.536 84.2756 39.952 83.9396 41.608ZM95.4673 36.712H97.7713V37.672C97.7713 38.128 97.6993 38.488 97.5313 38.992C97.4593 39.184 97.3153 39.424 97.5313 39.496C97.7233 39.568 97.7953 39.328 97.8193 39.256C98.5393 37.672 99.9793 36.52 101.947 36.52C105.139 36.52 107.371 39.208 107.371 42.856C107.371 46.504 105.139 49.192 101.947 49.192C100.027 49.192 98.5633 48.064 97.8193 46.408C97.7953 46.336 97.7233 46.144 97.5793 46.192C97.3393 46.264 97.4593 46.48 97.5313 46.672C97.6993 47.2 97.7713 47.536 97.7713 47.968V53.608H95.4673V36.712ZM101.467 47.08C103.867 47.08 105.067 45.136 105.067 42.856C105.067 40.576 103.867 38.632 101.467 38.632C99.2833 38.632 97.7713 40.576 97.7713 42.856C97.7713 45.136 99.2833 47.08 101.467 47.08ZM109.382 44.728H111.638C111.662 45.664 112.43 47.176 114.83 47.176C117.182 47.176 117.83 46.24 117.83 45.448C117.83 44.344 116.798 44.008 113.99 43.72C110.774 43.384 109.766 41.92 109.766 40.312C109.766 38.464 111.446 36.52 114.806 36.52C117.902 36.52 119.582 38.296 119.75 40.6H117.494C117.422 39.808 116.894 38.536 114.734 38.536C112.79 38.536 112.07 39.328 112.07 40.144C112.07 40.936 112.526 41.464 115.19 41.752C118.502 42.112 120.134 43.072 120.134 45.088C120.134 47.584 118.094 49.192 114.734 49.192C111.398 49.192 109.502 47.44 109.382 44.728ZM141.442 32.104V34.216H132.802V39.496H139.906V41.608H132.802V46.888H141.442V49H130.306V32.104H141.442ZM143.846 45.568C143.846 42.76 145.91 41.896 148.262 41.728C150.47 41.56 152.702 41.824 152.678 40.552C152.654 39.544 152.078 38.536 149.558 38.536C147.398 38.536 146.654 39.352 146.486 40.552H144.23C144.662 37.744 146.822 36.52 149.654 36.52C152.414 36.52 154.982 37.48 154.982 41.992V49H152.678V47.824C152.678 47.368 152.726 47.008 152.942 46.384C152.99 46.192 153.086 45.976 152.918 45.904C152.726 45.832 152.678 46.024 152.63 46.144C151.934 47.968 150.302 49.192 148.07 49.192C145.742 49.192 143.846 47.656 143.846 45.568ZM152.678 42.376C151.934 43.288 150.278 43.312 148.406 43.576C146.918 43.792 146.15 44.32 146.15 45.448C146.15 46.432 146.966 47.344 148.958 47.08C150.83 46.84 152.654 45.472 152.678 42.376ZM157.381 44.728H159.637C159.661 45.664 160.429 47.176 162.829 47.176C165.181 47.176 165.829 46.24 165.829 45.448C165.829 44.344 164.797 44.008 161.989 43.72C158.773 43.384 157.765 41.92 157.765 40.312C157.765 38.464 159.445 36.52 162.805 36.52C165.901 36.52 167.581 38.296 167.749 40.6H165.493C165.421 39.808 164.893 38.536 162.733 38.536C160.789 38.536 160.069 39.328 160.069 40.144C160.069 40.936 160.525 41.464 163.189 41.752C166.501 42.112 168.133 43.072 168.133 45.088C168.133 47.584 166.093 49.192 162.733 49.192C159.397 49.192 157.501 47.44 157.381 44.728ZM174.039 49.48L168.999 36.712H171.495L174.807 45.784C174.975 46.216 174.999 46.672 174.999 47.08C174.999 47.224 174.999 47.392 175.191 47.392C175.383 47.392 175.383 47.224 175.383 47.08C175.383 46.672 175.455 46.216 175.599 45.784L178.791 36.712H181.287L175.959 50.464C175.095 52.72 173.895 53.608 171.687 53.608H170.103V51.592H171.207C173.031 51.592 173.343 51.184 173.703 50.296L174.039 49.48ZM193.186 32.104V49H190.69V32.104H193.186ZM203.324 36.52C206.156 36.52 207.884 38.104 207.884 41.704V49H205.58V42.184C205.58 39.328 204.356 38.536 202.748 38.536C200.972 38.536 199.052 40.336 199.052 43.264V49H196.748V36.712H199.052V37.528C199.052 38.032 199.004 38.536 198.788 39.16C198.716 39.376 198.62 39.616 198.812 39.664C198.956 39.712 199.028 39.544 199.076 39.448C199.556 38.248 201.116 36.52 203.324 36.52ZM217.781 36.712V38.728H214.325V45.16C214.325 46.552 214.613 46.984 215.957 46.984H217.781V49H215.765C213.221 49 212.021 48.064 212.021 45.4V38.728H209.717V36.712H212.021V33.256H214.325V36.712H217.781ZM230.937 42.688C230.937 43.024 230.913 43.264 230.865 43.528H221.697C221.865 45.496 223.209 47.08 225.441 47.08C227.097 47.08 227.913 46.264 228.345 44.848H230.721C230.217 47.128 228.537 49.192 225.393 49.192C221.529 49.192 219.417 46.336 219.417 42.856C219.417 39.16 221.817 36.52 225.345 36.52C228.081 36.52 230.937 38.32 230.937 42.688ZM221.817 41.608H228.633C228.489 39.808 227.337 38.536 225.465 38.536C223.161 38.536 222.153 39.952 221.817 41.608ZM232.951 42.76C232.951 39.088 235.183 36.52 238.375 36.52C240.343 36.52 241.735 37.576 242.503 39.136C242.527 39.208 242.623 39.448 242.767 39.4C243.007 39.328 242.839 39.064 242.767 38.848C242.599 38.416 242.551 38.104 242.551 37.528V36.712H244.855V47.896C244.855 51.88 242.431 53.8 238.975 53.8C235.351 53.8 233.551 51.952 233.335 49.768H235.639C235.783 50.752 236.311 51.976 238.951 51.976C241.279 51.976 242.551 50.608 242.551 47.896C242.551 47.368 242.599 47.032 242.767 46.624C242.863 46.408 242.983 46.192 242.767 46.12C242.599 46.072 242.527 46.264 242.503 46.336C241.711 47.992 240.295 49 238.375 49C235.183 49 232.951 46.432 232.951 42.76ZM238.903 46.888C241.087 46.888 242.551 45.088 242.551 42.76C242.551 40.432 241.087 38.632 238.903 38.632C236.527 38.632 235.255 40.432 235.255 42.76C235.255 45.088 236.527 46.888 238.903 46.888ZM250.567 39.352C251.335 37.384 252.031 36.52 255.127 36.52V38.872C251.551 38.632 250.519 39.904 250.519 43.12V49H248.215V36.712H250.519V37.528C250.519 38.032 250.471 38.416 250.255 39.136C250.207 39.328 250.135 39.52 250.327 39.568C250.447 39.592 250.519 39.472 250.567 39.352ZM256.177 45.568C256.177 42.76 258.241 41.896 260.593 41.728C262.801 41.56 265.033 41.824 265.009 40.552C264.985 39.544 264.409 38.536 261.889 38.536C259.729 38.536 258.985 39.352 258.817 40.552H256.561C256.993 37.744 259.153 36.52 261.985 36.52C264.745 36.52 267.313 37.48 267.313 41.992V49H265.009V47.824C265.009 47.368 265.057 47.008 265.273 46.384C265.321 46.192 265.417 45.976 265.249 45.904C265.057 45.832 265.009 46.024 264.961 46.144C264.265 47.968 262.633 49.192 260.401 49.192C258.073 49.192 256.177 47.656 256.177 45.568ZM265.009 42.376C264.265 43.288 262.609 43.312 260.737 43.576C259.249 43.792 258.481 44.32 258.481 45.448C258.481 46.432 259.297 47.344 261.289 47.08C263.161 46.84 264.985 45.472 265.009 42.376ZM276.993 36.712V38.728H273.537V45.16C273.537 46.552 273.825 46.984 275.169 46.984H276.993V49H274.977C272.433 49 271.233 48.064 271.233 45.4V38.728H268.929V36.712H271.233V33.256H273.537V36.712H276.993ZM279.887 34.408V31.72H282.383V34.408H279.887ZM279.983 36.712H282.287V49H279.983V36.712ZM290.639 36.52C294.359 36.52 296.591 39.376 296.591 42.856C296.591 46.336 294.359 49.192 290.639 49.192C286.919 49.192 284.687 46.336 284.687 42.856C284.687 39.376 286.919 36.52 290.639 36.52ZM290.639 47.08C292.943 47.08 294.287 45.184 294.287 42.856C294.287 40.528 292.943 38.632 290.639 38.632C288.335 38.632 286.991 40.528 286.991 42.856C286.991 45.184 288.335 47.08 290.639 47.08ZM305.566 36.52C308.398 36.52 310.126 38.104 310.126 41.704V49H307.822V42.184C307.822 39.328 306.598 38.536 304.99 38.536C303.214 38.536 301.294 40.336 301.294 43.264V49H298.99V36.712H301.294V37.528C301.294 38.032 301.246 38.536 301.03 39.16C300.958 39.376 300.862 39.616 301.054 39.664C301.198 39.712 301.27 39.544 301.318 39.448C301.798 38.248 303.358 36.52 305.566 36.52Z" fill="#292D32"/>
</svg>
