<svg width="64" height="64" viewBox="0 0 64 64" fill="none" xmlns="http://www.w3.org/2000/svg">
<path d="M6.76392 12.2223C6.07678 11.1698 6.62265 9.75352 7.83838 9.43445L41.6356 0.564509C42.8513 0.245447 44.0224 1.21119 43.9406 2.46542L43.8144 4.40237C43.7628 5.19331 43.2109 5.86251 42.4443 6.06372L9.83444 14.622C9.06779 14.8232 8.2584 14.5113 7.82508 13.8476L6.76392 12.2223Z" fill="black"/>
<path d="M56.9665 52.1014C57.6537 53.1539 57.1078 54.5702 55.8921 54.8893L22.0949 63.7592C20.8791 64.0783 19.7081 63.1125 19.7899 61.8583L19.9161 59.9214C19.9677 59.1304 20.5196 58.4612 21.2862 58.26L53.896 49.7017C54.6627 49.5005 55.4721 49.8124 55.9054 50.4761L56.9665 52.1014Z" fill="black"/>
<path d="M13.6838 14.5641C14.4117 19.3819 18.3611 29.5674 28.356 32.8172C28.7194 32.9354 28.8192 33.4264 28.5362 33.6832C25.1193 36.7842 20.1951 44.8161 23.3327 56.7714" stroke="black" stroke-width="1.84145"/>
<path d="M38.3982 8.0782C40.13 12.6326 41.6913 23.4448 34.5805 31.1839C34.3219 31.4653 34.4761 31.9421 34.8488 32.0268C39.3481 33.0502 47.5818 37.6288 50.7195 49.5841" stroke="black" stroke-width="1.84145"/>
<path d="M31.2166 32.3979C22.8161 29.3018 18.0128 22.3305 17.0996 18.7787C17.0352 18.5282 17.2108 18.2895 17.4666 18.2514L20.8933 17.7402C21.1256 17.7055 21.3456 17.8506 21.4138 18.0755C23.4569 24.8157 32.2501 31.2074 28.7917 27.3051C26.3253 24.5221 24.8068 21.0132 24.1714 19.0601C24.0636 18.7288 24.3654 18.4054 24.7121 18.4397C27.336 18.7 33.1808 18.2164 36.4174 17.8723C36.6831 17.8441 36.9161 18.0463 36.9158 18.3135C36.9107 23.677 33.5782 30.1059 31.6984 32.2794C31.5795 32.4168 31.387 32.4607 31.2166 32.3979Z" fill="#1374FE"/>
<path d="M43.5867 51.1137L24.0001 56.5C22.2588 49.2653 24.4971 42.0001 30 40C36.1942 37.7487 42.6378 45.5535 43.9057 50.5831C43.9648 50.8173 43.8197 51.0496 43.5867 51.1137Z" fill="black"/>
</svg>
