<svg width="1600" height="900" viewBox="0 0 1600 900" fill="none" xmlns="http://www.w3.org/2000/svg">
<g clip-path="url(#clip0_130_3946)">
<rect width="1600" height="900" transform="matrix(-1 0 0 1 1600 0)" fill="white"/>
<path fill-rule="evenodd" clip-rule="evenodd" d="M2346.19 -511.98H-197.748V-507.99L2346.19 -507.992V-511.98ZM2410.01 -445.113V2098.73H2406.02V-445.113H2410.01ZM2166.86 -264.844V-25.6949H2346.19V-21.7052H2166.86V217.445H2346.19V221.436H2166.86V460.584H2346.19V464.575H2166.86V703.721H2346.19V707.709H2166.86V946.858H2346.19V950.848H2166.86V1190H2346.19V1193.99H2166.86V1433.12H2346.19V1437.11H2166.86V1676.26H2346.19V1680.25H2166.86V1919.41H2346.19V1923.4H2166.86V2098.73H2162.87V1923.4H1923.71V2098.73H1919.72V1923.4H1680.57V2098.73H1676.58V1923.4H1437.42V2098.73H1433.43V1923.4H1194.28V2098.73H1190.29V1923.4H951.124V2098.73H947.133V1923.4H707.978V2098.73H703.987V1923.4H464.833V2098.73H460.843V1923.4H221.683V2098.73H217.692V1923.4H-21.4717V2098.73H-25.4602V1923.4H-197.75V1919.41H-25.4602V1680.25H-197.75V1676.26H-25.4602V1437.11H-197.748V1433.12H-25.4602V1193.99H-197.75V1190H-25.4602V950.848H-197.75V946.858H-25.4602V707.709H-197.75V703.721H-25.4602V464.575H-197.75V460.584H-25.4602V221.436H-197.75V217.445H-25.4602V-21.705H-197.75V-25.6947H-25.4602V-264.844H-197.75V-268.835H-25.4602V-445.109H-21.4717V-268.835H217.692V-445.111H221.683V-268.835H460.843V-445.111H464.833V-268.835H703.987V-445.113H707.978V-268.835H947.133V-445.113H951.124V-268.835H1190.29V-445.111H1194.28V-268.835H1433.43V-445.109H1437.42V-268.835H1676.58V-445.113H1680.57V-268.835H1919.72V-445.113H1923.71V-268.835H2162.87V-445.111H2166.86V-268.835H2346.19V-264.844H2166.86ZM1923.71 1919.41H2162.87V1680.25H1923.71V1919.41ZM1680.57 1919.41H1919.72V1680.25H1680.57V1919.41ZM1437.42 1919.41H1676.58V1680.25H1437.42L1437.42 1919.41ZM1194.28 1919.41H1433.43V1680.25H1194.28L1194.28 1919.41ZM951.124 1919.41H1190.29L1190.29 1680.25H951.124V1919.41ZM707.978 1919.41H947.133V1680.25H707.978V1919.41ZM464.833 1919.41H703.987V1680.25H464.833V1919.41ZM221.683 1919.41H460.843V1680.25H221.683V1919.41ZM-21.4717 1919.41H217.692V1680.25H-21.4717V1919.41ZM-21.4717 1676.26V1437.11H217.692V1676.26H-21.4717ZM221.683 1676.26V1437.11H460.843V1676.26H221.683ZM464.833 1676.26V1437.11H703.987V1676.26H464.833ZM707.978 1676.26V1437.11H947.133V1676.26H707.978ZM951.124 1676.26V1437.11H1190.29V1676.26H951.124ZM1194.28 1676.26V1437.11H1433.43V1676.26H1194.28ZM1437.42 1676.26V1437.11H1676.58V1676.26H1437.42ZM1680.57 1676.26V1437.11H1919.72V1676.26H1680.57ZM1923.71 1676.26V1437.11H2162.87V1676.26H1923.71ZM1923.71 1433.12H2162.87V1193.99H1923.71V1433.12ZM1680.57 1433.12H1919.72V1193.99H1680.57V1433.12ZM1437.42 1433.12H1676.58V1193.99H1437.42V1433.12ZM1194.28 1433.12H1433.43L1433.43 1193.99H1194.28V1433.12ZM951.124 1433.12H1190.29V1193.99H951.124V1433.12ZM707.978 1433.12H947.133V1193.99H707.978V1433.12ZM464.833 1433.12H703.987V1193.99H464.833V1433.12ZM221.683 1433.12H460.843V1193.99H221.683V1433.12ZM-21.4717 1433.12H217.692V1193.99H-21.4717V1433.12ZM-21.4717 1190V950.848H217.692V1190H-21.4717ZM221.683 1190V950.848H460.843V1190H221.683ZM464.833 1190V950.848H703.987V1190H464.833ZM707.978 1190V950.848H947.133V1190H707.978ZM951.124 1190V950.848H1190.29V1190H951.124ZM1194.28 1190V950.848H1433.43V1190H1194.28ZM1437.42 1190V950.848H1676.58V1190H1437.42ZM1680.57 1190V950.848H1919.72V1190H1680.57ZM1923.71 1190V950.848H2162.87V1190H1923.71ZM1923.71 946.858H2162.87V707.709H1923.71V946.858ZM1680.57 946.858H1919.72V707.709H1680.57V946.858ZM1437.42 946.858H1676.58V707.709H1437.42V946.858ZM1194.28 946.858H1433.43V707.709H1194.28V946.858ZM951.124 946.858H1190.29V707.709H951.124V946.858ZM707.978 946.858H947.133V707.709H707.978V946.858ZM464.833 946.858H703.987V707.709H464.833V946.858ZM221.683 946.858H460.843V707.709H221.683V946.858ZM-21.4717 946.858H217.692V707.709H-21.4717V946.858ZM-21.4717 703.721V464.575H217.692V703.721H-21.4717ZM221.683 703.721V464.575H460.843V703.721H221.683ZM464.833 703.721V464.575H703.987V703.721H464.833ZM707.978 703.721V464.575H947.133V703.721H707.978ZM951.124 703.721V464.575H1190.29V703.721H951.124ZM1194.28 703.721V464.575H1433.43V703.721H1194.28ZM1437.42 703.721V464.575H1676.58V703.721H1437.42ZM1680.57 703.721V464.575H1919.72V703.721H1680.57ZM1923.71 703.721V464.575H2162.87V703.721H1923.71ZM1923.71 460.584H2162.87V221.436H1923.71V460.584ZM1680.57 460.584H1919.72V221.436H1680.57V460.584ZM1437.42 460.584H1676.58V221.436H1437.42V460.584ZM1194.28 460.584H1433.43V221.436H1194.28V460.584ZM951.124 460.584H1190.29V221.436H951.124V460.584ZM707.978 460.584H947.133V221.436H707.978V460.584ZM464.833 460.584H703.987V221.436H464.833V460.584ZM221.683 460.584H460.843V221.436H221.683V460.584ZM-21.4717 460.584H217.692V221.436H-21.4717V460.584ZM-21.4717 217.445V-21.705L217.692 -21.705V217.445H-21.4717ZM221.683 217.445V-21.705L460.843 -21.7051V217.445H221.683ZM464.833 217.445V-21.7051H703.987V217.445H464.833ZM707.978 217.445V-21.7051L947.133 -21.7051V217.445H707.978ZM951.124 217.445V-21.7051L1190.29 -21.7051V217.445H951.124ZM1194.28 217.445V-21.7051H1433.43V217.445H1194.28ZM1437.42 217.445V-21.7051L1676.58 -21.7052V217.445H1437.42ZM1680.57 217.445V-21.7052L1919.72 -21.7052V217.445H1680.57ZM1923.71 217.445V-21.7052H2162.87V217.445H1923.71ZM1923.71 -25.6949H2162.87V-264.844H1923.71V-25.6949ZM1680.57 -25.6949L1919.72 -25.6949V-264.844H1680.57V-25.6949ZM1437.42 -25.6949L1676.58 -25.6949V-264.844H1437.42V-25.6949ZM1194.28 -25.6949H1433.43V-264.844H1194.28V-25.6949ZM951.124 -25.6948L1190.29 -25.6949V-264.844H951.124V-25.6948ZM707.978 -25.6948L947.133 -25.6948V-264.844H707.978V-25.6948ZM464.833 -25.6948H703.987V-264.844H464.833V-25.6948ZM221.683 -25.6947L460.843 -25.6948V-264.844H221.683V-25.6947ZM-21.4717 -25.6947L217.692 -25.6947V-264.844H-21.4717V-25.6947ZM-264.622 -445.109V2098.73H-268.613V-445.109H-264.622ZM-197.75 2162.54H2346.19V2166.54H-197.75V2162.54Z" fill="url(#paint0_radial_130_3946)" fill-opacity="0.05"/>
<g opacity="0.1" filter="url(#filter0_f_130_3946)">
<circle cx="859" cy="65" r="527" fill="url(#paint1_linear_130_3946)"/>
</g>
</g>
<defs>
<filter id="filter0_f_130_3946" x="132" y="-662" width="1454" height="1454" filterUnits="userSpaceOnUse" color-interpolation-filters="sRGB">
<feFlood flood-opacity="0" result="BackgroundImageFix"/>
<feBlend mode="normal" in="SourceGraphic" in2="BackgroundImageFix" result="shape"/>
<feGaussianBlur stdDeviation="100" result="effect1_foregroundBlur_130_3946"/>
</filter>
<radialGradient id="paint0_radial_130_3946" cx="0" cy="0" r="1" gradientUnits="userSpaceOnUse" gradientTransform="translate(785.323 366.954) rotate(-169.636) scale(1338.49 1338.45)">
<stop stop-opacity="0"/>
<stop offset="1"/>
</radialGradient>
<linearGradient id="paint1_linear_130_3946" x1="332" y1="-462" x2="1386" y2="592" gradientUnits="userSpaceOnUse">
<stop stop-color="#1374FE"/>
<stop offset="1" stop-color="#1374FE" stop-opacity="0"/>
</linearGradient>
<clipPath id="clip0_130_3946">
<rect width="1600" height="900" fill="white" transform="matrix(-1 0 0 1 1600 0)"/>
</clipPath>
</defs>
</svg>
