<svg width="211" height="211" viewBox="0 0 211 211" fill="none" xmlns="http://www.w3.org/2000/svg">
<g filter="url(#filter0_d_130_3996)">
<rect x="26" y="57.8958" width="122" height="122" rx="24" transform="rotate(-22.0982 26 57.8958)" fill="#FDFDFD" shape-rendering="crispEdges"/>
<rect x="26.3257" y="58.0333" width="121.5" height="121.5" rx="23.75" transform="rotate(-22.0982 26.3257 58.0333)" stroke="#DFDFDF" stroke-width="0.5" shape-rendering="crispEdges"/>
<path d="M91.4829 100.789L91.0194 99.647L98.076 96.7819L98.5395 97.9234L95.6857 99.0821L98.93 107.073L97.581 107.62L94.3367 99.6299L91.4829 100.789ZM100.827 104.142C100.211 102.624 101.137 101.704 102.371 101.097C103.528 100.522 104.792 100.175 104.5 99.4924C104.266 98.9528 103.733 98.5344 102.371 99.0874C101.204 99.5614 100.981 100.166 101.153 100.851L99.934 101.346C99.5513 99.7338 100.45 98.5982 101.981 97.9767C103.473 97.3711 105.071 97.3264 106.061 99.765L107.599 103.553L106.354 104.058L106.096 103.423C105.996 103.176 105.943 102.971 105.923 102.587C105.906 102.472 105.911 102.334 105.804 102.332C105.685 102.336 105.701 102.45 105.701 102.525C105.725 103.664 105.112 104.684 103.905 105.173C102.647 105.684 101.285 105.27 100.827 104.142ZM104.9 100.478C104.698 101.134 103.809 101.511 102.855 102.064C102.098 102.508 101.799 102.961 102.046 103.571C102.262 104.103 102.903 104.417 103.922 103.837C104.881 103.296 105.567 102.157 104.9 100.478ZM105.361 93.5825L106.606 93.0769L107.912 96.2938C108.012 96.5403 108.052 96.7507 108.072 97.0599C108.075 97.1795 108.05 97.3408 108.183 97.3323C108.302 97.3291 108.288 97.1836 108.286 97.1394C108.327 96.1253 108.853 95.1866 109.916 94.7548C111.641 94.0543 113.438 95.0173 114.238 96.989C115.039 98.9607 114.422 100.903 112.697 101.604C111.659 102.025 110.621 101.737 109.855 101.005C109.826 100.971 109.745 100.883 109.678 100.941C109.564 101.032 109.676 101.123 109.757 101.211C109.964 101.459 110.077 101.625 110.171 101.859L110.398 102.416L109.153 102.922L105.361 93.5825ZM111.974 100.568C113.271 100.041 113.493 98.7269 112.993 97.4946C112.493 96.2623 111.417 95.4749 110.12 96.0016C108.94 96.4809 108.549 97.8634 109.05 99.0957C109.55 100.328 110.794 101.047 111.974 100.568ZM114.181 90.0012L117.973 99.3407L116.728 99.8463L112.936 90.5068L114.181 90.0012ZM123.852 92.9798C123.926 93.1614 123.966 93.2964 123.998 93.4496L119.042 95.4615C119.565 96.4883 120.639 97.0495 121.845 96.5597C122.74 96.1963 123.002 95.5762 122.925 94.716L124.209 94.1946C124.437 95.5375 123.982 97.0218 122.283 97.7117C120.195 98.5596 118.426 97.4795 117.663 95.5986C116.852 93.601 117.569 91.6475 119.476 90.8732C120.955 90.2728 122.894 90.619 123.852 92.9798ZM118.686 94.3974L122.37 92.9017C121.897 91.9604 120.995 91.5257 119.983 91.9365C118.738 92.4421 118.504 93.4287 118.686 94.3974Z" fill="#0D1632"/>
<path d="M82.6509 130.467L85.3082 129.388C88.1768 128.224 89.8045 129.713 90.6442 131.781C91.4838 133.849 91.3215 136.065 88.4863 137.216L85.829 138.295L82.6509 130.467ZM86.4824 137.097L88.2391 136.384C90.2182 135.58 90.3068 133.757 89.6657 132.178C89.0247 130.599 87.6901 129.354 85.7111 130.157L83.9543 130.871L86.4824 137.097ZM92.3962 130.422C92.3995 129.345 92.5417 128.834 93.976 128.252L94.3461 129.164C92.6444 129.725 92.4055 130.509 93.0104 131.999L94.1887 134.9L93.2992 135.262L90.9879 129.569L91.8773 129.208L92.0579 129.653C92.1437 129.864 92.1982 130.062 92.2176 130.365C92.2203 130.467 92.2276 130.581 92.3211 130.556C92.3923 130.54 92.3965 130.486 92.3962 130.422ZM96.8258 127.095C98.4936 126.418 100.031 127.335 100.686 128.947C101.341 130.559 100.877 132.288 99.2094 132.966C97.5416 133.643 96.0037 132.726 95.3491 131.114C94.6945 129.502 95.158 127.772 96.8258 127.095ZM98.8843 132.165C100.007 131.709 100.275 130.487 99.7965 129.308C99.318 128.129 98.2738 127.44 97.1508 127.896C96.0278 128.351 95.7601 129.574 96.2386 130.753C96.7171 131.931 97.7614 132.621 98.8843 132.165ZM100.423 125.738L101.313 125.377L101.493 125.822C101.575 126.022 101.629 126.22 101.642 126.474C101.649 126.587 101.623 126.714 101.736 126.707C101.812 126.702 101.816 126.584 101.814 126.546C101.849 125.677 102.3 124.872 103.211 124.502C104.69 123.902 106.23 124.727 106.916 126.417C107.602 128.107 107.074 129.772 105.595 130.373C104.705 130.734 103.815 130.487 103.159 129.86C103.134 129.831 103.054 129.76 102.989 129.825C102.936 129.885 103.006 129.961 103.075 130.036C103.263 130.245 103.349 130.391 103.426 130.58L104.491 133.204L103.601 133.565L100.423 125.738ZM105.136 129.627C106.293 129.157 106.496 127.935 106.026 126.779C105.557 125.622 104.559 124.888 103.403 125.357C102.347 125.786 101.999 127.067 102.469 128.223C102.938 129.379 104.08 130.055 105.136 129.627ZM113.057 120.608L113.364 121.365L111.763 122.015L113.117 125.35C113.379 125.995 113.594 126.141 114.216 125.888L115.061 125.545L115.368 126.301L114.523 126.644C113.345 127.123 112.738 126.968 112.2 125.645L110.873 122.376L109.806 122.809L109.499 122.053L110.566 121.62L109.916 120.019L110.806 119.657L111.456 121.259L113.057 120.608ZM116.218 119.221C117.886 118.544 119.424 119.461 120.078 121.073C120.733 122.685 120.269 124.415 118.602 125.092C116.934 125.769 115.396 124.852 114.741 123.24C114.087 121.628 114.55 119.899 116.218 119.221ZM118.277 124.291C119.399 123.835 119.667 122.613 119.189 121.434C118.71 120.256 117.666 119.566 116.543 120.022C115.42 120.478 115.152 121.7 115.631 122.879C116.109 124.057 117.154 124.747 118.277 124.291ZM123.304 113.961L126.482 121.789L125.504 122.186L122.326 114.358L123.304 113.961ZM128.424 114.265C129.736 113.733 130.835 114.141 131.512 115.809L132.884 119.189L131.995 119.55L130.641 116.215C130.103 114.892 129.354 114.769 128.565 115.089C127.697 115.441 127.091 116.659 127.642 118.015L128.793 120.85L127.903 121.212L125.592 115.519L126.481 115.158L126.676 115.636C126.757 115.836 126.796 116.027 126.813 116.293C126.815 116.395 126.8 116.518 126.903 116.515C126.979 116.51 126.996 116.425 126.994 116.387C127.001 115.737 127.402 114.681 128.424 114.265ZM132.888 116.908L133.755 116.556C134.014 117.163 134.69 117.679 135.846 117.209C136.98 116.749 137.095 116.042 136.946 115.675C136.72 115.119 136.261 115.073 134.677 115.509C133.395 115.861 132.517 115.518 132.215 114.773C131.867 113.917 132.291 112.695 133.759 112.1C135.148 111.535 136.218 112.033 136.73 113.069L135.851 113.426C135.597 112.894 135.077 112.445 134.032 112.869C133.043 113.271 132.906 113.922 133.059 114.3C133.19 114.623 133.439 114.949 134.968 114.536C136.381 114.156 137.397 114.235 137.768 115.147C138.237 116.304 137.576 117.388 136.109 117.984C134.652 118.575 133.453 118.142 132.888 116.908ZM143.134 111.518C143.197 111.674 143.24 111.812 143.269 111.916L139 113.65C139.451 114.632 140.488 115.273 141.622 114.813C142.434 114.483 142.626 113.809 142.565 113.083L143.499 112.704C143.682 113.73 143.315 115.058 141.914 115.627C140.179 116.331 138.679 115.347 138.042 113.779C137.334 112.034 137.929 110.406 139.508 109.765C140.731 109.269 142.339 109.561 143.134 111.518ZM139.882 110.494C138.67 110.986 138.499 111.936 138.755 112.92L142.113 111.557C141.611 110.543 140.771 110.133 139.882 110.494ZM144.351 109.327C144.355 108.251 144.497 107.74 145.931 107.157L146.301 108.069C144.599 108.63 144.361 109.414 144.965 110.904L146.144 113.806L145.254 114.167L142.943 108.474L143.832 108.113L144.013 108.558C144.099 108.769 144.153 108.967 144.173 109.27C144.175 109.372 144.183 109.486 144.276 109.461C144.347 109.445 144.352 109.392 144.351 109.327ZM150.061 105.584L150.368 106.34L148.766 106.99L150.121 110.326C150.383 110.971 150.597 111.117 151.22 110.864L152.065 110.521L152.372 111.277L151.527 111.62C150.348 112.098 149.741 111.943 149.204 110.62L147.877 107.351L146.81 107.785L146.503 107.029L147.57 106.595L146.92 104.994L147.809 104.633L148.46 106.234L150.061 105.584Z" fill="#868A98"/>
<path d="M97.0448 78.6974L102.604 76.4402C107.237 74.5592 108.337 71.9538 106.456 67.3211L104.199 61.7618C102.318 57.1291 99.7129 56.0284 95.0802 57.9094L89.5209 60.1666C84.8882 62.0475 83.7875 64.653 85.6685 69.2857L87.9257 74.845C89.8067 79.4777 92.4121 80.5784 97.0448 78.6974Z" stroke="#1374FE" stroke-width="1.5" stroke-linecap="round" stroke-linejoin="round"/>
<path d="M92.3008 59.038L99.8247 77.5688" stroke="#1374FE" stroke-width="1.5" stroke-linecap="round" stroke-linejoin="round"/>
<path d="M86.7969 72.0653L105.328 64.5414" stroke="#1374FE" stroke-width="1.5" stroke-linecap="round" stroke-linejoin="round"/>
<path d="M140.497 142.587L134.938 144.977" stroke="#292D32" stroke-width="1.5" stroke-linecap="round" stroke-linejoin="round"/>
<path d="M139.715 146.803L141.582 142.121L136.9 140.255" stroke="#292D32" stroke-width="1.5" stroke-linecap="round" stroke-linejoin="round"/>
<path d="M135.316 155.426L132.926 149.868" stroke="#292D32" stroke-width="1.5" stroke-linecap="round" stroke-linejoin="round"/>
<path d="M131.102 154.645L135.783 156.512L137.65 151.83" stroke="#292D32" stroke-width="1.5" stroke-linecap="round" stroke-linejoin="round"/>
<path d="M122.484 150.251L128.043 147.862" stroke="#292D32" stroke-width="1.5" stroke-linecap="round" stroke-linejoin="round"/>
<path d="M123.264 146.036L121.397 150.717L126.079 152.584" stroke="#292D32" stroke-width="1.5" stroke-linecap="round" stroke-linejoin="round"/>
<path d="M127.661 137.412L130.05 142.971" stroke="#292D32" stroke-width="1.5" stroke-linecap="round" stroke-linejoin="round"/>
<path d="M131.875 138.193L127.193 136.327L125.327 141.008" stroke="#292D32" stroke-width="1.5" stroke-linecap="round" stroke-linejoin="round"/>
</g>
<defs>
<filter id="filter0_d_130_3996" x="-7.1961" y="-7.08773" width="225.326" height="225.326" filterUnits="userSpaceOnUse" color-interpolation-filters="sRGB">
<feFlood flood-opacity="0" result="BackgroundImageFix"/>
<feColorMatrix in="SourceAlpha" type="matrix" values="0 0 0 0 0 0 0 0 0 0 0 0 0 0 0 0 0 0 127 0" result="hardAlpha"/>
<feOffset dy="14.1083"/>
<feGaussianBlur stdDeviation="16.598"/>
<feComposite in2="hardAlpha" operator="out"/>
<feColorMatrix type="matrix" values="0 0 0 0 0 0 0 0 0 0 0 0 0 0 0 0 0 0 0.05 0"/>
<feBlend mode="normal" in2="BackgroundImageFix" result="effect1_dropShadow_130_3996"/>
<feBlend mode="normal" in="SourceGraphic" in2="effect1_dropShadow_130_3996" result="shape"/>
</filter>
</defs>
</svg>
