<svg width="40" height="40" viewBox="0 0 40 40" fill="none" xmlns="http://www.w3.org/2000/svg">
<path d="M26.9833 3.33337H13.0166C6.94992 3.33337 3.33325 6.95004 3.33325 13.0167V26.9667C3.33325 33.05 6.94992 36.6667 13.0166 36.6667H26.9666C33.0333 36.6667 36.6499 33.05 36.6499 26.9834V13.0167C36.6666 6.95004 33.0499 3.33337 26.9833 3.33337ZM28.7666 16.6L24.9166 21.5667C24.4333 22.1834 23.7499 22.5834 22.9666 22.6667C22.1833 22.7667 21.4166 22.55 20.7999 22.0667L17.7499 19.6667C17.6333 19.5667 17.4999 19.5667 17.4333 19.5834C17.3666 19.5834 17.2499 19.6167 17.1499 19.75L13.1833 24.9C12.9333 25.2167 12.5666 25.3834 12.1999 25.3834C11.9333 25.3834 11.6666 25.3 11.4333 25.1167C10.8833 24.7 10.7833 23.9167 11.1999 23.3667L15.1666 18.2167C15.6499 17.6 16.3333 17.2 17.1166 17.1C17.8833 17 18.6666 17.2167 19.2833 17.7L22.3333 20.1C22.4499 20.2 22.5666 20.2 22.6499 20.1834C22.7166 20.1834 22.8333 20.15 22.9333 20.0167L26.7833 15.05C27.1999 14.5 27.9999 14.4 28.5333 14.8334C29.0833 15.2834 29.1833 16.0667 28.7666 16.6Z" fill="#292D32"/>
</svg>
