<svg width="40" height="40" viewBox="0 0 40 40" fill="none" xmlns="http://www.w3.org/2000/svg">
<path d="M17.9146 7.7331L10.5313 4.0831C6.54792 2.1331 3.28125 4.11644 3.28125 8.4831V33.2164C3.28125 35.1164 4.86458 36.6664 6.79792 36.6664H19.1646C20.0812 36.6664 20.8312 35.9164 20.8312 34.9998V12.3498C20.8312 10.5998 19.5146 8.51643 17.9146 7.7331ZM14.9479 22.9164H9.16458C8.48125 22.9164 7.91458 22.3498 7.91458 21.6664C7.91458 20.9831 8.48125 20.4164 9.16458 20.4164H14.9479C15.6312 20.4164 16.1979 20.9831 16.1979 21.6664C16.1979 22.3498 15.6479 22.9164 14.9479 22.9164ZM14.9479 16.2498H9.16458C8.48125 16.2498 7.91458 15.6831 7.91458 14.9998C7.91458 14.3164 8.48125 13.7498 9.16458 13.7498H14.9479C15.6312 13.7498 16.1979 14.3164 16.1979 14.9998C16.1979 15.6831 15.6479 16.2498 14.9479 16.2498Z" fill="#292D32"/>
<path d="M36.6667 30.0669V32.5002C36.6667 34.8002 34.8 36.6669 32.5 36.6669H24.95C24.05 36.6669 23.3334 35.9502 23.3334 35.0502V31.4502C25.1167 31.6669 27 31.1502 28.35 30.0669C29.4834 30.9836 30.9334 31.5336 32.5167 31.5336C34.0667 31.5336 35.5167 30.9836 36.6667 30.0669Z" fill="#292D32"/>
<path d="M36.6667 25.0835V25.1002C36.5334 27.2835 34.75 29.0335 32.5167 29.0335C30.2 29.0335 28.35 27.1502 28.35 24.8669C28.35 27.4169 26 29.4669 23.3334 28.9502V20.0002C23.3334 18.9335 24.3167 18.1335 25.3667 18.3669L28.35 19.0335L29.15 19.2169L32.55 19.9835C33.3667 20.1502 34.1167 20.4335 34.7667 20.8502C34.7667 20.8669 34.7834 20.8669 34.7834 20.8669C34.95 20.9835 35.1167 21.1169 35.2667 21.2669C36.0334 22.0335 36.5334 23.1502 36.65 24.7835C36.65 24.8835 36.6667 24.9835 36.6667 25.0835Z" fill="#292D32"/>
</svg>
