<svg width="40" height="40" viewBox="0 0 40 40" fill="none" xmlns="http://www.w3.org/2000/svg">
<path d="M29.3667 17.9168C28.65 17.9168 28.0834 17.3335 28.0834 16.6335C28.0834 16.0168 27.4667 14.7335 26.4334 13.6168C25.4167 12.5335 24.3 11.9002 23.3667 11.9002C22.65 11.9002 22.0834 11.3168 22.0834 10.6168C22.0834 9.91683 22.6667 9.3335 23.3667 9.3335C25.0334 9.3335 26.7834 10.2335 28.3167 11.8502C29.75 13.3668 30.6667 15.2502 30.6667 16.6168C30.6667 17.3335 30.0834 17.9168 29.3667 17.9168Z" fill="#292D32"/>
<path d="M35.3862 17.9168C34.6696 17.9168 34.1029 17.3335 34.1029 16.6335C34.1029 10.7168 29.2862 5.91683 23.3862 5.91683C22.6696 5.91683 22.1029 5.3335 22.1029 4.6335C22.1029 3.9335 22.6696 3.3335 23.3696 3.3335C30.7029 3.3335 36.6696 9.30016 36.6696 16.6335C36.6696 17.3335 36.0862 17.9168 35.3862 17.9168Z" fill="#292D32"/>
<path d="M18.4167 24.9168L15.3334 28.0002C14.6834 28.6502 13.65 28.6502 12.9834 28.0168C12.8 27.8335 12.6167 27.6668 12.4334 27.4835C10.7167 25.7502 9.16671 23.9335 7.78337 22.0335C6.41671 20.1335 5.31671 18.2335 4.51671 16.3502C3.73337 14.4502 3.33337 12.6335 3.33337 10.9002C3.33337 9.76683 3.53337 8.6835 3.93337 7.6835C4.33337 6.66683 4.96671 5.7335 5.85004 4.90016C6.91671 3.85016 8.08337 3.3335 9.31671 3.3335C9.78337 3.3335 10.25 3.4335 10.6667 3.6335C11.1 3.8335 11.4834 4.1335 11.7834 4.56683L15.65 10.0168C15.95 10.4335 16.1667 10.8168 16.3167 11.1835C16.4667 11.5335 16.55 11.8835 16.55 12.2002C16.55 12.6002 16.4334 13.0002 16.2 13.3835C15.9834 13.7668 15.6667 14.1668 15.2667 14.5668L14 15.8835C13.8167 16.0668 13.7334 16.2835 13.7334 16.5502C13.7334 16.6835 13.75 16.8002 13.7834 16.9335C13.8334 17.0668 13.8834 17.1668 13.9167 17.2668C14.2167 17.8168 14.7334 18.5335 15.4667 19.4002C16.2167 20.2668 17.0167 21.1502 17.8834 22.0335C18.05 22.2002 18.2334 22.3668 18.4 22.5335C19.0667 23.1835 19.0834 24.2502 18.4167 24.9168Z" fill="#292D32"/>
<path d="M36.6192 30.5499C36.6192 31.0166 36.5359 31.4999 36.3692 31.9666C36.3192 32.0999 36.2692 32.2332 36.2026 32.3666C35.9192 32.9666 35.5526 33.5332 35.0692 34.0666C34.2526 34.9666 33.3526 35.6166 32.3359 36.0332C32.3192 36.0332 32.3026 36.0499 32.2859 36.0499C31.3026 36.4499 30.2359 36.6666 29.0859 36.6666C27.3859 36.6666 25.5692 36.2666 23.6526 35.4499C21.7359 34.6332 19.8192 33.5332 17.9192 32.1499C17.2692 31.6666 16.6192 31.1832 16.0026 30.6666L21.4526 25.2166C21.9192 25.5666 22.3359 25.8332 22.6859 26.0166C22.7692 26.0499 22.8692 26.0999 22.9859 26.1499C23.1192 26.1999 23.2526 26.2166 23.4026 26.2166C23.6859 26.2166 23.9026 26.1166 24.0859 25.9332L25.3526 24.6832C25.7692 24.2666 26.1692 23.9499 26.5526 23.7499C26.9359 23.5166 27.3192 23.3999 27.7359 23.3999C28.0526 23.3999 28.3859 23.4666 28.7526 23.6166C29.1192 23.7666 29.5026 23.9832 29.9192 24.2666L35.4359 28.1832C35.8692 28.4832 36.1692 28.8332 36.3526 29.2499C36.5192 29.6666 36.6192 30.0832 36.6192 30.5499Z" fill="#292D32"/>
</svg>
