<svg width="40" height="40" viewBox="0 0 40 40" fill="none" xmlns="http://www.w3.org/2000/svg">
<path d="M21.25 26.5332H22.3333C23.4167 26.5332 24.3167 25.5665 24.3167 24.3999C24.3167 22.9499 23.8 22.6665 22.95 22.3665L21.2667 21.7832V26.5332H21.25Z" fill="#292D32"/>
<path d="M19.9501 3.16653C10.7501 3.19987 3.30009 10.6832 3.33342 19.8832C3.36676 29.0832 10.8501 36.5332 20.0501 36.4999C29.2501 36.4665 36.7001 28.9832 36.6668 19.7832C36.6334 10.5832 29.1501 3.14987 19.9501 3.16653ZM23.7668 19.9999C25.0668 20.4499 26.8168 21.4165 26.8168 24.3999C26.8168 26.9665 24.8001 29.0332 22.3334 29.0332H21.2501V29.9999C21.2501 30.6832 20.6834 31.2499 20.0001 31.2499C19.3168 31.2499 18.7501 30.6832 18.7501 29.9999V29.0332H18.1501C15.4168 29.0332 13.2001 26.7332 13.2001 23.8999C13.2001 23.2165 13.7668 22.6499 14.4501 22.6499C15.1334 22.6499 15.7001 23.2165 15.7001 23.8999C15.7001 25.3499 16.8001 26.5332 18.1501 26.5332H18.7501V20.8999L16.2334 19.9999C14.9334 19.5499 13.1834 18.5832 13.1834 15.5999C13.1834 13.0332 15.2001 10.9665 17.6668 10.9665H18.7501V9.99986C18.7501 9.31653 19.3168 8.74987 20.0001 8.74987C20.6834 8.74987 21.2501 9.31653 21.2501 9.99986V10.9665H21.8501C24.5834 10.9665 26.8001 13.2665 26.8001 16.0999C26.8001 16.7832 26.2334 17.3499 25.5501 17.3499C24.8668 17.3499 24.3001 16.7832 24.3001 16.0999C24.3001 14.6499 23.2001 13.4665 21.8501 13.4665H21.2501V19.0999L23.7668 19.9999Z" fill="#292D32"/>
<path d="M15.7031 15.6168C15.7031 17.0668 16.2198 17.3501 17.0698 17.6501L18.7531 18.2335V13.4668H17.6698C16.5865 13.4668 15.7031 14.4335 15.7031 15.6168Z" fill="#292D32"/>
</svg>
