<svg width="40" height="40" viewBox="0 0 40 40" fill="none" xmlns="http://www.w3.org/2000/svg">
<path d="M30.0308 20.55L27.9975 18.5167C27.5141 18.1 27.2308 17.4834 27.2141 16.8C27.1808 16.05 27.4808 15.3 28.0308 14.75L30.0308 12.75C31.7641 11.0167 32.4141 9.35004 31.8641 8.03337C31.3308 6.73337 29.6808 6.01671 27.2475 6.01671H9.83081V4.58337C9.83081 3.90004 9.26414 3.33337 8.58081 3.33337C7.89748 3.33337 7.33081 3.90004 7.33081 4.58337V35.4167C7.33081 36.1 7.89748 36.6667 8.58081 36.6667C9.26414 36.6667 9.83081 36.1 9.83081 35.4167V27.2834H27.2475C29.6475 27.2834 31.2641 26.55 31.8141 25.2334C32.3641 23.9167 31.7308 22.2667 30.0308 20.55Z" fill="#292D32"/>
</svg>
