<svg width="40" height="40" viewBox="0 0 40 40" fill="none" xmlns="http://www.w3.org/2000/svg">
<path d="M13.9844 30.8166V13.8833C13.9844 13.2166 14.1844 12.5666 14.551 12.0166L19.101 5.24992C19.8177 4.16658 21.601 3.39992 23.1177 3.96658C24.751 4.51658 25.8344 6.34992 25.4844 7.98325L24.6177 13.4333C24.551 13.9333 24.6844 14.3833 24.9677 14.7333C25.251 15.0499 25.6677 15.2499 26.1177 15.2499H32.9677C34.2844 15.2499 35.4177 15.7833 36.0844 16.7166C36.7177 17.6166 36.8344 18.7832 36.4177 19.9666L32.3177 32.4499C31.801 34.5166 29.551 36.1999 27.3177 36.1999H20.8177C19.701 36.1999 18.1344 35.8166 17.4177 35.0999L15.2844 33.4499C14.4677 32.8333 13.9844 31.8499 13.9844 30.8166Z" fill="#292D32"/>
<path d="M8.68325 10.6332H6.96659C4.38325 10.6332 3.33325 11.6332 3.33325 14.0998V30.8665C3.33325 33.3332 4.38325 34.3332 6.96659 34.3332H8.68325C11.2666 34.3332 12.3166 33.3332 12.3166 30.8665V14.0998C12.3166 11.6332 11.2666 10.6332 8.68325 10.6332Z" fill="#292D32"/>
</svg>
