<svg width="40" height="40" viewBox="0 0 40 40" fill="none" xmlns="http://www.w3.org/2000/svg">
<path d="M20 25C26.2132 25 31.25 20.1498 31.25 14.1667C31.25 8.18362 26.2132 3.33337 20 3.33337C13.7868 3.33337 8.75 8.18362 8.75 14.1667C8.75 20.1498 13.7868 25 20 25Z" fill="#292D32"/>
<path d="M26.3167 26.0168C26.8667 25.7335 27.5 26.1502 27.5 26.7668V34.8502C27.5 36.3502 26.45 37.0835 25.15 36.4668L20.6833 34.3502C20.3 34.1835 19.7 34.1835 19.3167 34.3502L14.85 36.4668C13.55 37.0668 12.5 36.3335 12.5 34.8335L12.5333 26.7668C12.5333 26.1502 13.1833 25.7502 13.7167 26.0168C15.6 26.9668 17.7333 27.5002 20 27.5002C22.2667 27.5002 24.4167 26.9668 26.3167 26.0168Z" fill="#292D32"/>
</svg>
