<svg width="40" height="40" viewBox="0 0 40 40" fill="none" xmlns="http://www.w3.org/2000/svg">
<path d="M14.9987 3.33325C10.632 3.33325 7.08203 6.88325 7.08203 11.2499C7.08203 15.5333 10.432 18.9999 14.7987 19.1499C14.932 19.1333 15.0654 19.1333 15.1654 19.1499C15.1987 19.1499 15.2154 19.1499 15.2487 19.1499C15.2654 19.1499 15.2654 19.1499 15.282 19.1499C19.5487 18.9999 22.8987 15.5333 22.9154 11.2499C22.9154 6.88325 19.3654 3.33325 14.9987 3.33325Z" fill="#292D32"/>
<path d="M23.4686 23.5832C18.8186 20.4832 11.2352 20.4832 6.55189 23.5832C4.43522 24.9998 3.26855 26.9165 3.26855 28.9665C3.26855 31.0165 4.43522 32.9165 6.53522 34.3165C8.86856 35.8832 11.9352 36.6665 15.0019 36.6665C18.0686 36.6665 21.1352 35.8832 23.4686 34.3165C25.5686 32.8998 26.7352 30.9998 26.7352 28.9332C26.7186 26.8832 25.5686 24.9832 23.4686 23.5832Z" fill="#292D32"/>
<path d="M33.3134 12.2334C33.5801 15.4668 31.2801 18.3001 28.0968 18.6834C28.0801 18.6834 28.0801 18.6834 28.0634 18.6834H28.0134C27.9134 18.6834 27.8134 18.6834 27.7301 18.7168C26.1134 18.8001 24.6301 18.2834 23.5134 17.3334C25.2301 15.8001 26.2134 13.5001 26.0134 11.0001C25.8968 9.65008 25.4301 8.41675 24.7301 7.36675C25.3634 7.05008 26.0968 6.85009 26.8468 6.78342C30.1134 6.50009 33.0301 8.93342 33.3134 12.2334Z" fill="#292D32"/>
<path d="M36.6483 27.6497C36.5149 29.2664 35.4816 30.6664 33.7483 31.6164C32.0816 32.5331 29.9816 32.9664 27.8983 32.9164C29.0983 31.8331 29.7983 30.4831 29.9316 29.0497C30.0983 26.9831 29.1149 24.9997 27.1483 23.4164C26.0316 22.5331 24.7316 21.8331 23.3149 21.3164C26.9983 20.2497 31.6316 20.9664 34.4816 23.2664C36.0149 24.4997 36.7983 26.0497 36.6483 27.6497Z" fill="#292D32"/>
</svg>
