<svg width="24" height="24" viewBox="0 0 24 24" fill="none" xmlns="http://www.w3.org/2000/svg">
<path d="M9.94558 1.48685C10.6329 0.673649 10.9765 0.26705 11.3865 0.111923C11.7808 -0.0373078 12.2192 -0.0373078 12.6135 0.111923C13.0235 0.26705 13.3671 0.673648 14.0544 1.48684C14.4372 1.9397 14.6285 2.16613 14.8675 2.30903C15.0988 2.44734 15.3616 2.52937 15.6331 2.54803C15.9136 2.56732 16.2102 2.49106 16.8032 2.33855C17.8465 2.07024 18.3682 1.93609 18.7858 2.03489C19.2133 2.13603 19.5825 2.39495 19.8138 2.75589C20.0398 3.10846 20.0674 3.62102 20.1227 4.64616C20.1536 5.21905 20.169 5.5055 20.2707 5.7526C20.3753 6.00684 20.5451 6.23137 20.7642 6.40521C20.9771 6.57418 21.2577 6.67692 21.8188 6.88241C22.8165 7.24779 23.3154 7.43047 23.5932 7.74132C23.8873 8.07041 24.0318 8.49963 23.9941 8.93244C23.9586 9.34126 23.6686 9.76752 23.0887 10.62C22.7654 11.0953 22.6037 11.3329 22.5341 11.5873C22.4601 11.8578 22.4601 12.1422 22.5341 12.4127C22.6037 12.6671 22.7654 12.9047 23.0887 13.38C23.6686 14.2325 23.9586 14.6587 23.9941 15.0676C24.0318 15.5004 23.8873 15.9296 23.5932 16.2587C23.3154 16.5695 22.8165 16.7522 21.8188 17.1176C21.2577 17.3231 20.9771 17.4258 20.7642 17.5948C20.5451 17.7686 20.3753 17.9932 20.2707 18.2474C20.169 18.4945 20.1536 18.781 20.1227 19.3538C20.0674 20.379 20.0398 20.8915 19.8138 21.2441C19.5825 21.605 19.2133 21.864 18.7858 21.9651C18.3682 22.0639 17.8465 21.9298 16.8032 21.6615C16.2102 21.5089 15.9136 21.4327 15.6331 21.452C15.3616 21.4706 15.0988 21.5527 14.8675 21.691C14.6285 21.8339 14.4372 22.0603 14.0544 22.5132C13.3671 23.3264 13.0235 23.733 12.6135 23.8881C12.2192 24.0373 11.7808 24.0373 11.3865 23.8881C10.9765 23.733 10.6329 23.3264 9.94558 22.5132C9.56284 22.0603 9.37147 21.8339 9.13249 21.691C8.90117 21.5527 8.63841 21.4706 8.36688 21.452C8.08635 21.4327 7.78982 21.5089 7.19676 21.6615C6.15345 21.9298 5.6318 22.0639 5.21421 21.9651C4.7867 21.864 4.41752 21.605 4.18617 21.2441C3.96019 20.8915 3.93256 20.379 3.87732 19.3538C3.84645 18.781 3.83101 18.4945 3.72932 18.2474C3.6247 17.9932 3.45492 17.7686 3.23583 17.5948C3.0229 17.4258 2.74233 17.3231 2.18119 17.1176C1.18346 16.7522 0.684592 16.5695 0.406789 16.2587C0.112691 15.9296 -0.0317798 15.5004 0.00587544 15.0676C0.0414444 14.6587 0.33141 14.2325 0.911341 13.38C1.23462 12.9047 1.39627 12.6671 1.4659 12.4127C1.53994 12.1422 1.53994 11.8578 1.4659 11.5873C1.39627 11.3329 1.23462 11.0953 0.911341 10.62C0.33141 9.76752 0.0414444 9.34126 0.00587544 8.93244C-0.0317798 8.49963 0.112691 8.07041 0.406789 7.74132C0.684592 7.43047 1.18346 7.24779 2.18119 6.88241C2.74233 6.67692 3.0229 6.57418 3.23583 6.40521C3.45492 6.23137 3.6247 6.00684 3.72932 5.7526C3.83101 5.5055 3.84645 5.21905 3.87732 4.64616C3.93256 3.62102 3.96019 3.10845 4.18617 2.75589C4.41752 2.39495 4.7867 2.13603 5.21421 2.03489C5.6318 1.93609 6.15345 2.07024 7.19676 2.33855C7.78982 2.49106 8.08635 2.56732 8.36688 2.54803C8.63841 2.52937 8.90117 2.44734 9.13249 2.30903C9.37147 2.16613 9.56284 1.9397 9.94558 1.48685Z" fill="#32B000"/>
<path d="M8.20996 12.5996C8.20996 12.5996 9.31522 12.5996 10.4205 14.5996C10.4205 14.5996 13.9313 9.59961 17.0521 8.59961" stroke="white" stroke-width="1.31684" stroke-linecap="round" stroke-linejoin="round"/>
</svg>
