<svg width="40" height="40" viewBox="0 0 40 40" fill="none" xmlns="http://www.w3.org/2000/svg">
<path d="M25.6491 8.68339L27.9991 13.3834C28.3158 14.0334 29.1658 14.6501 29.8824 14.7834L34.1324 15.4834C36.8491 15.9334 37.4824 17.9001 35.5324 19.8667L32.2158 23.1834C31.6658 23.7334 31.3491 24.8167 31.5324 25.6001L32.4824 29.7001C33.2324 32.9334 31.4991 34.2001 28.6491 32.5001L24.6658 30.1334C23.9491 29.7001 22.7491 29.7001 22.0324 30.1334L18.0491 32.5001C15.1991 34.1834 13.4658 32.9334 14.2158 29.7001L15.1658 25.6001C15.3158 24.8001 14.9991 23.7167 14.4491 23.1667L11.1324 19.8501C9.18242 17.9001 9.81576 15.9334 12.5324 15.4667L16.7824 14.7667C17.4991 14.6501 18.3491 14.0167 18.6658 13.3667L21.0158 8.66672C22.2991 6.13339 24.3658 6.13339 25.6491 8.68339Z" fill="#292D32"/>
<path d="M13.3333 9.58337H3.33325C2.64992 9.58337 2.08325 9.01671 2.08325 8.33337C2.08325 7.65004 2.64992 7.08337 3.33325 7.08337H13.3333C14.0166 7.08337 14.5833 7.65004 14.5833 8.33337C14.5833 9.01671 14.0166 9.58337 13.3333 9.58337Z" fill="#292D32"/>
<path d="M8.33325 32.9166H3.33325C2.64992 32.9166 2.08325 32.35 2.08325 31.6666C2.08325 30.9833 2.64992 30.4166 3.33325 30.4166H8.33325C9.01659 30.4166 9.58325 30.9833 9.58325 31.6666C9.58325 32.35 9.01659 32.9166 8.33325 32.9166Z" fill="#292D32"/>
<path d="M4.99992 21.25H3.33325C2.64992 21.25 2.08325 20.6833 2.08325 20C2.08325 19.3167 2.64992 18.75 3.33325 18.75H4.99992C5.68325 18.75 6.24992 19.3167 6.24992 20C6.24992 20.6833 5.68325 21.25 4.99992 21.25Z" fill="#292D32"/>
</svg>
