<svg width="40" height="40" viewBox="0 0 40 40" fill="none" xmlns="http://www.w3.org/2000/svg">
<path d="M26.9833 3.3335H13.0166C6.94998 3.3335 3.33331 6.95016 3.33331 13.0168V26.9668C3.33331 33.0502 6.94998 36.6668 13.0166 36.6668H26.9666C33.0333 36.6668 36.65 33.0502 36.65 26.9835V13.0168C36.6666 6.95016 33.05 3.3335 26.9833 3.3335ZM12.7166 30.2502C12.7166 30.9335 12.15 31.5002 11.4666 31.5002C10.7833 31.5002 10.2166 30.9335 10.2166 30.2502V26.8002C10.2166 26.1168 10.7833 25.5502 11.4666 25.5502C12.15 25.5502 12.7166 26.1168 12.7166 26.8002V30.2502ZM21.25 30.2502C21.25 30.9335 20.6833 31.5002 20 31.5002C19.3166 31.5002 18.75 30.9335 18.75 30.2502V23.3335C18.75 22.6502 19.3166 22.0835 20 22.0835C20.6833 22.0835 21.25 22.6502 21.25 23.3335V30.2502ZM29.7833 30.2502C29.7833 30.9335 29.2166 31.5002 28.5333 31.5002C27.85 31.5002 27.2833 30.9335 27.2833 30.2502V19.8835C27.2833 19.2002 27.85 18.6335 28.5333 18.6335C29.2166 18.6335 29.7833 19.2002 29.7833 19.8835V30.2502ZM29.7833 14.6168C29.7833 15.3002 29.2166 15.8668 28.5333 15.8668C27.85 15.8668 27.2833 15.3002 27.2833 14.6168V13.0002C23.0333 17.3668 17.7166 20.4502 11.7666 21.9335C11.6666 21.9668 11.5666 21.9668 11.4666 21.9668C10.9 21.9668 10.4 21.5835 10.25 21.0168C10.0833 20.3502 10.4833 19.6668 11.1666 19.5002C16.7833 18.1002 21.7833 15.1502 25.75 10.9835H23.6666C22.9833 10.9835 22.4166 10.4168 22.4166 9.7335C22.4166 9.05016 22.9833 8.4835 23.6666 8.4835H28.55C28.6166 8.4835 28.6666 8.51683 28.7333 8.51683C28.8166 8.5335 28.9 8.5335 28.9833 8.56683C29.0666 8.60016 29.1333 8.65016 29.2166 8.70016C29.2666 8.7335 29.3166 8.75016 29.3666 8.7835C29.3833 8.80016 29.3833 8.81683 29.4 8.81683C29.4666 8.8835 29.5166 8.95016 29.5666 9.01683C29.6166 9.0835 29.6666 9.1335 29.6833 9.20016C29.7166 9.26683 29.7166 9.3335 29.7333 9.41683C29.75 9.50016 29.7833 9.5835 29.7833 9.6835C29.7833 9.70016 29.8 9.71683 29.8 9.7335V14.6168H29.7833Z" fill="#292D32"/>
</svg>
